<svg id="Layer_1" data-name="Layer 1" xmlns="http://www.w3.org/2000/svg" width="150" height="150" viewBox="0 0 150 150"><defs><style>.cls-1{fill:#286f83;}.cls-2{fill:#ec2027;}</style></defs><title>VMS-01</title><path class="cls-1" d="M75.46,27.74s-7.66,23,0,42.19,23.52,49.1,17,65.9c0,0,21.1-21.66,12.89-46.86S82.74,59.29,75.46,27.74Z"/><path class="cls-2" d="M119.89,40.71c-.34,16.37-8.74,23.82-15.77,30.41a83.8,83.8,0,0,1,7.06,15.94,44.51,44.51,0,0,1,1.83,8C118.21,89.58,132.94,66.44,119.89,40.71Z"/><path class="cls-1" d="M84.23,140s.72,0,2.47-6.36C90,121.74,81.52,99.8,74.48,83.49l-1.1-2.56c-.49-1.07-.95-2.13-1.36-3.18-.81-1.92-1.58-3.77-2.29-5.54A58.8,58.8,0,0,1,65.9,51C45.09,87.74,67.46,117.4,76,126.31,80.88,131.38,84.39,137.39,84.23,140Z"/><circle class="cls-2" cx="44.33" cy="71.47" r="7.42"/><circle class="cls-2" cx="100.65" cy="51.07" r="7.84" transform="translate(-6.63 86.13) rotate(-45)"/><path class="cls-2" d="M53,96.73c-20.67-10.92-24.9-25.26-24.9-25.26A74.23,74.23,0,0,0,29.5,84.12c2.85,11.32,11,27.44,34.1,36.42A75,75,0,0,1,53,96.73Z"/><path class="cls-1" d="M78.05,140c-.26-1.4-2.59-5.33-6.48-9.39-.77-.8-1.92-2.06-3.28-3.71A59.84,59.84,0,0,1,46.41,13.71,67.69,67.69,0,0,0,75,142.76q1.44,0,2.88-.06S78.58,142.76,78.05,140Z"/><path class="cls-1" d="M77.09,7.42l0,.1A59.83,59.83,0,0,1,111.9,112.86a66,66,0,0,1-13.74,25.83A67.69,67.69,0,0,0,77.09,7.42Z"/></svg>