<svg xmlns="http://www.w3.org/2000/svg" viewBox="0 0 216.16 336.04"><defs><style>.cls-1{fill:#fdc100;}</style></defs><title>Asset 3</title><g id="Layer_2" data-name="Layer 2"><g id="Layer_1-2" data-name="Layer 1"><path class="cls-1" d="M216.14,197.65c-.55-20.11-.14-40.24-.14-60.37V72.79c0-.25,0-.5,0-.75a35.93,35.93,0,0,0-33.37-35.85c-2-.16-2.59-.62-2.77-2.71C178.2,14.17,163.08.17,143.69.08q-35.62-.16-71.24,0c-19.61.08-34.57,14-36.34,33.65-.14,1.61-.34,2.27-2.22,2.46C13.21,38.26,0,52.94,0,73.78q0,63.75,0,127.49a37.18,37.18,0,0,0,.37,6c1.82,11.47,8.46,20.13,16.82,27.55,17.41,15.45,38.06,24.87,60.1,31.57,6.6,2,6.6,2,6.69,8.95.08,6.35,3.38,11.1,9.34,12.31,2.59.53,2.7,1.65,2.69,3.66q-.09,15.75,0,31.5c0,7.87,5,13.33,12.12,13.26,6.93-.07,11.84-5.48,11.86-13.15,0-10.62.06-21.25,0-31.87,0-2,.35-2.86,2.61-3.35,5.86-1.25,9.29-5.86,9.43-11.87a37.66,37.66,0,0,0,0-4.87c-.23-2.11.48-2.95,2.64-3.48a153.2,153.2,0,0,0,27.11-9.5c14.63-6.61,28.49-14.44,40-25.89C211.22,222.59,216.53,211.59,216.14,197.65ZM178.49,103C165.08,118,148,127.39,129.72,134.93c-27.33,11.29-56,17.12-85.33,19.64-5.73.49-11.49.63-17.2,1.25-2.8.3-3.27-.6-3.25-3.17.13-13.37.06-26.74.06-40.12,0-13.12,0-26.25,0-39.37,0-8.2,4.86-13,13-13.11,3.63,0,7.25.06,10.88,0A12,12,0,0,0,60,47.88c.08-3.88,0-7.75,0-11.63.13-7,5.06-12.14,12-12.17q36-.1,72,0A11.85,11.85,0,0,1,156,36c.09,3.62,0,7.25,0,10.88.05,8.35,4.9,13.13,13.35,13.17,3.5,0,7-.06,10.5,0,7.12.15,12.27,5.37,12.11,12.48C191.69,84.54,186.27,94.38,178.49,103Z"/><path class="cls-1" d="M120.2,36.08c-4-.12-8,0-12,0s-8.23-.09-12.34,0A12,12,0,0,0,95.79,60q12.15.21,24.31,0a12,12,0,0,0,.1-23.93Z"/></g></g></svg>