<svg xmlns="http://www.w3.org/2000/svg" viewBox="0 0 305 350.28"><defs><style>.cls-1{fill:#20b25b;}</style></defs><title>Asset 2</title><g id="Layer_2" data-name="Layer 2"><g id="Layer_1-2" data-name="Layer 1"><path class="cls-1" d="M305,168c-.41-16.49-.07-33-.07-49.51q0-34.21,0-68.41c0-5.62-2.13-8-7.61-8.78a211.94,211.94,0,0,1-21.31-4c-27.74-6.79-52.85-19.26-76.19-35.48A9.69,9.69,0,0,0,193.87,0q-41.33.09-82.65,0A10.18,10.18,0,0,0,105,2C76.09,22,44.72,36.12,9.6,41.08,1.07,42.28,0,43.72,0,52.39,0,92.54.1,132.67,0,172.81A143.84,143.84,0,0,0,15.53,237.9c13,26.14,31.37,48,53.48,66.74,23.73,20.15,50,35.88,79.92,45.1a11.79,11.79,0,0,0,7.54-.16Q234.72,323.4,280,254.42C297.16,228.31,305.75,199.51,305,168Zm-47.68,82c-26.08,36.05-59.91,62.08-101.79,77.46a8.05,8.05,0,0,1-5.78.08c-31.38-10.79-58-29-81.07-52.49-18.24-18.57-32.85-39.55-41.27-64.45a112.19,112.19,0,0,1-5.93-36c0-36.83,0-73.65-.07-110.48,0-2.39.44-3.47,3-4C56.14,54,85,41,111.82,23.16a10,10,0,0,1,5.92-1.78q34.92.11,69.85,0a8.36,8.36,0,0,1,5,1.41c27,18,56,31.16,88,37.4,2.25.43,3,1.22,3,3.64-.13,19.48-.07,39-.07,58.43,0,14.86-.41,29.72.09,44.55C284.61,197.73,275.17,225.27,257.27,250Z"/><path class="cls-1" d="M269.24,127.64c0-17.34-.06-34.69.07-52,0-2.5-.7-3.47-3.1-4.06-27.77-6.82-53.33-18.68-77.31-34.11a10.88,10.88,0,0,0-6.29-1.8q-30.11.09-60.22,0a11.32,11.32,0,0,0-6.59,2c-23.9,15.31-49.37,27.13-77,33.92-2.77.69-3.16,1.91-3.15,4.34q.09,48.83,0,97.64C35.65,188,38.19,202,44.3,215c22,47,58.74,78.3,106.22,97.78a5.5,5.5,0,0,0,4.42-.28,201.58,201.58,0,0,0,90.77-70.8c15.91-22.06,24.56-46.56,23.61-74.16C268.86,154.26,269.24,141,269.24,127.64ZM218.6,181.55c0,4.2-1.07,5.27-5.23,5.28-10.56,0-21.12.09-31.69-.06-2.41,0-2.92.73-2.89,3,.11,10.56.07,21.12.05,31.69,0,4-1.13,5.14-5,5.14q-21.37,0-42.74,0c-3.88,0-5-1.18-5-5.12,0-10.44-.08-20.9.06-31.34,0-2.56-.46-3.42-3.24-3.37-10.44.19-20.89.09-31.33.07-4.17,0-5.25-1.06-5.25-5.27q0-21,0-42c0-4.43,1-5.49,5.41-5.49,10.56,0,21.13-.08,31.69,0,2.23,0,2.75-.57,2.72-2.75-.12-10.32-.06-20.65-.05-31,0-5.3.78-6.06,6.25-6.06h20.3c7,0,14,0,21,0,4.16,0,5.2,1.1,5.21,5.31,0,10.45.08,20.89-.06,31.34,0,2.43.49,3.18,3.06,3.14,10.44-.16,20.89-.07,31.33,0,4.38,0,5.43,1,5.44,5.47Q218.64,160.54,218.6,181.55Z"/></g></g></svg>