<svg xmlns="http://www.w3.org/2000/svg" viewBox="0 0 300.74 300.78"><defs><style>.cls-1{fill:#5a9bd5;}</style></defs><title>Asset 4</title><g id="Layer_2" data-name="Layer 2"><g id="Layer_1-2" data-name="Layer 1"><path class="cls-1" d="M299.37,244c-3.05-13.57-11.58-23.58-24.21-29.62-3.4-1.62-4.68-3.48-4.67-7.29q.19-81.51,0-163c-.06-17.83-9-30.68-24.21-39.42a38.59,38.59,0,0,0-17-4.64H219.9c-2.54.67-5.22.39-7.76,1.12A45.94,45.94,0,0,0,179.2,44.78q0,65.51,0,131a83.68,83.68,0,0,1-.5,9.35A44,44,0,0,1,91,182.76c-.13-2.71.71-3.72,3.25-4.41,20.4-5.57,35.9-17.65,46.6-35.83,6.86-11.65,9.84-24.44,10-37.82.22-18.37.05-36.73.06-55.1a76.74,76.74,0,0,0-.52-9.93,45,45,0,0,0-17.65-31A39.42,39.42,0,0,0,109.65,0h-7c-2.53.58-5.09.78-7.32,2.52A15.78,15.78,0,0,0,93.76,26c3,3,6.59,4.3,10.7,4.86,10.36,1.41,14.63,6.31,14.92,16.77,0,.88,0,1.76,0,2.64,0,11.33.09,22.66,0,34-.09,8,.29,16-.43,24-1.35,15-8.41,26.39-20.91,34.47-16.42,10.62-39.33,8-53.3-5.62-9.51-9.28-13.95-20.51-14-33.63,0-16.21,0-32.43,0-48.64,0-2.93-.08-5.86,0-8.79.34-8.7,4.57-13.48,13.14-14.93.87-.15,1.73-.29,2.6-.42,8.28-1.14,14-7.18,14.13-15C60.81,7,56.42,1.7,47.5,0H39.87a2.58,2.58,0,0,1-1.29.37h0c-.7,0-1.42-.09-2.12,0-11.65,1.76-20.62,8-27.77,17A38.83,38.83,0,0,0,0,39.29v73.88c.74,2.83.45,5.79,1.12,8.64A76.05,76.05,0,0,0,56,178.43c2,.53,3.08,1.45,3.22,3.53.07,1.07.31,2.12.35,3.2.49,12.73,4.62,24.31,11.23,35.06a75.85,75.85,0,0,0,70.72,35.47c20.63-1.93,38-10.86,51.41-26.78,11.5-13.62,17.75-29.41,17.81-47.3.14-44.07.05-88.15,0-132.23a34.94,34.94,0,0,1,.71-7.57,14.05,14.05,0,0,1,27.42.67,44.24,44.24,0,0,1,.72,7.28q0,79,.05,158c0,3.21-1.06,4.93-4,6.24a44.82,44.82,0,0,0-25.52,49.26c4.93,25.64,28.09,42.74,56.52,36C289.64,293.88,305.63,271.87,299.37,244Z"/></g></g></svg>