<svg xmlns="http://www.w3.org/2000/svg" viewBox="0 0 255 357.92"><defs><style>.cls-1{fill:#f07c33;}</style></defs><title>Asset 1</title><g id="Layer_2" data-name="Layer 2"><g id="Layer_1-2" data-name="Layer 1"><path class="cls-1" d="M244.47,337c-3.73,8.42-10.48,13.07-19.12,15.48a131,131,0,0,1-27.71,4.79c-.74,0-1.59-.18-2.13.62H168.58c-4.58-1.48-9.41-1.28-14.11-1.93-38-5.23-73-17.86-102.75-42.8C25.35,291.05,9.31,262.64,3,228.81-1.72,203.15-.49,177.53,4,152a348.64,348.64,0,0,1,11.23-44.55c2.07-6.55,3.94-7.53,10.68-5.65l1.29.34a2,2,0,0,1,.1.64c-1.31,1.23-1.49,3-1.91,4.55a365.6,365.6,0,0,0-9.09,44.14,228.59,228.59,0,0,0-1.76,39.11,152.76,152.76,0,0,0,2.55,22.21c3.73,20,10.63,38.7,21.93,55.7a145.5,145.5,0,0,0,25.13,28.59c14.67,13,31.3,22.6,49.31,30A222.3,222.3,0,0,0,167,341.3c10.64,1.5,21.31,1.82,32,2.4,3.64.19,7.3-.72,11-.62,5.14.14,10.21-.81,15.23-1.75C231.69,340.11,238.07,338.49,244.47,337Z"/><path class="cls-1" d="M156.42,24.54c-.47,1-.14,2.39-.18,3.6a9.83,9.83,0,0,1-1.57,1.19,209.39,209.39,0,0,0-41,25.89A200.89,200.89,0,0,0,91.38,75.85c-3,3.28-6.17,6.43-9.26,9.65.14-2.73-.92-5.45,0-8.18,4.89-24,9.85-48.09,14.6-72.16A7.83,7.83,0,0,1,100.29,0h10.09c3.73.92,7.48,1.73,11.18,2.76,9.68,2.68,19.15,6,27.76,11.28a40.71,40.71,0,0,1,5.11,3.76C156.49,19.56,157.77,21.59,156.42,24.54Z"/><path class="cls-1" d="M84.12,83.77a15,15,0,0,1-1.37,2.3,154.39,154.39,0,0,0-18.23,26.87c-1.24,2.31-2.23,1.87-3.72.37A159.39,159.39,0,0,0,41.49,96.73c-4.75-3.47-9.27-7.41-15.17-9a2,2,0,0,0-.1-.64c0-7.61.25-15.24-.1-22.84-.21-4.56,1.72-7.4,5.2-9.76,8.52-5.75,18.13-8.59,28.1-10.45a53.23,53.23,0,0,1,15.38-.7c5.69.59,7.13,2.12,7.43,7.7q.58,11.38,1.23,22.81c0,.61-.22,1.38.63,1.71C83.2,78.33,84.26,81.05,84.12,83.77Z"/><path class="cls-1" d="M254.62,293.61c-.77,13.89-2.81,27.6-8.58,40.48-.46,1-1,2-1.57,2.94-6.4,1.46-12.78,3.08-19.23,4.3-5,.94-10.09,1.89-15.23,1.75-3.72-.1-7.38.81-11,.62-10.67-.58-21.34-.9-32-2.4a222.3,222.3,0,0,1-53.53-14.25c-18-7.39-34.64-17-49.31-30A145.5,145.5,0,0,1,39,268.47c-11.3-17-18.2-35.71-21.93-55.7a152.76,152.76,0,0,1-2.55-22.21,228.59,228.59,0,0,1,1.76-39.11,365.6,365.6,0,0,1,9.09-44.14c.42-1.55.6-3.32,1.91-4.55,5.9,1.56,10.42,5.5,15.17,9A159.39,159.39,0,0,1,61.8,128.31c1.49,1.5,2.48,1.94,3.72-.37a154.39,154.39,0,0,1,18.23-26.87,15,15,0,0,0,1.37-2.3c3.09-3.21,6.24-6.37,9.26-9.65A200.8,200.8,0,0,1,116.71,68.5a208.92,208.92,0,0,1,41-25.89,9.34,9.34,0,0,0,1.57-1.2c3.91-1.64,7.95-3,11.72-5,6.08-3.06,11.77-2.19,17.23,1.22,9,5.63,15.92,13.51,21.69,22.23,4.63,7,2.53,13.95-2,20.34-2.35,3.33-5.51,5.85-8.47,8.6-7.55,7-14.86,14.33-22.25,21.53a3.73,3.73,0,0,0-.51,1.18,3.31,3.31,0,0,0-2.28,1.27,104.62,104.62,0,0,0-26.78,41.23c-5.43,15.33-6.63,31.19-5.86,47.25a118.05,118.05,0,0,0,2,14.2,7.43,7.43,0,0,0,6.56,6.3c2.87.38,4.94-1.18,6.5-3.38s1.22-5,.77-7.48a108.42,108.42,0,0,1-1-33.67,91.28,91.28,0,0,1,18.5-44c4-5.15,8.08-10.49,14.05-13.75,9.19,6,16.66,13.89,23.35,22.48,19.56,25.1,30.24,54.11,36.85,84.84A250.8,250.8,0,0,1,254.62,293.61Z"/></g></g></svg>