<svg width="33" height="33" viewBox="0 0 33 33" fill="none" xmlns="http://www.w3.org/2000/svg">
<path d="M16.2466 0C7.29149 0 0 7.29149 0 16.2466C0 25.2018 7.29149 32.4933 16.2466 32.4933C25.2018 32.4933 32.4933 25.2083 32.4933 16.2466C32.4933 7.28499 25.2083 0 16.2466 0ZM20.7502 9.63751C20.7502 9.77398 20.6397 9.88446 20.5033 9.88446H18.5472C18.0663 9.88446 17.6763 10.2744 17.6763 10.7553V12.8024H20.4578C20.4643 12.8024 20.4708 12.8024 20.4773 12.8024C20.6137 12.8153 20.7112 12.9323 20.6982 13.0688L20.4513 15.9542C20.4383 16.0842 20.3343 16.1817 20.2043 16.1817H17.6698V25.7542C17.6698 25.8906 17.5594 26.0011 17.4229 26.0011H13.9266C13.7901 26.0011 13.6797 25.8906 13.6797 25.7542V16.3246V16.1687H11.9315C11.7951 16.1687 11.6846 16.0582 11.6846 15.9217V13.0363C11.6846 12.8998 11.7951 12.7894 11.9315 12.7894H13.6797V10.0079C13.6797 8.07133 15.2523 6.49866 17.1889 6.49866H20.4903C20.6267 6.49866 20.7372 6.60913 20.7372 6.7456V9.63751H20.7502Z" fill="white"/>
</svg>
