<svg width="544" height="404" viewBox="0 0 544 404" fill="none" xmlns="http://www.w3.org/2000/svg">
<g clip-path="url(#clip0_30_57)">
<path d="M532.735 404H13.6049C13.1755 404 12.8688 403.513 12.8688 402.832C12.8688 402.151 13.1755 401.665 13.6049 401.665H532.735C533.164 401.665 533.471 402.151 533.471 402.832C533.471 403.513 533.103 404 532.735 404Z" fill="#3F3D56"/>
<path d="M120.077 158.966C131.877 158.966 141.443 149.41 141.443 137.622C141.443 125.833 131.877 116.277 120.077 116.277C108.277 116.277 98.7112 125.833 98.7112 137.622C98.7112 149.41 108.277 158.966 120.077 158.966Z" fill="#2F2E41"/>
<path d="M103.397 126.11C106.862 122.648 107.572 117.743 104.981 115.155C102.39 112.567 97.4808 113.276 94.0154 116.738C90.55 120.199 89.8409 125.104 92.4316 127.692C95.0222 130.28 99.9316 129.572 103.397 126.11Z" fill="#2F2E41"/>
<path d="M142.312 119.314C143.751 115.949 141.264 111.661 136.757 109.738C132.25 107.815 127.43 108.984 125.991 112.35C124.552 115.716 127.039 120.003 131.546 121.927C136.053 123.85 140.873 122.68 142.312 119.314Z" fill="#2F2E41"/>
<path d="M179.523 260.784C181.591 256.911 180.04 252.091 176.163 250.112C175.732 249.853 175.302 249.681 174.871 249.595L144.028 184.356L129.899 194.254L164.705 255.276C163.671 259.579 166.255 263.882 170.563 264.915C174.095 265.69 177.8 264.055 179.523 260.784Z" fill="#FFB8B8"/>
<path d="M151.092 195.201L134.723 202.516C132.914 203.291 130.846 202.516 129.985 200.709C129.899 200.537 129.813 200.365 129.813 200.193L124.988 182.979C122.834 177.987 125.074 172.135 130.071 169.983C135.068 167.831 140.84 170.069 143.08 174.975L152.643 190.037C153.677 191.672 153.246 193.91 151.523 194.943C151.437 195.029 151.265 195.115 151.092 195.201Z" fill="#CCCCCC"/>
<path d="M75.4498 267.239C79.6714 266.292 82.3421 261.989 81.3944 257.772C81.3083 257.341 81.136 256.911 80.9636 256.481L110.17 190.553L93.4559 186.336L70.0222 252.522C66.0591 254.501 64.5084 259.321 66.5761 263.194C68.1268 266.378 71.8314 268.1 75.4498 267.239Z" fill="#FFB8B8"/>
<path d="M67.4376 386.787L75.9668 389.885L91.9051 358.556L79.4129 353.995L67.4376 386.787Z" fill="#FFB8B8"/>
<path d="M89.4929 403.742L62.7853 394.016L66.5761 383.688L82.9452 389.627C88.6313 391.692 91.5605 398.061 89.4929 403.742Z" fill="#2F2E41"/>
<path d="M87.5975 368.798C87.0806 368.798 86.5636 368.712 86.0467 368.454L76.3114 363.807C74.6745 363.032 73.8991 361.139 74.5022 359.417L102.071 283.162C102.76 281.354 104.742 280.321 106.637 281.01C107.413 281.268 108.016 281.784 108.447 282.559L123.006 306.83C123.696 307.949 123.696 309.326 123.006 310.445L90.6128 367.077C90.0098 368.11 88.8898 368.798 87.5975 368.798Z" fill="#2F2E41"/>
<path d="M120.68 160.774C130.672 160.774 138.772 152.682 138.772 142.7C138.772 132.718 130.672 124.625 120.68 124.625C110.688 124.625 102.588 132.718 102.588 142.7C102.588 152.682 110.688 160.774 120.68 160.774Z" fill="#FFB8B8"/>
<path d="M146.354 225.066L114.305 216.287L97.1605 182.118C94.4897 176.782 96.6436 170.327 101.985 167.745C103.45 166.971 105.087 166.626 106.81 166.626H132.311C134.982 166.626 137.48 167.573 139.462 169.38C146.268 175.491 160.655 193.221 146.44 224.808L146.354 225.066Z" fill="#CCCCCC"/>
<path d="M106.207 202.258L89.9237 194.684C88.1144 193.824 87.3391 191.758 88.2006 189.951C88.2867 189.778 88.3729 189.606 88.459 189.52L98.3667 174.631C100.693 169.725 106.551 167.659 111.548 169.983C116.459 172.307 118.527 178.159 116.287 183.065L111.203 200.107C110.6 202 108.619 203.033 106.81 202.516C106.551 202.43 106.379 202.344 106.207 202.258Z" fill="#CCCCCC"/>
<path d="M125.849 395.307H134.896L139.203 360.45H125.849V395.307Z" fill="#FFB8B8"/>
<path d="M152.385 403.742H123.954V392.811H141.357C147.388 392.725 152.385 397.631 152.385 403.742Z" fill="#2F2E41"/>
<path d="M129.296 382.053C127.659 382.053 126.194 380.848 125.85 379.213C123.265 366.991 109.739 304.248 99.2282 271.973C88.5451 239.095 106.81 224.119 110.514 221.451C110.945 221.193 111.203 220.763 111.462 220.332L114.219 214.308C114.822 213.017 116.028 212.242 117.493 212.242C137.997 212.328 144.889 218.869 146.957 221.623C147.56 222.484 147.732 223.517 147.474 224.55L134.465 278.084C134.379 278.428 134.379 278.772 134.379 279.116L147.302 376.372C147.56 378.352 146.182 380.073 144.286 380.331C144.286 380.331 144.286 380.331 144.2 380.331L129.726 381.967C129.554 382.053 129.382 382.053 129.296 382.053Z" fill="#2F2E41"/>
<path d="M101.641 131.339C105.776 134.179 110.687 135.728 115.77 135.728C113.96 136.933 111.893 137.794 109.825 138.224C116.545 139.687 123.437 139.687 130.157 138.31C131.622 138.052 133.086 137.536 134.379 136.847C135.671 136.072 136.705 134.867 136.963 133.318C137.394 130.736 135.413 128.499 133.345 126.949C126.97 122.216 118.785 120.58 111.031 122.474C108.533 123.076 106.034 124.195 104.397 126.175C102.76 128.154 102.33 131.253 103.88 133.318L101.641 131.339Z" fill="#2F2E41"/>
<path d="M387.928 176.438C394.113 176.438 399.128 171.429 399.128 165.249C399.128 159.07 394.113 154.06 387.928 154.06C381.742 154.06 376.728 159.07 376.728 165.249C376.728 171.429 381.742 176.438 387.928 176.438Z" fill="#0057CF"/>
<path d="M386.808 169.553C386.549 169.553 386.291 169.467 386.119 169.294L383.448 167.315C382.931 166.885 382.845 166.196 383.189 165.68C383.534 165.163 384.309 165.077 384.826 165.421L386.549 166.712L390.599 161.462C391.029 160.946 391.719 160.86 392.235 161.204C392.752 161.634 392.839 162.323 392.494 162.839L387.755 169.036C387.497 169.381 387.152 169.553 386.808 169.553Z" fill="white"/>
<path d="M387.928 209.144C394.113 209.144 399.128 204.134 399.128 197.955C399.128 191.775 394.113 186.766 387.928 186.766C381.742 186.766 376.728 191.775 376.728 197.955C376.728 204.134 381.742 209.144 387.928 209.144Z" fill="#0057CF"/>
<path d="M386.808 202.258C386.549 202.258 386.291 202.172 386.119 202L383.448 200.02C382.931 199.59 382.845 198.902 383.189 198.385C383.534 197.869 384.309 197.783 384.826 198.127L386.549 199.418L390.599 194.168C391.029 193.651 391.719 193.565 392.235 193.91C392.752 194.34 392.839 195.028 392.494 195.545L387.755 201.742C387.497 202.086 387.152 202.258 386.808 202.258Z" fill="white"/>
<path d="M393.958 247.013C400.144 247.013 405.158 242.004 405.158 235.824C405.158 229.645 400.144 224.636 393.958 224.636C387.773 224.636 382.759 229.645 382.759 235.824C382.759 242.004 387.773 247.013 393.958 247.013Z" fill="#0057CF"/>
<path d="M392.839 240.128C392.58 240.128 392.322 240.042 392.149 239.87L389.479 237.89C388.962 237.46 388.875 236.771 389.22 236.255C389.565 235.738 390.34 235.652 390.857 235.997L392.58 237.288L396.629 232.038C397.06 231.521 397.749 231.435 398.266 231.779C398.783 232.21 398.869 232.898 398.525 233.415L393.786 239.611C393.528 239.956 393.183 240.128 392.839 240.128Z" fill="white"/>
<path d="M501.995 329.208C501.909 329.208 501.822 329.208 501.822 329.208H487.952V327.142H501.909C502.253 327.142 508.801 327.314 514.918 319.998C523.964 309.068 531.373 281.871 515.435 214.738C493.896 124.539 511.902 44.8411 520.604 14.7175C522.155 9.38135 519.053 3.87304 513.798 2.32383C512.936 2.06562 511.988 1.89349 511.041 1.89349H303.411C300.224 1.89349 297.208 3.4427 295.313 6.02472C291.608 11.1027 286.525 20.8283 283.424 38.4721L281.442 38.1278C284.716 20.1398 289.885 10.0699 293.762 4.90585C296.002 1.80742 299.621 -0.0860596 303.498 -0.0860596H511.127C517.761 -0.0860596 523.188 5.25011 523.188 11.9634C523.188 13.0822 523.016 14.2011 522.758 15.32C514.056 45.2714 496.222 124.539 517.675 214.308C533.871 282.387 526.118 310.101 516.727 321.375C510.093 328.863 503.287 329.208 501.995 329.208Z" fill="#E6E6E6"/>
<path d="M464.518 366.647C464.432 366.647 464.346 366.647 464.346 366.647H450.475V364.581H464.432C464.776 364.581 471.324 364.753 477.441 357.438C486.487 346.507 493.896 319.31 477.958 252.177C456.42 161.979 474.426 82.2803 483.127 52.1568C484.678 46.8206 481.576 41.3123 476.321 39.7631C475.459 39.5049 474.512 39.3328 473.564 39.3328H265.935C262.747 39.3328 259.732 40.882 257.836 43.464C254.132 48.542 249.049 58.2676 245.947 75.9114L243.966 75.5671C247.239 57.579 252.409 47.5092 256.286 42.3451C258.526 39.2467 262.144 37.3532 266.021 37.3532H473.65C480.284 37.3532 485.712 42.6894 485.712 49.4026C485.712 50.5215 485.539 51.6404 485.281 52.7593C476.579 82.7107 458.746 161.979 480.198 251.747C496.395 319.826 488.641 347.54 479.25 358.815C472.703 366.216 465.81 366.647 464.518 366.647Z" fill="#CCCCCC"/>
<path d="M442.463 289.1C421.097 199.332 438.93 120.064 447.546 90.1125C449.355 83.7435 445.65 77.0303 439.275 75.2228C438.155 74.8786 437.035 74.7925 435.915 74.7925H228.286C224.409 74.7925 220.79 76.5999 218.55 79.7844C210.194 91.3174 192.791 129.445 212.175 235.136C222.6 291.682 222.427 330.24 218.981 355.63C217.086 369.917 214.157 380.073 211.486 386.873L211.227 387.561C210.624 388.938 210.366 390.401 210.366 391.865C210.366 395.307 211.744 398.492 214.243 400.816C215.018 401.59 215.966 402.193 217 402.709C217.861 403.139 218.723 403.484 219.584 403.656C220.532 403.914 221.48 404 222.427 404H426.869C426.869 404 426.955 404 427.127 404C428.42 404 435.312 403.656 441.429 396.168C450.82 384.893 458.66 357.093 442.463 289.1ZM439.964 394.791C433.934 402.193 427.3 401.934 426.955 401.934H222.427C219.067 401.934 215.966 400.299 214.157 397.545C212.52 395.135 212.003 392.209 212.778 389.455C212.864 389.024 213.037 388.68 213.123 388.25C216.138 380.418 218.378 372.327 219.843 364.065C224.667 337.556 225.615 296.76 214.157 234.62C194.858 129.703 211.917 92.092 220.101 80.8172C221.997 78.2352 225.012 76.686 228.2 76.686H435.829C441.343 76.686 445.823 81.1615 445.823 86.6698C445.823 87.6165 445.65 88.5633 445.392 89.424C436.691 119.548 418.771 199.246 440.223 289.444C456.42 356.663 449.01 383.774 439.964 394.791Z" fill="#3F3D56"/>
<path d="M343.817 172.479H236.815C232.249 172.479 228.63 168.778 228.63 164.302C228.63 159.827 232.335 156.126 236.815 156.126H343.817C348.383 156.126 352.002 159.827 352.002 164.302C352.002 168.778 348.297 172.479 343.817 172.479Z" fill="#CCCCCC"/>
<path d="M343.817 207.766H236.815C232.249 207.766 228.63 204.066 228.63 199.59C228.63 195.115 232.335 191.414 236.815 191.414H343.817C348.383 191.414 352.002 195.115 352.002 199.59C352.002 204.066 348.297 207.766 343.817 207.766Z" fill="#CCCCCC"/>
<path d="M352.433 243.915H245.43C240.864 243.915 237.246 240.214 237.246 235.738C237.246 231.263 240.95 227.562 245.43 227.562H352.433C356.999 227.562 360.617 231.263 360.617 235.738C360.617 240.214 356.913 243.915 352.433 243.915Z" fill="#CCCCCC"/>
<path d="M358.463 281.784H251.461C246.895 281.784 243.276 278.083 243.276 273.608C243.276 269.132 246.981 265.432 251.461 265.432H358.463C363.029 265.432 366.648 269.132 366.648 273.608C366.648 278.083 362.943 281.784 358.463 281.784Z" fill="#CCCCCC"/>
<path d="M358.463 108.875H281.615C277.048 108.875 273.43 105.174 273.43 100.699C273.43 96.2232 277.135 92.5223 281.615 92.5223H358.463C363.029 92.5223 366.648 96.2232 366.648 100.699C366.648 105.174 363.029 108.875 358.463 108.875Z" fill="#0057CF"/>
<path d="M400.851 284.797C407.036 284.797 412.051 279.787 412.051 273.608C412.051 267.429 407.036 262.419 400.851 262.419C394.665 262.419 389.651 267.429 389.651 273.608C389.651 279.787 394.665 284.797 400.851 284.797Z" fill="#CCCCCC"/>
<path d="M363.633 318.793H256.63C252.064 318.793 248.446 315.092 248.446 310.617C248.446 306.141 252.15 302.441 256.63 302.441H363.633C368.199 302.441 371.817 306.141 371.817 310.617C371.817 315.092 368.112 318.793 363.633 318.793Z" fill="#CCCCCC"/>
<path d="M406.02 321.806C412.206 321.806 417.22 316.796 417.22 310.617C417.22 304.438 412.206 299.428 406.02 299.428C399.834 299.428 394.82 304.438 394.82 310.617C394.82 316.796 399.834 321.806 406.02 321.806Z" fill="#CCCCCC"/>
</g>
<defs>
<clipPath id="clip0_30_57">
<rect width="544" height="404" fill="white"/>
</clipPath>
</defs>
</svg>
