<svg width="426" height="493" viewBox="0 0 426 493" fill="none" xmlns="http://www.w3.org/2000/svg">
<g clip-path="url(#clip0_39_214)">
<path d="M426 188.173C426 189.588 426 191.003 425.929 192.347C425.929 193.267 425.859 194.186 425.859 195.106C425.859 195.389 425.859 195.601 425.859 195.884C425.859 196.379 425.788 196.875 425.788 197.37C425.646 200.624 425.363 203.878 425.08 207.062C425.08 207.203 425.08 207.344 425.01 207.486C425.01 207.84 424.939 208.123 424.868 208.476C424.797 209.467 424.656 210.386 424.514 211.306C424.443 211.943 424.373 212.579 424.302 213.216C424.231 213.499 424.231 213.853 424.16 214.136C424.09 214.489 424.09 214.772 424.019 215.126C424.019 215.268 423.948 215.409 423.948 215.551C423.877 216.046 423.807 216.541 423.736 216.965C423.665 217.602 423.524 218.239 423.453 218.875C423.382 219.512 423.241 220.149 423.099 220.715C422.958 221.351 422.887 221.988 422.745 222.554C422.604 223.191 422.533 223.827 422.392 224.393C421.755 227.506 421.118 230.548 420.34 233.59C420.057 234.792 419.774 235.924 419.42 237.127C418.925 239.037 418.359 240.947 417.793 242.857C417.651 243.352 417.439 243.918 417.297 244.413C417.085 244.979 416.944 245.616 416.731 246.182C416.519 246.748 416.378 247.384 416.165 247.95C415.953 248.516 415.741 249.153 415.599 249.719C415.387 250.285 415.175 250.851 414.963 251.487C414.75 252.053 414.538 252.619 414.326 253.256C414.114 253.822 413.901 254.388 413.689 255.024C413.265 256.156 412.769 257.359 412.345 258.491C412.133 259.057 411.85 259.623 411.637 260.189C410.717 262.452 409.727 264.716 408.666 266.909C408.453 267.404 408.241 267.899 407.958 268.395C407.817 268.748 407.675 269.031 407.463 269.385C407.18 269.951 406.968 270.446 406.685 271.012C406.402 271.578 406.119 272.073 405.906 272.639C405.34 273.7 404.774 274.761 404.279 275.823C403.713 276.884 403.147 277.945 402.581 279.006C402.015 280.067 401.378 281.128 400.812 282.189C400.529 282.685 400.175 283.25 399.892 283.746C398.69 285.797 397.416 287.849 396.072 289.9C394.798 291.952 393.454 293.932 392.039 295.843C391.331 296.833 390.624 297.823 389.916 298.814C389.633 299.167 389.35 299.592 389.067 299.946C388.714 300.441 388.36 300.865 388.006 301.36C325.744 384.411 207.87 401.106 124.807 338.641C122.189 336.661 119.642 334.68 117.166 332.628C115.114 330.93 113.062 329.162 111.081 327.323C98.275 315.721 87.1669 302.351 78.0399 287.707C76.9078 285.868 75.7758 284.029 74.7145 282.119C58.2292 253.61 49.5267 221.139 49.5974 188.173C49.5974 84.2537 133.863 0.000116879 237.799 0.000116879C301.334 -0.070625 360.625 31.9754 395.364 85.1733C395.647 85.6685 396.001 86.1637 396.284 86.5881C413.265 113.046 423.311 143.394 425.505 174.732C425.859 179.189 426 183.646 426 188.173Z" fill="#F2F2F2"/>
<path d="M396.284 86.6587H135.632C135.208 86.6587 134.925 86.305 134.925 85.9513C134.925 85.5976 135.208 85.2439 135.632 85.2439H395.364C395.647 85.6683 396.001 86.1635 396.284 86.6587Z" fill="#CACACA"/>
<path d="M151.41 76.6135C155.669 76.6135 159.122 73.0662 159.122 68.6904C159.122 64.3146 155.669 60.7673 151.41 60.7673C147.151 60.7673 143.698 64.3146 143.698 68.6904C143.698 73.0662 147.151 76.6135 151.41 76.6135Z" fill="#3F3D56"/>
<path d="M178.154 76.6135C182.414 76.6135 185.866 73.0662 185.866 68.6904C185.866 64.3146 182.414 60.7673 178.154 60.7673C173.895 60.7673 170.442 64.3146 170.442 68.6904C170.442 73.0662 173.895 76.6135 178.154 76.6135Z" fill="#3F3D56"/>
<path d="M204.828 76.6135C209.087 76.6135 212.54 73.0662 212.54 68.6904C212.54 64.3146 209.087 60.7673 204.828 60.7673C200.569 60.7673 197.116 64.3146 197.116 68.6904C197.116 73.0662 200.569 76.6135 204.828 76.6135Z" fill="#3F3D56"/>
<path d="M425.505 174.803C418.713 177.916 412.628 182.868 407.321 189.73C401.166 197.653 394.586 203.241 387.865 207.062C387.511 207.274 387.228 207.415 386.945 207.557C380.931 210.811 374.28 212.862 367.488 213.499C365.436 213.711 363.384 213.782 361.262 213.782C360.413 213.782 359.564 213.782 358.644 213.711C356.592 213.641 354.611 213.428 352.63 213.145C341.309 211.518 331.05 207.203 323.48 203.1C313.079 197.37 301.759 193.408 290.085 191.428C287.962 191.074 285.91 190.791 283.788 190.649C282.939 190.579 282.09 190.508 281.241 190.437C279.118 190.296 277.066 190.225 274.944 190.225C273.882 190.225 272.821 190.225 271.76 190.296C253.718 191.003 230.157 196.167 209.003 214.136C208.719 214.348 208.436 214.631 208.153 214.843C207.87 215.055 207.658 215.268 207.375 215.551C204.05 218.522 200.866 221.705 197.965 225.101C194.569 228.991 191.456 233.024 188.626 237.339C185.23 242.362 181.268 246.889 176.881 250.992C163.579 263.231 156.009 280.421 155.797 298.46V298.814C155.797 299.167 155.797 299.592 155.797 299.946H389.35C389.633 299.592 389.916 299.167 390.199 298.814C390.907 297.823 391.614 296.833 392.322 295.843C393.737 293.862 395.01 291.881 396.355 289.829C397.628 287.778 398.902 285.726 400.175 283.675C400.458 283.18 400.812 282.614 401.095 282.119C401.661 281.057 402.298 279.996 402.864 278.935C403.43 277.874 403.996 276.813 404.562 275.752C405.128 274.691 405.694 273.63 406.189 272.568C406.472 272.003 406.755 271.507 406.968 270.941C407.251 270.375 407.463 269.88 407.746 269.314C407.887 268.961 408.029 268.678 408.241 268.324C408.453 267.829 408.736 267.334 408.949 266.838C410.01 264.645 411.001 262.382 411.92 260.118C412.133 259.552 412.416 258.986 412.628 258.42C413.052 257.288 413.548 256.156 413.972 254.954C414.184 254.388 414.397 253.822 414.609 253.185C414.821 252.619 415.033 252.053 415.246 251.417C415.458 250.851 415.67 250.285 415.882 249.648C416.095 249.082 416.307 248.445 416.448 247.88C416.661 247.314 416.802 246.677 417.014 246.111C417.227 245.545 417.368 244.908 417.581 244.342C417.722 243.847 417.934 243.281 418.076 242.786C418.642 240.876 419.208 238.966 419.703 237.056C419.986 235.853 420.34 234.722 420.623 233.519C421.401 230.477 422.038 227.435 422.675 224.323C422.816 223.686 422.887 223.049 423.028 222.483C423.17 221.847 423.241 221.21 423.382 220.644C423.524 220.007 423.594 219.371 423.736 218.805C423.877 218.168 423.948 217.531 424.019 216.895C424.09 216.399 424.16 215.904 424.231 215.48C424.231 215.338 424.302 215.197 424.302 215.055C424.373 214.702 424.373 214.419 424.443 214.065C424.514 213.782 424.514 213.428 424.585 213.145C424.656 212.509 424.727 211.872 424.797 211.235C424.939 210.316 425.009 209.325 425.151 208.406C425.151 208.052 425.222 207.769 425.222 207.415C425.222 207.274 425.222 207.132 425.292 206.991C425.646 203.807 425.858 200.553 426 197.299C426 196.804 426.071 196.309 426.071 195.814C426.071 195.531 426.071 195.318 426.071 195.035C426.071 194.116 426.142 193.196 426.142 192.276C426.212 190.862 426.212 189.518 426.212 188.103C426 183.646 425.859 179.189 425.505 174.803Z" fill="#0057CF"/>
<path d="M206.455 222.271H203.908V297.894H206.455V222.271Z" fill="#3F3D56"/>
<path d="M283.788 186.9H281.241V297.894H283.788V186.9Z" fill="#3F3D56"/>
<path d="M361.191 210.103H358.644V297.823H361.191V210.103Z" fill="#3F3D56"/>
<path d="M282.656 196.592C287.032 196.592 290.58 193.044 290.58 188.668C290.58 184.293 287.032 180.745 282.656 180.745C278.279 180.745 274.731 184.293 274.731 188.668C274.731 193.044 278.279 196.592 282.656 196.592Z" fill="#3F3D56"/>
<path d="M360.13 218.521C364.506 218.521 368.054 214.974 368.054 210.598C368.054 206.223 364.506 202.675 360.13 202.675C355.753 202.675 352.205 206.223 352.205 210.598C352.205 214.974 355.753 218.521 360.13 218.521Z" fill="#3F3D56"/>
<path d="M203.838 223.827C208.214 223.827 211.762 220.28 211.762 215.904C211.762 211.528 208.214 207.981 203.838 207.981C199.461 207.981 195.913 211.528 195.913 215.904C195.913 220.28 199.461 223.827 203.838 223.827Z" fill="#3F3D56"/>
<path d="M390.058 298.814C389.775 299.167 389.492 299.592 389.209 299.946C388.855 300.441 388.501 300.865 388.147 301.36H155.372V298.743H390.058V298.814Z" fill="#3F3D56"/>
<path d="M89.9263 484.652H97.426L100.964 455.79L89.9263 455.861V484.652Z" fill="#FFB8B8"/>
<path d="M109.383 485.006C108.534 484.157 107.473 483.45 106.341 482.955C105.209 482.459 104.006 482.247 102.732 482.247L98.3458 478.922L98.1335 478.993L90.1385 482.247H88.0159V491.939H112.143V491.656C112.143 489.109 111.152 486.704 109.383 485.006Z" fill="#2F2E41"/>
<path d="M124.666 484.652H132.165L135.703 455.79L124.666 455.861V484.652Z" fill="#FFB8B8"/>
<path d="M144.123 485.006C143.274 484.157 142.212 483.45 141.08 482.955C139.948 482.459 138.745 482.247 137.472 482.247L133.085 478.922L132.873 478.993L124.878 482.247H122.755V491.939H146.882V491.656C146.882 489.109 145.891 486.704 144.123 485.006Z" fill="#2F2E41"/>
<path d="M130.68 326.827L71.8844 328.384L72.8749 356.963C72.8749 356.963 71.8844 364.604 73.8655 366.655C75.8465 368.707 76.9078 368.707 75.9173 372.244C74.9268 375.781 80.3039 381.652 79.6672 382.289C79.0304 382.926 77.4738 386.534 77.4738 386.534L82.568 415.679C82.568 415.679 86.1764 466.26 87.1669 467.25C88.1575 468.24 89.2187 467.25 88.1575 469.797C87.0962 472.343 86.1056 471.353 87.1669 472.343C88.0867 473.334 88.9357 474.324 89.714 475.385H102.096C102.096 475.385 103.015 470.292 103.015 469.797C103.015 469.301 104.006 466.189 104.006 465.694C104.006 465.198 103.086 464.279 103.086 464.279C102.803 463.218 102.591 462.157 102.449 461.095C102.449 460.105 99.4071 420.702 99.4071 420.702L105.563 369.626L120.35 419.711C120.35 419.711 120.35 463.642 121.34 464.703C122.331 465.764 122.331 465.198 121.836 467.25C121.34 469.301 119.288 468.806 120.845 470.292C122.402 471.777 122.897 469.301 122.402 471.848L121.906 474.395L137.26 474.607C137.26 474.607 139.311 470.292 138.25 468.736C137.189 467.179 137.26 467.604 138.533 465.128C139.807 462.652 140.302 462.086 139.807 461.591C139.311 461.095 139.311 458.337 139.311 458.337L136.764 409.454C136.764 409.454 136.269 357.883 136.269 356.327C136.198 355.549 136.411 354.77 136.694 354.063V352.011L134.713 344.654L130.68 326.827Z" fill="#2F2E41"/>
<path d="M197.187 215.409C196.126 218.38 192.871 219.936 189.899 218.875C189.616 218.734 189.263 218.592 188.98 218.451L163.438 239.744L162.023 229.274L186.998 210.174C188.767 207.557 192.305 206.849 194.923 208.618C197.187 210.103 198.107 212.862 197.187 215.409Z" fill="#FFB8B8"/>
<path d="M84.6906 224.181C93.4435 224.181 100.539 217.086 100.539 208.335C100.539 199.583 93.4435 192.489 84.6906 192.489C75.9377 192.489 68.8421 199.583 68.8421 208.335C68.8421 217.086 75.9377 224.181 84.6906 224.181Z" fill="#FFB8B8"/>
<path d="M97.4968 192.63C96.011 189.093 89.714 187.042 79.6672 187.325C69.6203 187.607 67.9223 199.563 67.9223 199.563C62.4036 204.727 71.3184 220.715 72.8749 218.522C74.4315 216.329 76.9786 218.38 76.9786 218.38L74.5022 204.515C77.1201 205.505 79.8794 206.213 82.3558 205.01L78.3229 202.817L88.4405 204.09L84.2661 200.907C84.3368 200.907 84.4783 200.836 84.5491 200.836C86.2471 201.544 88.0159 201.968 89.8555 202.039C91.9781 202.039 94.2422 201.048 95.1619 199.068C95.3742 198.572 95.5157 197.936 95.5157 197.37C98.4165 198.289 99.9731 201.756 99.9731 201.756C99.4778 198.643 98.6288 195.531 97.4968 192.63Z" fill="#2F2E41"/>
<path d="M97.3553 224.888C93.8176 224.888 91.5536 225.384 86.0349 226.303C75.8465 228.001 81.9312 237.693 81.9312 237.693C81.9312 237.693 82.3558 237.48 81.153 237.693C79.9502 237.905 75.6343 241.583 75.6343 241.583L68.1345 248.304C56.6727 257.288 59.2905 271.295 59.2905 271.295L75.988 288.061L68.6298 321.805C68.6298 321.805 71.7429 326.827 70.1156 329.02C68.4883 331.213 84.2661 330.647 84.2661 330.647C95.1619 335.458 133.439 331.426 133.439 331.426C132.873 330.011 127.779 319.258 127.779 319.258C129.972 315.438 127.85 309.849 127.85 309.849C127.85 309.849 125.656 283.533 124.241 279.926C122.826 276.318 127.85 256.581 131.175 256.793C134.5 257.005 155.867 246.111 155.867 246.111C155.867 246.111 155.301 245.262 162.377 242.362C166.41 240.735 170.159 238.4 173.343 235.429L176.244 229.628C174.829 230.194 170.159 221.281 170.159 221.281L168.108 222.059L166.905 221.705C166.905 221.705 157.636 224.322 155.726 226.303C153.816 228.284 153.179 227.718 151.481 228.142C149.783 228.567 149.571 229.77 149.005 229.628C148.438 229.487 147.519 231.114 146.74 230.901C145.962 230.689 144.406 231.538 143.344 231.75C142.283 231.963 134.713 235.146 134.713 235.146C130.043 232.741 117.307 233.731 117.307 233.731C117.307 233.731 113.133 231.255 111.93 233.731C111.293 235.146 109.878 236.066 108.322 236.066L103.228 233.873C102.945 235.004 97.426 223.756 97.3553 224.888Z" fill="#3F3D56"/>
<path d="M40.5411 453.455L39.8336 437.609C32.4753 433.648 24.2681 431.596 15.9193 431.525C27.3812 440.934 25.9661 459.044 33.7489 471.636C38.7015 479.559 47.0503 484.794 56.3896 485.855L66.012 491.727C68.7006 476.871 64.6677 461.52 55.1161 449.848C52.4275 446.664 49.3144 443.764 45.9183 441.359C43.6542 447.442 40.5411 453.455 40.5411 453.455Z" fill="#F2F2F2"/>
<path d="M0 492.151C0 492.646 0.353762 493 0.849028 493H201.29C201.786 493 202.14 492.646 202.14 492.151C202.14 491.656 201.786 491.302 201.29 491.302H0.849028C0.353762 491.302 0 491.727 0 492.151Z" fill="#CCCCCC"/>
<path d="M209.073 214.135H204.828V215.55H209.073V214.135Z" fill="#3F3D56"/>
<path d="M217.634 214.135V215.55H226.195V214.135H217.634ZM234.756 214.135V215.55H243.388V214.135H234.756ZM251.949 214.135V215.55H260.51V214.135H251.949ZM269.071 214.135V215.55H277.632V214.135H269.071ZM286.193 214.135V215.55H294.754V214.135H286.193ZM303.386 214.135V215.55H311.947V214.135H303.386ZM320.508 214.135V215.55H329.069V214.135H320.508ZM337.63 214.135V215.55H346.191V214.135H337.63ZM354.823 214.135V215.55H363.384V214.135H354.823ZM371.945 214.135V215.55H380.506V214.135H371.945ZM389.067 214.135V215.55H397.628V214.135H389.067ZM406.26 214.135V215.55H414.821V214.135H406.26ZM423.382 214.135V215.55H424.019C424.019 215.409 424.09 215.267 424.09 215.126C424.161 214.772 424.16 214.489 424.231 214.135H423.382Z" fill="#3F3D56"/>
<path d="M282.656 185.839H278.411V187.254H282.656V185.839Z" fill="#3F3D56"/>
<path d="M291.217 185.839V187.254H299.778V185.839H291.217ZM308.339 185.839V187.254H316.971V185.839H308.339ZM325.532 185.839V187.254H334.093V185.839H325.532ZM342.654 185.839V187.254H351.215V185.839H342.654ZM359.776 185.839V187.254H368.337V185.839H359.776ZM376.969 185.839V187.254H385.53V185.839H376.969ZM394.091 185.839V187.254H402.652V185.839H394.091ZM411.213 185.839V187.254H419.774V185.839H411.213Z" fill="#3F3D56"/>
<path d="M361.191 207.062H356.946V208.476H361.191V207.062Z" fill="#3F3D56"/>
<path d="M369.752 207.062V208.476H378.313V207.062H369.752ZM386.874 207.062V208.476H395.506V207.062H386.874ZM404.067 207.062V208.476H412.628V207.062H404.067ZM421.189 207.062V208.476H424.939C424.939 208.123 425.009 207.84 425.009 207.486C425.009 207.344 425.009 207.203 425.08 207.062H421.189Z" fill="#3F3D56"/>
<path d="M108.322 354.629V309.071C108.322 307.161 109.878 305.605 111.789 305.605H146.174C148.085 305.605 149.641 307.161 149.641 309.071V354.629C149.641 356.539 148.085 358.095 146.174 358.095H111.789C109.878 358.095 108.322 356.539 108.322 354.629Z" fill="#E6E6E6"/>
<path d="M110.94 340.905V311.618C110.94 309.849 112.426 308.364 114.194 308.364H143.769C145.538 308.364 147.023 309.849 147.023 311.618V352.153C147.023 353.922 145.538 355.407 143.769 355.407H125.444C117.449 355.407 111.01 348.899 110.94 340.905Z" fill="white"/>
<path d="M115.751 319.753C115.751 317.985 117.166 316.57 118.935 316.57H139.453C141.222 316.57 142.637 317.985 142.637 319.753C142.637 321.522 141.222 322.937 139.453 322.937H118.935C117.166 322.937 115.751 321.522 115.751 319.753Z" fill="#E6E6E6"/>
<path d="M115.751 329.657C115.751 327.888 117.166 326.474 118.935 326.474H139.453C141.222 326.474 142.637 327.888 142.637 329.657C142.637 331.426 141.222 332.84 139.453 332.84H118.935C117.166 332.84 115.751 331.426 115.751 329.657Z" fill="#E6E6E6"/>
<path d="M115.751 339.561C115.751 337.792 117.166 336.377 118.935 336.377H139.453C141.222 336.377 142.637 337.792 142.637 339.561C142.637 341.329 141.222 342.744 139.453 342.744H118.935C117.166 342.744 115.751 341.329 115.751 339.561Z" fill="#E6E6E6"/>
<path d="M109.171 338.712C106.27 338.783 103.864 336.448 103.794 333.548C103.794 333.265 103.794 332.911 103.864 332.628L74.5022 316.57L83.134 311.901L110.374 328.242C113.275 328.879 115.043 331.779 114.407 334.609C113.699 336.943 111.576 338.712 109.171 338.712Z" fill="#FFB8B8"/>
<path d="M92.0488 326.827L81.6482 324.988L77.8984 321.875L75.422 320.602L66.7902 314.518V314.448L53.0643 273.842C51.72 266.909 56.1066 260.188 62.8989 258.491C70.0448 256.722 77.2616 261.037 79.0304 268.182C79.1719 268.678 79.2427 269.173 79.3134 269.739L83.7708 304.544L91.1291 312.113L94.3129 312.75L95.0204 316.216L97.8505 320.531L92.0488 326.827Z" fill="#3F3D56"/>
</g>
<defs>
<clipPath id="clip0_39_214">
<rect width="426" height="493" fill="white"/>
</clipPath>
</defs>
</svg>
