<svg width="568" height="377" viewBox="0 0 568 377" fill="none" xmlns="http://www.w3.org/2000/svg">
<g clip-path="url(#clip0_38_166)">
<path d="M453.591 317.935H258.318C248.654 317.935 240.909 310.124 240.841 300.463V17.4727C240.841 7.81134 248.654 0.0685205 258.318 0H453.522C463.186 0 470.931 7.81134 471 17.4727V300.531C471 310.124 463.186 317.935 453.591 317.935Z" fill="#E6E6E6"/>
<path d="M453.933 306.835H257.976C255.028 306.835 252.63 304.437 252.63 301.49V16.5135C252.63 13.5672 255.028 11.1689 257.976 11.1689H453.865C456.812 11.1689 459.211 13.5672 459.211 16.5135V301.422C459.28 304.368 456.881 306.767 453.933 306.835Z" fill="white"/>
<path d="M355.235 6.85206C356.068 6.85206 356.743 6.17715 356.743 5.34461C356.743 4.51207 356.068 3.83716 355.235 3.83716C354.402 3.83716 353.727 4.51207 353.727 5.34461C353.727 6.17715 354.402 6.85206 355.235 6.85206Z" fill="white"/>
<path d="M434.948 198.709H276.961C276.687 198.709 276.482 198.504 276.482 198.23V122.583C276.482 122.309 276.687 122.104 276.961 122.104C277.236 122.104 277.441 122.309 277.441 122.583V197.75H434.879C435.153 197.75 435.359 197.956 435.359 198.23C435.427 198.504 435.222 198.709 434.948 198.709Z" fill="#3F3D56"/>
<path d="M310.752 193.297H296.358C295.536 193.297 294.919 192.611 294.919 191.858V172.055C294.919 171.233 295.605 170.616 296.358 170.616H310.752C311.575 170.616 312.191 171.301 312.191 172.055V191.858C312.191 192.68 311.575 193.297 310.752 193.297Z" fill="#0057CF"/>
<path d="M336.935 193.296H322.541C321.719 193.296 321.102 192.611 321.102 191.858V153.28C321.102 152.458 321.787 151.842 322.541 151.842H336.935C337.757 151.842 338.374 152.527 338.374 153.28V191.858C338.374 192.68 337.757 193.296 336.935 193.296Z" fill="#0057CF"/>
<path d="M363.117 193.297H348.724C347.901 193.297 347.284 192.611 347.284 191.858V172.055C347.284 171.233 347.97 170.616 348.724 170.616H363.117C363.94 170.616 364.556 171.301 364.556 172.055V191.858C364.625 192.68 363.94 193.297 363.117 193.297Z" fill="#0057CF"/>
<path d="M389.3 193.296H374.906C374.084 193.296 373.467 192.68 373.467 191.926V145.812C373.467 144.989 374.152 144.373 374.906 144.441H389.3C390.122 144.441 390.739 145.058 390.739 145.812V191.926C390.739 192.68 390.122 193.296 389.3 193.296Z" fill="#0057CF"/>
<path d="M415.551 193.296H401.157C400.335 193.296 399.718 192.611 399.718 191.858V132.519C399.718 131.697 400.403 131.08 401.157 131.08H415.551C416.373 131.08 416.99 131.765 416.99 132.519V191.858C416.99 192.68 416.305 193.296 415.551 193.296Z" fill="#0057CF"/>
<path d="M303.555 164.655C305.183 164.655 306.503 163.336 306.503 161.709C306.503 160.081 305.183 158.762 303.555 158.762C301.928 158.762 300.608 160.081 300.608 161.709C300.608 163.336 301.928 164.655 303.555 164.655Z" fill="#3F3D56"/>
<path d="M329.738 145.332C331.366 145.332 332.685 144.013 332.685 142.386C332.685 140.758 331.366 139.439 329.738 139.439C328.11 139.439 326.791 140.758 326.791 142.386C326.791 144.013 328.11 145.332 329.738 145.332Z" fill="#3F3D56"/>
<path d="M355.92 164.655C357.548 164.655 358.868 163.336 358.868 161.709C358.868 160.081 357.548 158.762 355.92 158.762C354.293 158.762 352.973 160.081 352.973 161.709C352.973 163.336 354.293 164.655 355.92 164.655Z" fill="#3F3D56"/>
<path d="M382.171 135.945C383.799 135.945 385.119 134.626 385.119 132.998C385.119 131.371 383.799 130.052 382.171 130.052C380.544 130.052 379.224 131.371 379.224 132.998C379.224 134.626 380.544 135.945 382.171 135.945Z" fill="#3F3D56"/>
<path d="M408.354 125.119C409.982 125.119 411.301 123.799 411.301 122.172C411.301 120.545 409.982 119.226 408.354 119.226C406.726 119.226 405.407 120.545 405.407 122.172C405.407 123.799 406.726 125.119 408.354 125.119Z" fill="#3F3D56"/>
<path d="M355.989 162.325L329.738 142.66L303.829 162.051L303.281 161.297L329.738 141.426L355.852 161.023L381.829 132.587H381.966L408.148 122.035L408.491 122.926L382.446 133.41L355.989 162.325Z" fill="#3F3D56"/>
<path d="M125.213 153.829C123.156 153.829 121.237 154.719 119.935 156.295L89.2287 155.336L87.995 150.128L72.0936 157.871L74.1498 172.055L120.963 166.094C123.979 168.423 128.228 167.875 130.559 164.86C132.889 161.845 132.341 157.597 129.325 155.267C128.228 154.308 126.789 153.829 125.213 153.829Z" fill="#9F616A"/>
<path d="M68.3239 368.024H76.7543L80.7297 335.614H68.3239V368.024Z" fill="#9F616A"/>
<path d="M66.1991 365.283H82.7174C88.5433 365.283 93.2726 370.011 93.2726 375.835V376.178H66.1991V365.283Z" fill="#2F2E41"/>
<path d="M36.6581 361.309L44.6773 363.638L57.563 333.626L45.6369 330.2L36.6581 361.309Z" fill="#9F616A"/>
<path d="M35.3558 358.088L51.2572 362.679C56.8776 364.324 60.099 370.148 58.454 375.767L58.3855 376.109L32.34 368.572L35.3558 358.088Z" fill="#2F2E41"/>
<path d="M58.0427 227.283C58.0427 227.283 55.027 235.642 59.7563 247.017L63.3889 293.885L64.4856 360.487H79.8387L89.0916 292.583L94.6434 230.983L58.0427 227.283Z" fill="#2F2E41"/>
<path d="M49.4066 227.283C49.4066 227.283 46.3909 235.642 51.1202 247.017L54.7528 293.885L36.6581 357.335H52.0112L80.4555 292.583L86.0073 230.983L49.4066 227.283Z" fill="#2F2E41"/>
<path d="M94.3693 119.911C103.681 119.911 111.23 112.364 111.23 103.055C111.23 93.7454 103.681 86.1987 94.3693 86.1987C85.0572 86.1987 77.5083 93.7454 77.5083 103.055C77.5083 112.364 85.0572 119.911 94.3693 119.911Z" fill="#9F616A"/>
<path d="M96.6311 143.962L93.2041 128.133L75.8633 118.266L72.3677 123.2C72.3677 123.2 47.4875 129.709 50.5033 158.282C53.5191 186.855 52.1483 200.491 52.1483 200.491L45.2942 232.01C45.2942 232.01 47.4189 232.353 95.8086 240.85L97.8648 172.329L96.6311 143.962Z" fill="#CBCBCB"/>
<path opacity="0.1" d="M79.7701 298.201L64.0058 330.063V339.177L79.7701 298.201Z" fill="black"/>
<path d="M76.206 108.331C77.7825 112.648 83.8826 113.196 86.0073 109.153C86.1444 108.811 86.2815 108.536 86.4186 108.194C87.0354 106.275 86.6242 104.083 87.7208 102.233C87.995 101.753 88.3377 101.342 88.8175 101.068C92.4501 98.9436 95.9457 105.659 99.3042 103.809C101.36 102.644 100.949 99.2862 102.731 97.7787C105.13 95.7916 108.626 98.738 111.71 98.3954C115.137 98.0528 116.782 93.6675 116.028 90.31C115.137 86.1988 111.916 82.8412 108.077 80.9912C104.239 79.1411 99.9896 78.5245 95.7401 78.4559C90.9423 78.3189 85.9388 78.8671 81.8949 81.4023C76.96 84.4857 74.2183 90.31 73.6015 96.1342C73.2588 99.6973 74.9038 104.836 76.206 108.331Z" fill="#2F2E41"/>
<path d="M158.66 223.857H158.729C186.282 222.418 207.461 198.915 206.022 171.37C204.72 146.291 184.911 126.078 159.894 124.159C159.551 124.159 159.277 124.228 159.003 124.433C158.797 124.639 158.66 124.913 158.66 125.256L157.564 222.692C157.564 223.377 158.044 223.857 158.66 223.857Z" fill="#3F3D56"/>
<path d="M119.524 140.33C119.935 140.33 120.278 140.467 120.552 140.741L154.068 175.001C154.342 175.276 154.479 175.687 154.479 176.029L153.931 222.623C153.931 223.034 153.725 223.445 153.451 223.651C153.177 223.925 152.766 224.062 152.355 224.062C124.664 222.007 103.896 197.887 105.953 170.205C106.775 159.31 111.093 148.964 118.358 140.741C118.633 140.467 119.044 140.33 119.524 140.33C119.455 140.33 119.524 140.33 119.524 140.33Z" fill="#E6E6E6"/>
<path d="M153.588 123.817C153.931 123.817 154.342 123.954 154.616 124.228C154.891 124.502 155.096 124.913 155.096 125.324L154.616 167.396C154.616 168.218 153.931 168.835 153.109 168.835C152.697 168.835 152.355 168.698 152.08 168.424L122.814 138.412C122.265 137.863 122.265 136.904 122.814 136.356C122.814 136.356 122.882 136.356 122.882 136.287C131.381 128.819 142.211 124.365 153.52 123.817C153.588 123.817 153.588 123.817 153.588 123.817Z" fill="#0057CF"/>
<path d="M108.077 173.014C106.021 173.014 104.102 173.905 102.8 175.481L72.0936 174.522L70.8599 169.314L54.9584 177.057L57.0147 191.241L103.828 185.279C106.844 187.609 111.093 187.061 113.424 184.046C115.754 181.031 115.206 176.783 112.19 174.453C111.093 173.494 109.654 173.014 108.077 173.014Z" fill="#9F616A"/>
<path d="M52.4224 182.95L51.5999 140.741C51.4628 134.574 56.3977 129.435 62.5664 129.367C68.7351 129.23 73.8756 134.163 73.9441 140.33C73.9441 140.399 73.9441 140.467 73.9441 140.536V171.37L52.4224 182.95Z" fill="#CBCBCB"/>
<path d="M198.825 376.863H-62.3146C-62.7258 376.863 -63 376.589 -63 376.178C-63 375.767 -62.7258 375.493 -62.3146 375.493H198.825C199.236 375.493 199.511 375.767 199.511 376.178C199.511 376.589 199.236 376.863 198.825 376.863Z" fill="#CBCBCB"/>
<path d="M521.857 373.93L522.543 372.697C513.769 367.969 502.94 362.076 497.251 352.414C491.631 342.89 491.494 330.008 496.908 318.702C501.501 309.11 509.931 300.476 521.309 293.829C523.571 292.528 525.901 291.294 528.163 290.061C533.646 287.114 539.335 284.1 544.064 279.851C550.507 273.958 555.442 264.092 551.741 255.252C549.273 249.497 543.79 245.659 537.553 245.317L537.484 246.687C543.173 246.961 548.245 250.524 550.439 255.732C553.797 263.886 549.205 273.205 543.036 278.755C538.444 282.935 532.824 285.881 527.409 288.759C525.147 289.992 522.748 291.226 520.486 292.528C508.903 299.311 500.267 308.15 495.538 318.017C489.917 329.734 490.123 343.096 495.949 353.031C501.912 363.172 512.947 369.134 521.857 373.93Z" fill="#F1F1F1"/>
<path d="M528.917 252.648C522.292 252.648 516.922 250.041 516.922 246.824C516.922 243.608 522.292 241 528.917 241C535.541 241 540.911 243.608 540.911 246.824C540.911 250.041 535.541 252.648 528.917 252.648Z" fill="#F1F1F1"/>
<path d="M519.321 291.02C512.697 291.02 507.327 288.412 507.327 285.196C507.327 281.979 512.697 279.372 519.321 279.372C525.946 279.372 531.316 281.979 531.316 285.196C531.316 288.412 525.946 291.02 519.321 291.02Z" fill="#F1F1F1"/>
<path d="M541.254 297.187C534.63 297.187 529.259 294.579 529.259 291.363C529.259 288.146 534.63 285.538 541.254 285.538C547.879 285.538 553.249 288.146 553.249 291.363C553.249 294.579 547.879 297.187 541.254 297.187Z" fill="#F1F1F1"/>
<path d="M506.984 329.392C500.359 329.392 494.989 326.784 494.989 323.567C494.989 320.351 500.359 317.743 506.984 317.743C513.608 317.743 518.978 320.351 518.978 323.567C518.978 326.784 513.608 329.392 506.984 329.392Z" fill="#F1F1F1"/>
<path d="M482.995 329.392C476.37 329.392 471 326.784 471 323.567C471 320.351 476.37 317.743 482.995 317.743C489.619 317.743 494.989 320.351 494.989 323.567C494.989 326.784 489.619 329.392 482.995 329.392Z" fill="#F1F1F1"/>
</g>
<defs>
<clipPath id="clip0_38_166">
<rect width="568" height="377" fill="white"/>
</clipPath>
</defs>
</svg>
