<svg width="484" height="462" viewBox="0 0 484 462" fill="none" xmlns="http://www.w3.org/2000/svg">
<g clip-path="url(#clip0_16_2288)">
<path d="M471.351 332.905H94.6795C87.7041 332.905 82.0307 327.215 82.0307 320.219V12.6856C82.0307 5.68989 87.7041 0 94.6795 0H471.258C478.234 0 483.907 5.68989 483.907 12.6856V320.219C484 327.215 478.327 332.905 471.351 332.905Z" fill="#E6E6E6"/>
<path d="M434.707 324.417H103.236C96.2606 324.417 90.5872 318.727 90.5872 311.731V21.2671C90.5872 14.2714 96.2606 8.58148 103.236 8.58148H462.795C469.77 8.58148 475.443 14.2714 475.443 21.2671V283.561C475.443 306.134 457.214 324.323 434.707 324.417Z" fill="white"/>
<path d="M343.655 74.2484H192.242C190.475 74.2484 188.987 72.7559 188.987 70.9837C188.987 69.2114 190.475 67.719 192.242 67.719H343.655C345.422 67.719 346.91 69.2114 346.91 70.9837C346.91 72.7559 345.422 74.2484 343.655 74.2484Z" fill="#0057CF"/>
<path d="M420.291 109.134H192.242C190.475 109.134 188.987 107.641 188.987 105.869C188.987 104.097 190.475 102.604 192.242 102.604H420.198C421.965 102.604 423.453 104.097 423.453 105.869C423.453 107.641 422.058 109.134 420.291 109.134Z" fill="#E6E6E6"/>
<path d="M420.291 144.113H192.242C190.475 144.113 188.987 142.62 188.987 140.848C188.987 139.076 190.475 137.583 192.242 137.583H420.198C421.965 137.583 423.453 139.076 423.453 140.848C423.453 142.62 422.058 144.113 420.291 144.113Z" fill="#E6E6E6"/>
<path d="M420.291 178.998H192.242C190.475 178.998 188.987 177.506 188.987 175.733C188.987 173.961 190.475 172.469 192.242 172.469H420.198C421.965 172.469 423.453 173.961 423.453 175.733C423.453 177.506 422.058 178.998 420.291 178.998Z" fill="#E6E6E6"/>
<path d="M420.291 213.977H192.242C190.475 213.977 188.987 212.485 188.987 210.712C188.987 208.94 190.475 207.448 192.242 207.448H420.198C421.965 207.448 423.453 208.94 423.453 210.712C423.453 212.485 422.058 213.977 420.291 213.977Z" fill="#E6E6E6"/>
<path d="M409.968 269.663C400.853 269.663 393.413 262.201 393.413 253.06C393.413 243.919 400.853 236.457 409.968 236.457C419.082 236.457 426.523 243.919 426.523 253.06C426.523 262.201 419.175 269.663 409.968 269.663Z" fill="#0057CF"/>
<path d="M419.268 252.22L414.618 245.318C414.153 244.665 413.316 244.478 412.665 244.945C412.014 245.411 411.828 246.251 412.293 246.904L415.362 251.381H403.457C402.527 251.381 401.783 252.127 401.783 252.967C401.783 253.806 402.527 254.646 403.364 254.646H415.362L412.2 259.309C411.735 259.962 411.921 260.802 412.572 261.268C413.223 261.735 414.06 261.548 414.525 260.895L419.175 253.993C419.64 253.526 419.64 252.78 419.268 252.22Z" fill="white"/>
<path d="M120.814 286.826C123.325 284.681 123.604 280.95 121.558 278.525C121.372 278.245 121.093 277.965 120.814 277.778L117.187 246.717L105.84 249.329L112.164 278.804C110.211 281.416 110.769 285.147 113.467 287.106C115.699 288.692 118.675 288.598 120.814 286.826Z" fill="#FFB6B6"/>
<path d="M119.605 251.754L106.398 259.962C106.398 259.962 105.561 264.813 104.724 252.687C104.631 251.381 105.468 249.236 105.375 247.93C105.282 246.437 101.097 245.784 101.004 244.292C100.911 243.266 102.12 242.333 102.027 241.214C101.934 239.628 101.748 238.042 101.655 236.457C101.562 235.151 100.074 234.311 99.9808 233.099C99.8878 231.793 101.19 230.114 101.097 228.901C100.446 219.853 102.771 197.094 102.771 196.627C102.585 195.508 102.12 194.389 101.376 193.456L102.12 191.311L101.655 187.393C101.004 182.17 102.12 176.946 104.724 172.375L108.072 170.137L123.511 196.161C117.001 218.827 112.816 227.689 119.605 251.754Z" fill="#0057CF"/>
<path d="M109.374 445.956H117.28L121.093 415.082H109.374V445.956Z" fill="#FFB6B6"/>
<path d="M106.77 440.453L119.512 439.707V445.21L131.603 453.605C133.184 454.631 133.556 456.776 132.44 458.362C131.789 459.295 130.766 459.855 129.649 459.855H114.49L111.885 454.445L110.862 459.855H105.096L106.77 440.453Z" fill="#2F2E41"/>
<path d="M154.11 445.956H162.108L165.829 415.082H154.11V445.956Z" fill="#FFB6B6"/>
<path d="M151.506 440.453L164.248 439.707V445.21L176.338 453.605C177.919 454.631 178.291 456.776 177.175 458.362C176.524 459.295 175.501 459.855 174.385 459.855H159.225L156.621 454.445L155.598 459.855H149.925L151.506 440.453Z" fill="#2F2E41"/>
<path d="M105.933 419.373L107.514 345.964C105.468 342.046 105.561 337.382 107.7 333.558L107.886 333.185L107.328 330.573C106.584 327.215 106.956 323.671 108.258 320.406L109.653 273.674C104.538 240.468 128.905 218.827 128.905 218.827H165.364L173.176 245.784C178.384 296.34 177.454 368.91 169.177 416.667L169.363 416.761C170.2 417.227 170.572 418.346 170.107 419.279C169.735 420.399 168.805 421.051 167.968 420.772L148.716 420.119C147.879 419.652 147.507 418.533 147.972 417.6C148.344 416.481 149.274 415.828 150.111 416.108L151.413 416.761L150.018 413.962C148.344 410.604 148.716 406.594 150.855 403.515L150.576 397.452C148.53 395.027 147.879 391.763 148.809 388.778L150.111 384.487L148.623 345.124L148.902 336.263L148.251 326.282L145.274 281.23L134.114 336.636L122.674 419.932C123.232 420.399 123.511 421.238 123.325 421.984C123.046 423.01 122.209 423.663 121.186 423.663H105.654C104.445 423.663 103.515 422.73 103.515 421.518C103.515 421.331 103.515 421.145 103.608 420.958C104.166 419.932 105.003 419.373 105.933 419.373Z" fill="#2F2E41"/>
<path d="M194.567 274.793C196.613 272.275 196.241 268.544 193.73 266.492C193.451 266.305 193.172 266.119 192.893 265.932L183.5 236.084L172.804 240.841L184.616 268.544C183.221 271.529 184.523 275.073 187.499 276.472C189.917 277.592 192.893 276.939 194.567 274.793Z" fill="#FFB6B6"/>
<path d="M155.877 180.024C155.877 180.024 166.573 218.081 166.108 221.905C165.085 229.834 115.792 254.179 112.164 243.359L112.63 239.815C110.769 236.084 122.116 221.346 122.581 219.48C123.232 217.055 120.163 208.94 120.163 208.94C120.163 208.94 122.302 201.571 122.023 197.001C121.651 192.43 120.628 193.176 116.722 190.285C112.909 187.486 106.584 174.428 106.584 174.428C106.584 174.428 109.374 161.742 109.374 159.317C109.374 156.892 120.907 152.694 122.302 151.295C122.953 150.455 123.418 149.616 123.79 148.683C124.069 148.124 123.883 146.818 124.162 146.165C124.348 145.698 124.999 145.978 125.278 145.605C125.464 145.139 125.278 144.672 125.464 144.299C125.743 143.74 126.301 143.273 126.58 142.713C127.696 140.288 128.626 138.329 128.905 138.329C129.556 138.329 152.064 141.501 152.064 141.501C153.273 143.366 154.668 145.139 156.249 146.818C158.667 149.243 170.2 155.306 170.2 155.306L155.877 180.024Z" fill="#0057CF"/>
<path d="M186.197 244.012C184.43 245.784 175.78 253.806 175.408 251.754C175.036 249.609 174.85 249.422 173.455 248.676C172.06 247.93 172.06 247.65 171.688 245.131C171.316 242.706 168.154 240.188 168.526 239.162C168.898 238.136 168.526 239.442 168.526 238.415C168.526 237.389 167.503 233.472 166.108 232.819C164.713 232.073 162.573 231.42 163.689 229.647C164.713 227.875 153.831 175.081 153.831 175.081L163.689 155.772L170.386 155.026C170.386 155.026 172.432 156.145 173.083 166.686C173.083 167.245 173.734 168.178 173.734 168.738C173.734 169.204 173.269 169.297 173.269 169.857C173.269 169.95 173.269 170.044 173.269 170.23C173.269 170.79 174.664 171.163 174.664 171.629C174.664 172.469 175.222 178.159 175.315 178.998C175.408 179.931 175.501 180.864 175.594 181.703C176.524 191.124 176.896 191.964 177.547 194.948C178.477 199.612 182.291 226.849 182.291 226.849C182.291 226.849 185.081 227.502 185.081 230.021C185.081 232.539 188.15 237.483 186.755 240.281C185.174 242.986 187.964 242.24 186.197 244.012Z" fill="#0057CF"/>
<path d="M138.485 137.397C147.679 137.397 155.133 129.921 155.133 120.7C155.133 111.479 147.679 104.004 138.485 104.004C129.291 104.004 121.837 111.479 121.837 120.7C121.837 129.921 129.291 137.397 138.485 137.397Z" fill="#FFB8B8"/>
<path d="M102.585 155.772C99.0507 154.56 95.5165 153.254 91.9823 152.041C92.6334 151.015 93.3774 150.082 94.3075 149.336C97.6556 146.538 102.306 145.978 106.584 145.045C110.862 144.113 115.513 142.154 117.001 138.05C118.582 133.759 116.257 129.188 114.955 124.898C112.909 118.835 113.188 112.212 115.606 106.336C118.117 100.459 123.325 96.0751 129.556 94.4894C135.695 93.0902 142.67 95.3289 146.483 100.459C151.506 98.9667 156.9 101.485 159.039 106.336C159.969 108.574 159.876 111.093 158.667 113.238C157.365 115.197 154.575 116.223 152.436 115.104L153.645 111.932C149.832 113.238 147.414 120.141 147.879 124.058C148.344 128.069 150.669 131.52 153.087 134.785C155.505 138.05 157.923 141.314 158.946 145.232C160.434 150.829 158.388 156.985 154.761 161.462C151.134 165.939 146.018 169.018 140.624 171.256C136.625 172.935 132.533 174.241 128.254 175.081C128.998 173.588 129.743 172.096 130.487 170.697L121.558 176.107C119.791 176.293 118.117 176.386 116.35 176.386C111.234 176.48 106.119 175.92 101.376 173.868C96.7256 171.816 92.6334 168.085 90.9593 163.328C90.4012 161.742 90.1222 160.156 90.2152 158.477C94.4005 157.545 98.4927 156.705 102.585 155.772Z" fill="#2F2E41"/>
<path d="M263.391 461.067H232.513L232.42 460.787C232.048 460.041 231.676 459.295 231.304 458.549C228.142 451.74 226.747 443.904 225.631 437.002L224.701 431.778C224.422 430.006 225.538 428.42 227.305 428.047C228.142 427.861 229.072 428.14 229.723 428.607C234.374 432.058 239.117 435.416 243.767 438.867C245.534 440.173 247.58 441.666 249.533 443.251C249.719 442.319 249.905 441.386 250.091 440.546C250.463 438.774 252.138 437.748 253.905 438.121C254.742 438.308 255.486 438.867 255.951 439.52L259.578 445.303C262.182 449.594 264.507 453.698 264.042 458.269C264.042 458.362 264.042 458.362 264.042 458.455C263.949 459.202 263.763 459.948 263.484 460.601L263.391 461.067Z" fill="#F0F0F0"/>
<path d="M294.362 461.72L1.11606 462C0.465027 462 0 461.534 0 460.881C0 460.228 0.465027 459.761 1.11606 459.761L294.455 459.482C295.106 459.482 295.571 459.948 295.571 460.601C295.478 461.254 295.013 461.72 294.362 461.72Z" fill="#CACACA"/>
</g>
<defs>
<clipPath id="clip0_16_2288">
<rect width="484" height="462" fill="white"/>
</clipPath>
</defs>
</svg>
