<svg width="748" height="508" viewBox="0 0 748 508" fill="none" xmlns="http://www.w3.org/2000/svg">
<g clip-path="url(#clip0_23_2)">
<path d="M213 291C233.435 291 250 274.435 250 254C250 233.565 233.435 217 213 217C192.565 217 176 233.565 176 254C176 274.435 192.565 291 213 291Z" fill="#FFAA00"/>
<path d="M316.326 496.068C313.159 496.068 310.652 493.563 310.652 490.465V161.511C310.652 158.412 313.159 155.907 316.26 155.907H593.383C596.484 155.907 598.992 158.412 598.992 161.511V417.29C598.992 420.389 596.484 422.894 593.449 422.894L316.326 496.068Z" fill="#F2F2F2"/>
<path d="M521.199 109.432H392.535V34.939C392.535 31.6429 395.174 29.006 398.473 29.006H515.261C518.56 29.006 521.199 31.6429 521.199 34.939V109.432ZM393.855 108.113H519.88V34.939C519.88 32.368 517.834 30.3244 515.261 30.3244H398.473C395.9 30.3244 393.855 32.368 393.855 34.939V108.113Z" fill="#3F3D56"/>
<path d="M456.901 57.6649L456.901 84.209" stroke="#3F3D56" stroke-width="1.34703"/>
<path d="M480.028 70.0216C480.028 83.0457 469.469 93.604 456.444 93.604C443.418 93.604 432.859 83.0457 432.859 70.0216C432.859 56.9975 443.418 46.4393 456.444 46.4393C469.469 46.4393 480.028 56.9975 480.028 70.0216Z" stroke="#3F3D56" stroke-width="1.34703"/>
<path d="M469.717 70.4793L443.17 70.4793" stroke="#3F3D56" stroke-width="1.34703"/>
<path d="M440.042 30.3244H412.989V3.29613C412.989 1.4503 414.441 0 416.288 0H436.743C438.59 0 440.042 1.4503 440.042 3.29613V30.3244ZM414.309 29.006H438.722V3.29613C438.722 2.17545 437.864 1.31845 436.743 1.31845H416.288C415.167 1.31845 414.309 2.17545 414.309 3.29613V29.006Z" fill="#3F3D56"/>
<path d="M662.334 427.706C662.07 427.706 661.806 427.706 661.542 427.706C645.245 427.508 629.541 421.378 617.401 410.5C616.939 410.105 616.477 409.709 616.081 409.248L615.883 409.05V282.742L615.949 282.61C616.411 281.688 616.807 280.765 617.269 279.842C630.993 252.022 647.026 236.662 662.334 236.662C684.438 236.662 701.593 266.987 709.841 285.05C721.322 310.166 729.371 341.348 729.371 360.795C729.371 397.448 699.812 427.311 663.126 427.706C662.862 427.706 662.598 427.706 662.334 427.706ZM617.203 408.523C617.598 408.852 617.928 409.182 618.324 409.512C630.201 420.191 645.575 426.256 661.608 426.388C661.872 426.388 662.136 426.388 662.4 426.388C662.664 426.388 662.862 426.388 663.126 426.388C698.954 425.992 728.118 396.525 728.118 360.795C728.118 341.479 720.134 310.562 708.719 285.643C700.603 267.844 683.778 238.047 662.4 238.047C647.62 238.047 631.982 253.143 618.522 280.501C618.126 281.358 617.664 282.215 617.269 283.072V408.523H617.203Z" fill="#3F3D56"/>
<path d="M662.334 507.67C661.938 507.67 661.542 507.341 661.542 506.879V352.093C661.542 351.697 661.872 351.302 662.268 351.302C662.664 351.302 663.06 351.631 663.06 352.027V506.879C663.06 507.341 662.73 507.67 662.334 507.67Z" fill="#CCCCCC"/>
<path d="M268.424 507.67C268.028 507.67 267.632 507.341 267.632 506.879V352.093C267.632 351.697 267.962 351.302 268.358 351.302C268.753 351.302 269.149 351.631 269.149 352.027V506.879C269.149 507.341 268.819 507.67 268.424 507.67Z" fill="#CCCCCC"/>
<path d="M662.334 381.033C662.136 381.033 661.872 380.967 661.74 380.769L623.537 336.799C623.273 336.469 623.273 336.008 623.603 335.744C623.933 335.48 624.395 335.48 624.658 335.81L662.862 379.78C663.126 380.11 663.126 380.571 662.796 380.835C662.664 380.967 662.532 381.033 662.334 381.033Z" fill="#CCCCCC"/>
<path d="M662.334 406.413C661.938 406.413 661.542 406.084 661.542 405.622C661.542 405.424 661.608 405.227 661.74 405.095L683.448 383.406C683.778 383.143 684.24 383.143 684.504 383.406C684.768 383.67 684.768 384.197 684.504 384.461L662.796 406.15C662.73 406.281 662.532 406.413 662.334 406.413Z" fill="#CCCCCC"/>
<path d="M732.538 508H675.794V507.341C675.794 491.717 688.463 478.994 704.166 478.994C719.804 478.994 732.538 491.651 732.538 507.341V508ZM677.114 506.682H731.219C730.823 491.783 718.418 479.983 703.507 480.313C689.123 480.642 677.51 492.245 677.114 506.682Z" fill="#3F3D56"/>
<path d="M704.166 491.256C703.77 491.256 703.441 491.585 703.441 491.981V499.957L695.721 493.299C695.391 493.036 694.929 493.036 694.665 493.365C694.401 493.695 694.401 494.156 694.731 494.42L703.441 501.935V506.616C703.441 507.011 703.77 507.341 704.166 507.341C704.562 507.341 704.892 507.011 704.892 506.616V492.047C704.958 491.585 704.562 491.256 704.166 491.256Z" fill="#3F3D56"/>
<path d="M256.811 508H200.067V507.341C200.067 491.717 212.801 478.994 228.439 478.994C244.076 478.994 256.811 491.717 256.811 507.341V508ZM201.386 506.682H255.491C255.095 491.783 242.691 479.983 227.779 480.313C213.395 480.642 201.782 492.245 201.386 506.682Z" fill="#3F3D56"/>
<path d="M228.439 491.256C228.043 491.256 227.713 491.585 227.713 491.981V499.957L219.993 493.299C219.663 493.036 219.201 493.036 218.937 493.365C218.673 493.695 218.673 494.156 219.003 494.42L227.713 501.935V506.616C227.713 507.011 228.043 507.341 228.439 507.341C228.835 507.341 229.165 507.011 229.165 506.616V492.047C229.23 491.585 228.835 491.256 228.439 491.256Z" fill="#3F3D56"/>
<path d="M269.083 427.706C268.819 427.706 268.556 427.706 268.292 427.706C231.606 427.311 202.046 397.448 202.046 360.795C202.046 341.348 210.096 310.166 221.577 285.05C229.824 266.987 246.98 236.662 269.149 236.662C278.255 236.662 287.426 241.87 296.4 252.088C296.862 252.616 297.324 253.143 297.719 253.67L297.851 253.868V421.312L297.456 421.509C296.994 421.707 296.532 421.905 296.136 422.103C287.888 425.794 278.915 427.706 269.875 427.772C269.611 427.706 269.347 427.706 269.083 427.706ZM269.083 237.981C247.705 237.981 230.88 267.844 222.764 285.577C211.349 310.562 203.366 341.479 203.366 360.729C203.366 396.525 232.53 425.926 268.358 426.322C268.622 426.322 268.885 426.322 269.149 426.322C269.413 426.322 269.611 426.322 269.875 426.322C278.783 426.256 287.558 424.344 295.674 420.784C296.004 420.652 296.268 420.521 296.598 420.389V254.264C296.202 253.802 295.806 253.341 295.41 252.945C286.635 242.991 277.793 237.981 269.083 237.981Z" fill="#3F3D56"/>
<path d="M269.083 381.033C268.885 381.033 268.622 380.967 268.49 380.769L230.286 336.799C230.022 336.469 230.022 336.008 230.352 335.744C230.682 335.48 231.144 335.48 231.408 335.81L269.611 379.78C269.875 380.11 269.875 380.571 269.545 380.835C269.413 380.967 269.281 381.033 269.083 381.033Z" fill="#CCCCCC"/>
<path d="M269.083 406.413C268.687 406.413 268.292 406.084 268.292 405.622C268.292 405.424 268.358 405.227 268.49 405.095L290.198 383.406C290.527 383.143 290.989 383.143 291.253 383.406C291.517 383.67 291.517 384.197 291.253 384.461L269.545 406.15C269.479 406.281 269.281 406.413 269.083 406.413Z" fill="#CCCCCC"/>
<path d="M328.665 114.705L329.127 115.694C329.325 116.09 329.457 116.551 329.457 117.013V143.052H352.55V117.013C352.55 116.551 352.682 116.09 352.88 115.694L353.342 114.705H328.665ZM351.297 117.013V141.734H330.842V117.013C330.842 116.683 330.776 116.353 330.71 116.024H351.429C351.297 116.353 351.297 116.683 351.297 117.013ZM357.697 114.705L358.159 115.694C358.357 116.09 358.489 116.551 358.489 117.013V143.052H381.582V117.013C381.582 116.551 381.714 116.09 381.912 115.694L382.374 114.705H357.697ZM380.328 117.013V141.734H359.874V117.013C359.874 116.683 359.808 116.353 359.742 116.024H380.46C380.328 116.353 380.328 116.683 380.328 117.013ZM386.729 114.705L387.191 115.694C387.389 116.09 387.52 116.551 387.52 117.013V143.052H410.614V117.013C410.614 116.551 410.746 116.09 410.944 115.694L411.406 114.705H386.729ZM409.36 117.013V141.734H388.906V117.013C388.906 116.683 388.84 116.353 388.774 116.024H409.492C409.36 116.353 409.36 116.683 409.36 117.013ZM415.761 114.705L416.223 115.694C416.42 116.09 416.552 116.551 416.552 117.013V143.052H439.646V117.013C439.646 116.551 439.778 116.09 439.976 115.694L440.438 114.705H415.761ZM438.392 117.013V141.734H417.938V117.013C417.938 116.683 417.872 116.353 417.806 116.024H438.524C438.392 116.353 438.392 116.683 438.392 117.013ZM444.793 114.705L445.254 115.694C445.452 116.09 445.584 116.551 445.584 117.013V143.052H468.678V117.013C468.678 116.551 468.81 116.09 469.008 115.694L469.47 114.705H444.793ZM467.424 117.013V141.734H446.97V117.013C446.97 116.683 446.904 116.353 446.838 116.024H467.556C467.424 116.353 467.424 116.683 467.424 117.013ZM473.824 114.705L474.286 115.694C474.484 116.09 474.616 116.551 474.616 117.013V143.052H497.71V117.013C497.71 116.551 497.842 116.09 498.04 115.694L498.502 114.705H473.824ZM496.456 117.013V141.734H476.002V117.013C476.002 116.683 475.936 116.353 475.87 116.024H496.588C496.456 116.353 496.456 116.683 496.456 117.013ZM502.856 114.705L503.318 115.694C503.516 116.09 503.648 116.551 503.648 117.013V143.052H526.742V117.013C526.742 116.551 526.874 116.09 527.072 115.694L527.534 114.705H502.856ZM525.488 117.013V141.734H505.034V117.013C505.034 116.683 504.968 116.353 504.902 116.024H525.62C525.488 116.353 525.488 116.683 525.488 117.013ZM531.888 114.705L532.35 115.694C532.548 116.09 532.68 116.551 532.68 117.013V143.052H555.774V117.013C555.774 116.551 555.906 116.09 556.104 115.694L556.566 114.705H531.888ZM554.52 117.013V141.734H534.066V117.013C534.066 116.683 534 116.353 533.934 116.024H554.652C554.52 116.353 554.52 116.683 554.52 117.013ZM560.92 114.705L561.382 115.694C561.58 116.09 561.712 116.551 561.712 117.013V143.052H584.806V117.013C584.806 116.551 584.938 116.09 585.136 115.694L585.597 114.705H560.92ZM583.552 117.013V141.734H563.098V117.013C563.098 116.683 563.032 116.353 562.966 116.024H583.684C583.552 116.353 583.552 116.683 583.552 117.013ZM560.92 114.705L561.382 115.694C561.58 116.09 561.712 116.551 561.712 117.013V143.052H584.806V117.013C584.806 116.551 584.938 116.09 585.136 115.694L585.597 114.705H560.92ZM583.552 117.013V141.734H563.098V117.013C563.098 116.683 563.032 116.353 562.966 116.024H583.684C583.552 116.353 583.552 116.683 583.552 117.013ZM531.888 114.705L532.35 115.694C532.548 116.09 532.68 116.551 532.68 117.013V143.052H555.774V117.013C555.774 116.551 555.906 116.09 556.104 115.694L556.566 114.705H531.888ZM554.52 117.013V141.734H534.066V117.013C534.066 116.683 534 116.353 533.934 116.024H554.652C554.52 116.353 554.52 116.683 554.52 117.013ZM502.856 114.705L503.318 115.694C503.516 116.09 503.648 116.551 503.648 117.013V143.052H526.742V117.013C526.742 116.551 526.874 116.09 527.072 115.694L527.534 114.705H502.856ZM525.488 117.013V141.734H505.034V117.013C505.034 116.683 504.968 116.353 504.902 116.024H525.62C525.488 116.353 525.488 116.683 525.488 117.013ZM473.824 114.705L474.286 115.694C474.484 116.09 474.616 116.551 474.616 117.013V143.052H497.71V117.013C497.71 116.551 497.842 116.09 498.04 115.694L498.502 114.705H473.824ZM496.456 117.013V141.734H476.002V117.013C476.002 116.683 475.936 116.353 475.87 116.024H496.588C496.456 116.353 496.456 116.683 496.456 117.013ZM444.793 114.705L445.254 115.694C445.452 116.09 445.584 116.551 445.584 117.013V143.052H468.678V117.013C468.678 116.551 468.81 116.09 469.008 115.694L469.47 114.705H444.793ZM467.424 117.013V141.734H446.97V117.013C446.97 116.683 446.904 116.353 446.838 116.024H467.556C467.424 116.353 467.424 116.683 467.424 117.013ZM415.761 114.705L416.223 115.694C416.42 116.09 416.552 116.551 416.552 117.013V143.052H439.646V117.013C439.646 116.551 439.778 116.09 439.976 115.694L440.438 114.705H415.761ZM438.392 117.013V141.734H417.938V117.013C417.938 116.683 417.872 116.353 417.806 116.024H438.524C438.392 116.353 438.392 116.683 438.392 117.013ZM386.729 114.705L387.191 115.694C387.389 116.09 387.52 116.551 387.52 117.013V143.052H410.614V117.013C410.614 116.551 410.746 116.09 410.944 115.694L411.406 114.705H386.729ZM409.36 117.013V141.734H388.906V117.013C388.906 116.683 388.84 116.353 388.774 116.024H409.492C409.36 116.353 409.36 116.683 409.36 117.013ZM357.697 114.705L358.159 115.694C358.357 116.09 358.489 116.551 358.489 117.013V143.052H381.582V117.013C381.582 116.551 381.714 116.09 381.912 115.694L382.374 114.705H357.697ZM380.328 117.013V141.734H359.874V117.013C359.874 116.683 359.808 116.353 359.742 116.024H380.46C380.328 116.353 380.328 116.683 380.328 117.013ZM328.665 114.705L329.127 115.694C329.325 116.09 329.457 116.551 329.457 117.013V143.052H352.55V117.013C352.55 116.551 352.682 116.09 352.88 115.694L353.342 114.705H328.665ZM351.297 117.013V141.734H330.842V117.013C330.842 116.683 330.776 116.353 330.71 116.024H351.429C351.297 116.353 351.297 116.683 351.297 117.013ZM560.92 114.705L561.382 115.694C561.58 116.09 561.712 116.551 561.712 117.013V143.052H584.806V117.013C584.806 116.551 584.938 116.09 585.136 115.694L585.597 114.705H560.92ZM583.552 117.013V141.734H563.098V117.013C563.098 116.683 563.032 116.353 562.966 116.024H583.684C583.552 116.353 583.552 116.683 583.552 117.013ZM531.888 114.705L532.35 115.694C532.548 116.09 532.68 116.551 532.68 117.013V143.052H555.774V117.013C555.774 116.551 555.906 116.09 556.104 115.694L556.566 114.705H531.888ZM554.52 117.013V141.734H534.066V117.013C534.066 116.683 534 116.353 533.934 116.024H554.652C554.52 116.353 554.52 116.683 554.52 117.013ZM502.856 114.705L503.318 115.694C503.516 116.09 503.648 116.551 503.648 117.013V143.052H526.742V117.013C526.742 116.551 526.874 116.09 527.072 115.694L527.534 114.705H502.856ZM525.488 117.013V141.734H505.034V117.013C505.034 116.683 504.968 116.353 504.902 116.024H525.62C525.488 116.353 525.488 116.683 525.488 117.013ZM473.824 114.705L474.286 115.694C474.484 116.09 474.616 116.551 474.616 117.013V143.052H497.71V117.013C497.71 116.551 497.842 116.09 498.04 115.694L498.502 114.705H473.824ZM496.456 117.013V141.734H476.002V117.013C476.002 116.683 475.936 116.353 475.87 116.024H496.588C496.456 116.353 496.456 116.683 496.456 117.013ZM444.793 114.705L445.254 115.694C445.452 116.09 445.584 116.551 445.584 117.013V143.052H468.678V117.013C468.678 116.551 468.81 116.09 469.008 115.694L469.47 114.705H444.793ZM467.424 117.013V141.734H446.97V117.013C446.97 116.683 446.904 116.353 446.838 116.024H467.556C467.424 116.353 467.424 116.683 467.424 117.013ZM415.761 114.705L416.223 115.694C416.42 116.09 416.552 116.551 416.552 117.013V143.052H439.646V117.013C439.646 116.551 439.778 116.09 439.976 115.694L440.438 114.705H415.761ZM438.392 117.013V141.734H417.938V117.013C417.938 116.683 417.872 116.353 417.806 116.024H438.524C438.392 116.353 438.392 116.683 438.392 117.013ZM386.729 114.705L387.191 115.694C387.389 116.09 387.52 116.551 387.52 117.013V143.052H410.614V117.013C410.614 116.551 410.746 116.09 410.944 115.694L411.406 114.705H386.729ZM409.36 117.013V141.734H388.906V117.013C388.906 116.683 388.84 116.353 388.774 116.024H409.492C409.36 116.353 409.36 116.683 409.36 117.013ZM357.697 114.705L358.159 115.694C358.357 116.09 358.489 116.551 358.489 117.013V143.052H381.582V117.013C381.582 116.551 381.714 116.09 381.912 115.694L382.374 114.705H357.697ZM380.328 117.013V141.734H359.874V117.013C359.874 116.683 359.808 116.353 359.742 116.024H380.46C380.328 116.353 380.328 116.683 380.328 117.013ZM328.665 114.705L329.127 115.694C329.325 116.09 329.457 116.551 329.457 117.013V143.052H352.55V117.013C352.55 116.551 352.682 116.09 352.88 115.694L353.342 114.705H328.665ZM351.297 117.013V141.734H330.842V117.013C330.842 116.683 330.776 116.353 330.71 116.024H351.429C351.297 116.353 351.297 116.683 351.297 117.013ZM560.92 114.705L561.382 115.694C561.58 116.09 561.712 116.551 561.712 117.013V143.052H584.806V117.013C584.806 116.551 584.938 116.09 585.136 115.694L585.597 114.705H560.92ZM583.552 117.013V141.734H563.098V117.013C563.098 116.683 563.032 116.353 562.966 116.024H583.684C583.552 116.353 583.552 116.683 583.552 117.013ZM531.888 114.705L532.35 115.694C532.548 116.09 532.68 116.551 532.68 117.013V143.052H555.774V117.013C555.774 116.551 555.906 116.09 556.104 115.694L556.566 114.705H531.888ZM554.52 117.013V141.734H534.066V117.013C534.066 116.683 534 116.353 533.934 116.024H554.652C554.52 116.353 554.52 116.683 554.52 117.013ZM502.856 114.705L503.318 115.694C503.516 116.09 503.648 116.551 503.648 117.013V143.052H526.742V117.013C526.742 116.551 526.874 116.09 527.072 115.694L527.534 114.705H502.856ZM525.488 117.013V141.734H505.034V117.013C505.034 116.683 504.968 116.353 504.902 116.024H525.62C525.488 116.353 525.488 116.683 525.488 117.013ZM473.824 114.705L474.286 115.694C474.484 116.09 474.616 116.551 474.616 117.013V143.052H497.71V117.013C497.71 116.551 497.842 116.09 498.04 115.694L498.502 114.705H473.824ZM496.456 117.013V141.734H476.002V117.013C476.002 116.683 475.936 116.353 475.87 116.024H496.588C496.456 116.353 496.456 116.683 496.456 117.013ZM444.793 114.705L445.254 115.694C445.452 116.09 445.584 116.551 445.584 117.013V143.052H468.678V117.013C468.678 116.551 468.81 116.09 469.008 115.694L469.47 114.705H444.793ZM467.424 117.013V141.734H446.97V117.013C446.97 116.683 446.904 116.353 446.838 116.024H467.556C467.424 116.353 467.424 116.683 467.424 117.013ZM415.761 114.705L416.223 115.694C416.42 116.09 416.552 116.551 416.552 117.013V143.052H439.646V117.013C439.646 116.551 439.778 116.09 439.976 115.694L440.438 114.705H415.761ZM438.392 117.013V141.734H417.938V117.013C417.938 116.683 417.872 116.353 417.806 116.024H438.524C438.392 116.353 438.392 116.683 438.392 117.013ZM386.729 114.705L387.191 115.694C387.389 116.09 387.52 116.551 387.52 117.013V143.052H410.614V117.013C410.614 116.551 410.746 116.09 410.944 115.694L411.406 114.705H386.729ZM409.36 117.013V141.734H388.906V117.013C388.906 116.683 388.84 116.353 388.774 116.024H409.492C409.36 116.353 409.36 116.683 409.36 117.013ZM357.697 114.705L358.159 115.694C358.357 116.09 358.489 116.551 358.489 117.013V143.052H381.582V117.013C381.582 116.551 381.714 116.09 381.912 115.694L382.374 114.705H357.697ZM380.328 117.013V141.734H359.874V117.013C359.874 116.683 359.808 116.353 359.742 116.024H380.46C380.328 116.353 380.328 116.683 380.328 117.013ZM328.665 114.705L329.127 115.694C329.325 116.09 329.457 116.551 329.457 117.013V143.052H352.55V117.013C352.55 116.551 352.682 116.09 352.88 115.694L353.342 114.705H328.665ZM351.297 117.013V141.734H330.842V117.013C330.842 116.683 330.776 116.353 330.71 116.024H351.429C351.297 116.353 351.297 116.683 351.297 117.013ZM560.92 114.705L561.382 115.694C561.58 116.09 561.712 116.551 561.712 117.013V143.052H584.806V117.013C584.806 116.551 584.938 116.09 585.136 115.694L585.597 114.705H560.92ZM583.552 117.013V141.734H563.098V117.013C563.098 116.683 563.032 116.353 562.966 116.024H583.684C583.552 116.353 583.552 116.683 583.552 117.013ZM531.888 114.705L532.35 115.694C532.548 116.09 532.68 116.551 532.68 117.013V143.052H555.774V117.013C555.774 116.551 555.906 116.09 556.104 115.694L556.566 114.705H531.888ZM554.52 117.013V141.734H534.066V117.013C534.066 116.683 534 116.353 533.934 116.024H554.652C554.52 116.353 554.52 116.683 554.52 117.013ZM502.856 114.705L503.318 115.694C503.516 116.09 503.648 116.551 503.648 117.013V143.052H526.742V117.013C526.742 116.551 526.874 116.09 527.072 115.694L527.534 114.705H502.856ZM525.488 117.013V141.734H505.034V117.013C505.034 116.683 504.968 116.353 504.902 116.024H525.62C525.488 116.353 525.488 116.683 525.488 117.013ZM473.824 114.705L474.286 115.694C474.484 116.09 474.616 116.551 474.616 117.013V143.052H497.71V117.013C497.71 116.551 497.842 116.09 498.04 115.694L498.502 114.705H473.824ZM496.456 117.013V141.734H476.002V117.013C476.002 116.683 475.936 116.353 475.87 116.024H496.588C496.456 116.353 496.456 116.683 496.456 117.013ZM444.793 114.705L445.254 115.694C445.452 116.09 445.584 116.551 445.584 117.013V143.052H468.678V117.013C468.678 116.551 468.81 116.09 469.008 115.694L469.47 114.705H444.793ZM467.424 117.013V141.734H446.97V117.013C446.97 116.683 446.904 116.353 446.838 116.024H467.556C467.424 116.353 467.424 116.683 467.424 117.013ZM415.761 114.705L416.223 115.694C416.42 116.09 416.552 116.551 416.552 117.013V143.052H439.646V117.013C439.646 116.551 439.778 116.09 439.976 115.694L440.438 114.705H415.761ZM438.392 117.013V141.734H417.938V117.013C417.938 116.683 417.872 116.353 417.806 116.024H438.524C438.392 116.353 438.392 116.683 438.392 117.013ZM386.729 114.705L387.191 115.694C387.389 116.09 387.52 116.551 387.52 117.013V143.052H410.614V117.013C410.614 116.551 410.746 116.09 410.944 115.694L411.406 114.705H386.729ZM409.36 117.013V141.734H388.906V117.013C388.906 116.683 388.84 116.353 388.774 116.024H409.492C409.36 116.353 409.36 116.683 409.36 117.013ZM357.697 114.705L358.159 115.694C358.357 116.09 358.489 116.551 358.489 117.013V143.052H381.582V117.013C381.582 116.551 381.714 116.09 381.912 115.694L382.374 114.705H357.697ZM380.328 117.013V141.734H359.874V117.013C359.874 116.683 359.808 116.353 359.742 116.024H380.46C380.328 116.353 380.328 116.683 380.328 117.013ZM328.665 114.705L329.127 115.694C329.325 116.09 329.457 116.551 329.457 117.013V143.052H352.55V117.013C352.55 116.551 352.682 116.09 352.88 115.694L353.342 114.705H328.665ZM351.297 117.013V141.734H330.842V117.013C330.842 116.683 330.776 116.353 330.71 116.024H351.429C351.297 116.353 351.297 116.683 351.297 117.013ZM560.92 114.705L561.382 115.694C561.58 116.09 561.712 116.551 561.712 117.013V143.052H584.806V117.013C584.806 116.551 584.938 116.09 585.136 115.694L585.597 114.705H560.92ZM583.552 117.013V141.734H563.098V117.013C563.098 116.683 563.032 116.353 562.966 116.024H583.684C583.552 116.353 583.552 116.683 583.552 117.013ZM532.416 115.694C532.614 116.09 532.746 116.551 532.746 117.013V143.052H555.84V117.013C555.84 116.551 555.972 116.09 556.17 115.694L556.631 114.705H531.888L532.416 115.694ZM554.652 116.024C554.586 116.353 554.52 116.683 554.52 117.013V141.734H534.066V117.013C534.066 116.683 534 116.353 533.934 116.024H554.652ZM503.384 115.694C503.582 116.09 503.714 116.551 503.714 117.013V143.052H526.808V117.013C526.808 116.551 526.94 116.09 527.138 115.694L527.6 114.705H502.856L503.384 115.694ZM525.62 116.024C525.554 116.353 525.488 116.683 525.488 117.013V141.734H505.034V117.013C505.034 116.683 504.968 116.353 504.902 116.024H525.62ZM474.352 115.694C474.55 116.09 474.682 116.551 474.682 117.013V143.052H497.776V117.013C497.776 116.551 497.908 116.09 498.106 115.694L498.568 114.705H473.824L474.352 115.694ZM496.588 116.024C496.522 116.353 496.456 116.683 496.456 117.013V141.734H476.002V117.013C476.002 116.683 475.936 116.353 475.87 116.024H496.588ZM445.32 115.694C445.518 116.09 445.65 116.551 445.65 117.013V143.052H468.744V117.013C468.744 116.551 468.876 116.09 469.074 115.694L469.536 114.705H444.793L445.32 115.694ZM467.556 116.024C467.49 116.353 467.424 116.683 467.424 117.013V141.734H446.97V117.013C446.97 116.683 446.904 116.353 446.838 116.024H467.556ZM416.288 115.694C416.486 116.09 416.618 116.551 416.618 117.013V143.052H439.712V117.013C439.712 116.551 439.844 116.09 440.042 115.694L440.504 114.705H415.761L416.288 115.694ZM438.524 116.024C438.458 116.353 438.392 116.683 438.392 117.013V141.734H417.938V117.013C417.938 116.683 417.872 116.353 417.806 116.024H438.524ZM387.257 115.694C387.454 116.09 387.586 116.551 387.586 117.013V143.052H410.68V117.013C410.68 116.551 410.812 116.09 411.01 115.694L411.472 114.705H386.729L387.257 115.694ZM409.492 116.024C409.426 116.353 409.36 116.683 409.36 117.013V141.734H388.906V117.013C388.906 116.683 388.84 116.353 388.774 116.024H409.492ZM358.225 115.694C358.423 116.09 358.555 116.551 358.555 117.013V143.052H381.648V117.013C381.648 116.551 381.78 116.09 381.978 115.694L382.44 114.705H357.697L358.225 115.694ZM380.46 116.024C380.394 116.353 380.328 116.683 380.328 117.013V141.734H359.874V117.013C359.874 116.683 359.808 116.353 359.742 116.024H380.46ZM329.193 115.694C329.391 116.09 329.523 116.551 329.523 117.013V143.052H352.616V117.013C352.616 116.551 352.748 116.09 352.946 115.694L353.408 114.705H328.665L329.193 115.694ZM351.429 116.024C351.363 116.353 351.297 116.683 351.297 117.013V141.734H330.842V117.013C330.842 116.683 330.776 116.353 330.71 116.024H351.429ZM561.448 115.694C561.646 116.09 561.778 116.551 561.778 117.013V143.052H584.872V117.013C584.872 116.551 585.004 116.09 585.202 115.694L585.663 114.705H560.92L561.448 115.694ZM583.684 116.024C583.618 116.353 583.552 116.683 583.552 117.013V141.734H563.098V117.013C563.098 116.683 563.032 116.353 562.966 116.024H583.684ZM532.416 115.694C532.614 116.09 532.746 116.551 532.746 117.013V143.052H555.84V117.013C555.84 116.551 555.972 116.09 556.17 115.694L556.631 114.705H531.888L532.416 115.694ZM554.652 116.024C554.586 116.353 554.52 116.683 554.52 117.013V141.734H534.066V117.013C534.066 116.683 534 116.353 533.934 116.024H554.652ZM503.384 115.694C503.582 116.09 503.714 116.551 503.714 117.013V143.052H526.808V117.013C526.808 116.551 526.94 116.09 527.138 115.694L527.6 114.705H502.856L503.384 115.694ZM525.62 116.024C525.554 116.353 525.488 116.683 525.488 117.013V141.734H505.034V117.013C505.034 116.683 504.968 116.353 504.902 116.024H525.62ZM474.352 115.694C474.55 116.09 474.682 116.551 474.682 117.013V143.052H497.776V117.013C497.776 116.551 497.908 116.09 498.106 115.694L498.568 114.705H473.824L474.352 115.694ZM496.588 116.024C496.522 116.353 496.456 116.683 496.456 117.013V141.734H476.002V117.013C476.002 116.683 475.936 116.353 475.87 116.024H496.588ZM445.32 115.694C445.518 116.09 445.65 116.551 445.65 117.013V143.052H468.744V117.013C468.744 116.551 468.876 116.09 469.074 115.694L469.536 114.705H444.793L445.32 115.694ZM467.556 116.024C467.49 116.353 467.424 116.683 467.424 117.013V141.734H446.97V117.013C446.97 116.683 446.904 116.353 446.838 116.024H467.556ZM416.288 115.694C416.486 116.09 416.618 116.551 416.618 117.013V143.052H439.712V117.013C439.712 116.551 439.844 116.09 440.042 115.694L440.504 114.705H415.761L416.288 115.694ZM438.524 116.024C438.458 116.353 438.392 116.683 438.392 117.013V141.734H417.938V117.013C417.938 116.683 417.872 116.353 417.806 116.024H438.524ZM387.257 115.694C387.454 116.09 387.586 116.551 387.586 117.013V143.052H410.68V117.013C410.68 116.551 410.812 116.09 411.01 115.694L411.472 114.705H386.729L387.257 115.694ZM409.492 116.024C409.426 116.353 409.36 116.683 409.36 117.013V141.734H388.906V117.013C388.906 116.683 388.84 116.353 388.774 116.024H409.492ZM358.225 115.694C358.423 116.09 358.555 116.551 358.555 117.013V143.052H381.648V117.013C381.648 116.551 381.78 116.09 381.978 115.694L382.44 114.705H357.697L358.225 115.694ZM380.46 116.024C380.394 116.353 380.328 116.683 380.328 117.013V141.734H359.874V117.013C359.874 116.683 359.808 116.353 359.742 116.024H380.46ZM329.193 115.694C329.391 116.09 329.523 116.551 329.523 117.013V143.052H352.616V117.013C352.616 116.551 352.748 116.09 352.946 115.694L353.408 114.705H328.665L329.193 115.694ZM351.429 116.024C351.363 116.353 351.297 116.683 351.297 117.013V141.734H330.842V117.013C330.842 116.683 330.776 116.353 330.71 116.024H351.429ZM611.264 147.008H603.412C602.489 143.909 599.652 141.734 596.418 141.734H592.13V117.013C592.13 116.485 591.998 115.958 591.8 115.431C593.713 114.31 594.307 111.937 593.185 110.025C592.46 108.838 591.206 108.047 589.754 108.047H324.508C322.331 108.047 320.549 109.827 320.549 112.003C320.549 113.387 321.275 114.705 322.529 115.431C322.331 115.892 322.199 116.419 322.199 117.013V141.734H317.91C314.677 141.734 311.84 143.909 310.916 147.008H302.404C299.105 147.008 296.466 149.644 296.466 152.941V501.012C296.466 504.308 299.105 506.945 302.404 506.945H611.198C614.497 506.945 617.137 504.308 617.137 501.012V152.941C617.203 149.644 614.497 147.008 611.264 147.008ZM615.883 501.012C615.883 502.924 614.695 504.638 612.848 505.363C612.32 505.561 611.792 505.627 611.264 505.627H302.47C301.942 505.627 301.348 505.561 300.887 505.363C299.105 504.704 297.851 502.99 297.851 501.012V152.941C297.851 150.37 299.897 148.326 302.47 148.326H312.037L312.169 147.799C312.763 145.03 315.139 143.052 317.976 143.052H323.584V117.013C323.584 116.485 323.716 115.958 323.98 115.496L324.376 114.837L323.65 114.574C322.265 114.046 321.605 112.596 322.067 111.212C322.463 110.157 323.452 109.498 324.574 109.498H589.82C591.272 109.498 592.46 110.684 592.46 112.134C592.46 113.255 591.8 114.244 590.744 114.639L590.018 114.903L590.414 115.562C590.678 116.024 590.81 116.551 590.81 117.079V143.052H596.418C599.256 143.052 601.697 145.03 602.225 147.799L602.357 148.326H611.264C613.838 148.326 615.883 150.37 615.883 152.941V501.012ZM328.665 114.705L329.127 115.694C329.325 116.09 329.457 116.551 329.457 117.013V143.052H352.55V117.013C352.55 116.551 352.682 116.09 352.88 115.694L353.342 114.705H328.665ZM351.297 117.013V141.734H330.842V117.013C330.842 116.683 330.776 116.353 330.71 116.024H351.429C351.297 116.353 351.297 116.683 351.297 117.013ZM357.697 114.705L358.159 115.694C358.357 116.09 358.489 116.551 358.489 117.013V143.052H381.582V117.013C381.582 116.551 381.714 116.09 381.912 115.694L382.374 114.705H357.697ZM380.328 117.013V141.734H359.874V117.013C359.874 116.683 359.808 116.353 359.742 116.024H380.46C380.328 116.353 380.328 116.683 380.328 117.013ZM386.729 114.705L387.191 115.694C387.389 116.09 387.52 116.551 387.52 117.013V143.052H410.614V117.013C410.614 116.551 410.746 116.09 410.944 115.694L411.406 114.705H386.729ZM409.36 117.013V141.734H388.906V117.013C388.906 116.683 388.84 116.353 388.774 116.024H409.492C409.36 116.353 409.36 116.683 409.36 117.013ZM415.761 114.705L416.223 115.694C416.42 116.09 416.552 116.551 416.552 117.013V143.052H439.646V117.013C439.646 116.551 439.778 116.09 439.976 115.694L440.438 114.705H415.761ZM438.392 117.013V141.734H417.938V117.013C417.938 116.683 417.872 116.353 417.806 116.024H438.524C438.392 116.353 438.392 116.683 438.392 117.013ZM444.793 114.705L445.254 115.694C445.452 116.09 445.584 116.551 445.584 117.013V143.052H468.678V117.013C468.678 116.551 468.81 116.09 469.008 115.694L469.47 114.705H444.793ZM467.424 117.013V141.734H446.97V117.013C446.97 116.683 446.904 116.353 446.838 116.024H467.556C467.424 116.353 467.424 116.683 467.424 117.013ZM473.824 114.705L474.286 115.694C474.484 116.09 474.616 116.551 474.616 117.013V143.052H497.71V117.013C497.71 116.551 497.842 116.09 498.04 115.694L498.502 114.705H473.824ZM496.456 117.013V141.734H476.002V117.013C476.002 116.683 475.936 116.353 475.87 116.024H496.588C496.456 116.353 496.456 116.683 496.456 117.013ZM502.856 114.705L503.318 115.694C503.516 116.09 503.648 116.551 503.648 117.013V143.052H526.742V117.013C526.742 116.551 526.874 116.09 527.072 115.694L527.534 114.705H502.856ZM525.488 117.013V141.734H505.034V117.013C505.034 116.683 504.968 116.353 504.902 116.024H525.62C525.488 116.353 525.488 116.683 525.488 117.013ZM531.888 114.705L532.35 115.694C532.548 116.09 532.68 116.551 532.68 117.013V143.052H555.774V117.013C555.774 116.551 555.906 116.09 556.104 115.694L556.566 114.705H531.888ZM554.52 117.013V141.734H534.066V117.013C534.066 116.683 534 116.353 533.934 116.024H554.652C554.52 116.353 554.52 116.683 554.52 117.013ZM560.92 114.705L561.382 115.694C561.58 116.09 561.712 116.551 561.712 117.013V143.052H584.806V117.013C584.806 116.551 584.938 116.09 585.136 115.694L585.597 114.705H560.92ZM583.552 117.013V141.734H563.098V117.013C563.098 116.683 563.032 116.353 562.966 116.024H583.684C583.552 116.353 583.552 116.683 583.552 117.013ZM328.665 114.705L329.127 115.694C329.325 116.09 329.457 116.551 329.457 117.013V143.052H352.55V117.013C352.55 116.551 352.682 116.09 352.88 115.694L353.342 114.705H328.665ZM351.297 117.013V141.734H330.842V117.013C330.842 116.683 330.776 116.353 330.71 116.024H351.429C351.297 116.353 351.297 116.683 351.297 117.013ZM357.697 114.705L358.159 115.694C358.357 116.09 358.489 116.551 358.489 117.013V143.052H381.582V117.013C381.582 116.551 381.714 116.09 381.912 115.694L382.374 114.705H357.697ZM380.328 117.013V141.734H359.874V117.013C359.874 116.683 359.808 116.353 359.742 116.024H380.46C380.328 116.353 380.328 116.683 380.328 117.013ZM386.729 114.705L387.191 115.694C387.389 116.09 387.52 116.551 387.52 117.013V143.052H410.614V117.013C410.614 116.551 410.746 116.09 410.944 115.694L411.406 114.705H386.729ZM409.36 117.013V141.734H388.906V117.013C388.906 116.683 388.84 116.353 388.774 116.024H409.492C409.36 116.353 409.36 116.683 409.36 117.013ZM415.761 114.705L416.223 115.694C416.42 116.09 416.552 116.551 416.552 117.013V143.052H439.646V117.013C439.646 116.551 439.778 116.09 439.976 115.694L440.438 114.705H415.761ZM438.392 117.013V141.734H417.938V117.013C417.938 116.683 417.872 116.353 417.806 116.024H438.524C438.392 116.353 438.392 116.683 438.392 117.013ZM444.793 114.705L445.254 115.694C445.452 116.09 445.584 116.551 445.584 117.013V143.052H468.678V117.013C468.678 116.551 468.81 116.09 469.008 115.694L469.47 114.705H444.793ZM467.424 117.013V141.734H446.97V117.013C446.97 116.683 446.904 116.353 446.838 116.024H467.556C467.424 116.353 467.424 116.683 467.424 117.013ZM473.824 114.705L474.286 115.694C474.484 116.09 474.616 116.551 474.616 117.013V143.052H497.71V117.013C497.71 116.551 497.842 116.09 498.04 115.694L498.502 114.705H473.824ZM496.456 117.013V141.734H476.002V117.013C476.002 116.683 475.936 116.353 475.87 116.024H496.588C496.456 116.353 496.456 116.683 496.456 117.013ZM502.856 114.705L503.318 115.694C503.516 116.09 503.648 116.551 503.648 117.013V143.052H526.742V117.013C526.742 116.551 526.874 116.09 527.072 115.694L527.534 114.705H502.856ZM525.488 117.013V141.734H505.034V117.013C505.034 116.683 504.968 116.353 504.902 116.024H525.62C525.488 116.353 525.488 116.683 525.488 117.013ZM531.888 114.705L532.35 115.694C532.548 116.09 532.68 116.551 532.68 117.013V143.052H555.774V117.013C555.774 116.551 555.906 116.09 556.104 115.694L556.566 114.705H531.888ZM554.52 117.013V141.734H534.066V117.013C534.066 116.683 534 116.353 533.934 116.024H554.652C554.52 116.353 554.52 116.683 554.52 117.013ZM560.92 114.705L561.382 115.694C561.58 116.09 561.712 116.551 561.712 117.013V143.052H584.806V117.013C584.806 116.551 584.938 116.09 585.136 115.694L585.597 114.705H560.92ZM583.552 117.013V141.734H563.098V117.013C563.098 116.683 563.032 116.353 562.966 116.024H583.684C583.552 116.353 583.552 116.683 583.552 117.013ZM328.665 114.705L329.127 115.694C329.325 116.09 329.457 116.551 329.457 117.013V143.052H352.55V117.013C352.55 116.551 352.682 116.09 352.88 115.694L353.342 114.705H328.665ZM351.297 117.013V141.734H330.842V117.013C330.842 116.683 330.776 116.353 330.71 116.024H351.429C351.297 116.353 351.297 116.683 351.297 117.013ZM357.697 114.705L358.159 115.694C358.357 116.09 358.489 116.551 358.489 117.013V143.052H381.582V117.013C381.582 116.551 381.714 116.09 381.912 115.694L382.374 114.705H357.697ZM380.328 117.013V141.734H359.874V117.013C359.874 116.683 359.808 116.353 359.742 116.024H380.46C380.328 116.353 380.328 116.683 380.328 117.013ZM386.729 114.705L387.191 115.694C387.389 116.09 387.52 116.551 387.52 117.013V143.052H410.614V117.013C410.614 116.551 410.746 116.09 410.944 115.694L411.406 114.705H386.729ZM409.36 117.013V141.734H388.906V117.013C388.906 116.683 388.84 116.353 388.774 116.024H409.492C409.36 116.353 409.36 116.683 409.36 117.013ZM415.761 114.705L416.223 115.694C416.42 116.09 416.552 116.551 416.552 117.013V143.052H439.646V117.013C439.646 116.551 439.778 116.09 439.976 115.694L440.438 114.705H415.761ZM438.392 117.013V141.734H417.938V117.013C417.938 116.683 417.872 116.353 417.806 116.024H438.524C438.392 116.353 438.392 116.683 438.392 117.013ZM444.793 114.705L445.254 115.694C445.452 116.09 445.584 116.551 445.584 117.013V143.052H468.678V117.013C468.678 116.551 468.81 116.09 469.008 115.694L469.47 114.705H444.793ZM467.424 117.013V141.734H446.97V117.013C446.97 116.683 446.904 116.353 446.838 116.024H467.556C467.424 116.353 467.424 116.683 467.424 117.013ZM473.824 114.705L474.286 115.694C474.484 116.09 474.616 116.551 474.616 117.013V143.052H497.71V117.013C497.71 116.551 497.842 116.09 498.04 115.694L498.502 114.705H473.824ZM496.456 117.013V141.734H476.002V117.013C476.002 116.683 475.936 116.353 475.87 116.024H496.588C496.456 116.353 496.456 116.683 496.456 117.013ZM502.856 114.705L503.318 115.694C503.516 116.09 503.648 116.551 503.648 117.013V143.052H526.742V117.013C526.742 116.551 526.874 116.09 527.072 115.694L527.534 114.705H502.856ZM525.488 117.013V141.734H505.034V117.013C505.034 116.683 504.968 116.353 504.902 116.024H525.62C525.488 116.353 525.488 116.683 525.488 117.013ZM531.888 114.705L532.35 115.694C532.548 116.09 532.68 116.551 532.68 117.013V143.052H555.774V117.013C555.774 116.551 555.906 116.09 556.104 115.694L556.566 114.705H531.888ZM554.52 117.013V141.734H534.066V117.013C534.066 116.683 534 116.353 533.934 116.024H554.652C554.52 116.353 554.52 116.683 554.52 117.013ZM560.92 114.705L561.382 115.694C561.58 116.09 561.712 116.551 561.712 117.013V143.052H584.806V117.013C584.806 116.551 584.938 116.09 585.136 115.694L585.597 114.705H560.92ZM583.552 117.013V141.734H563.098V117.013C563.098 116.683 563.032 116.353 562.966 116.024H583.684C583.552 116.353 583.552 116.683 583.552 117.013ZM328.665 114.705L329.127 115.694C329.325 116.09 329.457 116.551 329.457 117.013V143.052H352.55V117.013C352.55 116.551 352.682 116.09 352.88 115.694L353.342 114.705H328.665ZM351.297 117.013V141.734H330.842V117.013C330.842 116.683 330.776 116.353 330.71 116.024H351.429C351.297 116.353 351.297 116.683 351.297 117.013ZM357.697 114.705L358.159 115.694C358.357 116.09 358.489 116.551 358.489 117.013V143.052H381.582V117.013C381.582 116.551 381.714 116.09 381.912 115.694L382.374 114.705H357.697ZM380.328 117.013V141.734H359.874V117.013C359.874 116.683 359.808 116.353 359.742 116.024H380.46C380.328 116.353 380.328 116.683 380.328 117.013ZM386.729 114.705L387.191 115.694C387.389 116.09 387.52 116.551 387.52 117.013V143.052H410.614V117.013C410.614 116.551 410.746 116.09 410.944 115.694L411.406 114.705H386.729ZM409.36 117.013V141.734H388.906V117.013C388.906 116.683 388.84 116.353 388.774 116.024H409.492C409.36 116.353 409.36 116.683 409.36 117.013ZM415.761 114.705L416.223 115.694C416.42 116.09 416.552 116.551 416.552 117.013V143.052H439.646V117.013C439.646 116.551 439.778 116.09 439.976 115.694L440.438 114.705H415.761ZM438.392 117.013V141.734H417.938V117.013C417.938 116.683 417.872 116.353 417.806 116.024H438.524C438.392 116.353 438.392 116.683 438.392 117.013ZM444.793 114.705L445.254 115.694C445.452 116.09 445.584 116.551 445.584 117.013V143.052H468.678V117.013C468.678 116.551 468.81 116.09 469.008 115.694L469.47 114.705H444.793ZM467.424 117.013V141.734H446.97V117.013C446.97 116.683 446.904 116.353 446.838 116.024H467.556C467.424 116.353 467.424 116.683 467.424 117.013ZM473.824 114.705L474.286 115.694C474.484 116.09 474.616 116.551 474.616 117.013V143.052H497.71V117.013C497.71 116.551 497.842 116.09 498.04 115.694L498.502 114.705H473.824ZM496.456 117.013V141.734H476.002V117.013C476.002 116.683 475.936 116.353 475.87 116.024H496.588C496.456 116.353 496.456 116.683 496.456 117.013ZM502.856 114.705L503.318 115.694C503.516 116.09 503.648 116.551 503.648 117.013V143.052H526.742V117.013C526.742 116.551 526.874 116.09 527.072 115.694L527.534 114.705H502.856ZM525.488 117.013V141.734H505.034V117.013C505.034 116.683 504.968 116.353 504.902 116.024H525.62C525.488 116.353 525.488 116.683 525.488 117.013ZM531.888 114.705L532.35 115.694C532.548 116.09 532.68 116.551 532.68 117.013V143.052H555.774V117.013C555.774 116.551 555.906 116.09 556.104 115.694L556.566 114.705H531.888ZM554.52 117.013V141.734H534.066V117.013C534.066 116.683 534 116.353 533.934 116.024H554.652C554.52 116.353 554.52 116.683 554.52 117.013ZM560.92 114.705L561.382 115.694C561.58 116.09 561.712 116.551 561.712 117.013V143.052H584.806V117.013C584.806 116.551 584.938 116.09 585.136 115.694L585.597 114.705H560.92ZM583.552 117.013V141.734H563.098V117.013C563.098 116.683 563.032 116.353 562.966 116.024H583.684C583.552 116.353 583.552 116.683 583.552 117.013Z" fill="#3F3D56"/>
<path d="M407.117 230.07H358.489C356.377 230.07 354.596 228.356 354.596 226.181V200.273C354.596 198.163 356.311 196.384 358.489 196.384H407.117C409.228 196.384 411.01 198.098 411.01 200.273V226.181C411.01 228.356 409.294 230.07 407.117 230.07Z" fill="#C1C1C1"/>
<path d="M481.148 230.07H432.52C430.409 230.07 428.627 228.356 428.627 226.181V200.273C428.627 198.163 430.343 196.384 432.52 196.384H481.148C483.26 196.384 485.041 198.098 485.041 200.273V226.181C485.041 228.356 483.326 230.07 481.148 230.07Z" fill="#C1C1C1"/>
<path d="M555.246 230.07H506.617C504.506 230.07 502.724 228.356 502.724 226.181V200.273C502.724 198.163 504.44 196.384 506.617 196.384H555.246C557.357 196.384 559.139 198.098 559.139 200.273V226.181C559.073 228.356 557.357 230.07 555.246 230.07Z" fill="#C1C1C1"/>
<path d="M407.117 316.429H358.489C356.377 316.429 354.596 314.715 354.596 312.539V286.632C354.596 284.522 356.311 282.742 358.489 282.742H407.117C409.228 282.742 411.01 284.456 411.01 286.632V312.539C411.01 314.715 409.294 316.429 407.117 316.429Z" fill="#C1C1C1"/>
<path d="M481.148 316.429H432.52C430.409 316.429 428.627 314.715 428.627 312.539V286.632C428.627 284.522 430.343 282.742 432.52 282.742H481.148C483.26 282.742 485.041 284.456 485.041 286.632V312.539C485.041 314.715 483.326 316.429 481.148 316.429Z" fill="#C1C1C1"/>
<path d="M555.246 316.429H506.617C504.506 316.429 502.724 314.715 502.724 312.539V286.632C502.724 284.522 504.44 282.742 506.617 282.742H555.246C557.357 282.742 559.139 284.456 559.139 286.632V312.539C559.073 314.715 557.357 316.429 555.246 316.429Z" fill="#C1C1C1"/>
<path d="M407.117 402.787H358.489C356.377 402.787 354.596 401.073 354.596 398.898V372.99C354.596 370.881 356.311 369.101 358.489 369.101H407.117C409.228 369.101 411.01 370.815 411.01 372.99V398.898C411.01 401.073 409.294 402.787 407.117 402.787Z" fill="#C1C1C1"/>
<path d="M481.148 402.787H432.52C430.409 402.787 428.627 401.073 428.627 398.898V372.99C428.627 370.881 430.343 369.101 432.52 369.101H481.148C483.26 369.101 485.041 370.815 485.041 372.99V398.898C485.041 401.073 483.326 402.787 481.148 402.787Z" fill="#C1C1C1"/>
<path d="M555.246 402.787H506.617C504.506 402.787 502.724 401.073 502.724 398.898V372.99C502.724 370.881 504.44 369.101 506.617 369.101H555.246C557.357 369.101 559.139 370.815 559.139 372.99V398.898C559.073 401.073 557.357 402.787 555.246 402.787Z" fill="#C1C1C1"/>
<path d="M399.265 233.366H342.917C340.08 233.366 337.77 231.059 337.77 228.224V198.229C337.77 195.395 340.08 193.087 342.917 193.087H399.265C402.102 193.087 404.412 195.395 404.412 198.229V228.224C404.412 231.125 402.102 233.366 399.265 233.366ZM342.917 194.472C340.805 194.472 339.09 196.186 339.09 198.295V228.29C339.09 230.4 340.805 232.114 342.917 232.114H399.265C401.377 232.114 403.092 230.4 403.092 228.29V198.295C403.092 196.186 401.377 194.472 399.265 194.472H342.917Z" fill="#3F3D56"/>
<path d="M485.041 233.366H428.693C425.856 233.366 423.546 231.059 423.546 228.224V198.229C423.546 195.395 425.856 193.087 428.693 193.087H485.041C487.879 193.087 490.188 195.395 490.188 198.229V228.224C490.188 231.125 487.879 233.366 485.041 233.366ZM428.693 194.472C426.582 194.472 424.866 196.186 424.866 198.295V228.29C424.866 230.4 426.582 232.114 428.693 232.114H485.041C487.153 232.114 488.868 230.4 488.868 228.29V198.295C488.868 196.186 487.153 194.472 485.041 194.472H428.693Z" fill="#3F3D56"/>
<path d="M570.818 233.366H514.469C511.632 233.366 509.323 231.059 509.323 228.224V198.229C509.323 195.395 511.632 193.087 514.469 193.087H570.818C573.655 193.087 575.964 195.395 575.964 198.229V228.224C575.964 231.125 573.655 233.366 570.818 233.366ZM514.469 194.472C512.358 194.472 510.642 196.186 510.642 198.295V228.29C510.642 230.4 512.358 232.114 514.469 232.114H570.818C572.929 232.114 574.644 230.4 574.644 228.29V198.295C574.644 196.186 572.929 194.472 570.818 194.472H514.469Z" fill="#3F3D56"/>
<path d="M399.265 319.725H342.917C340.08 319.725 337.77 317.418 337.77 314.583V284.588C337.77 281.753 340.08 279.446 342.917 279.446H399.265C402.102 279.446 404.412 281.753 404.412 284.588V314.583C404.412 317.484 402.102 319.725 399.265 319.725ZM342.917 280.831C340.805 280.831 339.09 282.545 339.09 284.654V314.649C339.09 316.758 340.805 318.472 342.917 318.472H399.265C401.377 318.472 403.092 316.758 403.092 314.649V284.654C403.092 282.545 401.377 280.831 399.265 280.831H342.917Z" fill="#3F3D56"/>
<path d="M485.041 319.725H428.693C425.856 319.725 423.546 317.418 423.546 314.583V284.588C423.546 281.753 425.856 279.446 428.693 279.446H485.041C487.879 279.446 490.188 281.753 490.188 284.588V314.583C490.188 317.484 487.879 319.725 485.041 319.725ZM428.693 280.831C426.582 280.831 424.866 282.545 424.866 284.654V314.649C424.866 316.758 426.582 318.472 428.693 318.472H485.041C487.153 318.472 488.868 316.758 488.868 314.649V284.654C488.868 282.545 487.153 280.831 485.041 280.831H428.693Z" fill="#3F3D56"/>
<path d="M570.818 319.725H514.469C511.632 319.725 509.323 317.418 509.323 314.583V284.588C509.323 281.753 511.632 279.446 514.469 279.446H570.818C573.655 279.446 575.964 281.753 575.964 284.588V314.583C575.964 317.484 573.655 319.725 570.818 319.725ZM514.469 280.831C512.358 280.831 510.642 282.545 510.642 284.654V314.649C510.642 316.758 512.358 318.472 514.469 318.472H570.818C572.929 318.472 574.644 316.758 574.644 314.649V284.654C574.644 282.545 572.929 280.831 570.818 280.831H514.469Z" fill="#3F3D56"/>
<path d="M399.265 406.084H342.917C340.08 406.084 337.77 403.776 337.77 400.942V370.947C337.77 368.112 340.08 365.805 342.917 365.805H399.265C402.102 365.805 404.412 368.112 404.412 370.947V400.942C404.412 403.842 402.102 406.084 399.265 406.084ZM342.917 367.189C340.805 367.189 339.09 368.903 339.09 371.013V401.008C339.09 403.117 340.805 404.831 342.917 404.831H399.265C401.377 404.831 403.092 403.117 403.092 401.008V371.013C403.092 368.903 401.377 367.189 399.265 367.189H342.917Z" fill="#3F3D56"/>
<path d="M485.041 406.084H428.693C425.856 406.084 423.546 403.776 423.546 400.942V370.947C423.546 368.112 425.856 365.805 428.693 365.805H485.041C487.879 365.805 490.188 368.112 490.188 370.947V400.942C490.188 403.842 487.879 406.084 485.041 406.084ZM428.693 367.189C426.582 367.189 424.866 368.903 424.866 371.013V401.008C424.866 403.117 426.582 404.831 428.693 404.831H485.041C487.153 404.831 488.868 403.117 488.868 401.008V371.013C488.868 368.903 487.153 367.189 485.041 367.189H428.693Z" fill="#3F3D56"/>
<path d="M570.818 406.084H514.469C511.632 406.084 509.323 403.776 509.323 400.942V370.947C509.323 368.112 511.632 365.805 514.469 365.805H570.818C573.655 365.805 575.964 368.112 575.964 370.947V400.942C575.964 403.842 573.655 406.084 570.818 406.084ZM514.469 367.189C512.358 367.189 510.642 368.903 510.642 371.013V401.008C510.642 403.117 512.358 404.831 514.469 404.831H570.818C572.929 404.831 574.644 403.117 574.644 401.008V371.013C574.644 368.903 572.929 367.189 570.818 367.189H514.469Z" fill="#3F3D56"/>
<path d="M732.806 508H67.5149C67.1189 508 66.8549 507.612 66.8549 507.031C66.8549 506.449 67.1189 506.061 67.5149 506.061H732.806C733.202 506.061 733.466 506.449 733.466 507.031C733.466 507.612 733.202 508 732.806 508Z" fill="#3F3D56"/>
<path d="M490.188 444.121C490.254 440.957 487.747 438.386 484.579 438.386H456.867V506.616H490.188V444.121Z" fill="#3F3D56"/>
<path d="M457.527 505.956H422.887V444.319C422.887 440.891 425.724 438.056 429.155 438.056H457.527V505.956ZM424.206 504.638H456.207V439.375H429.155C426.45 439.375 424.206 441.616 424.206 444.319V504.638Z" fill="#3F3D56"/>
<path d="M427.175 476.621C428.269 476.621 429.155 475.735 429.155 474.643C429.155 473.551 428.269 472.665 427.175 472.665C426.082 472.665 425.196 473.551 425.196 474.643C425.196 475.735 426.082 476.621 427.175 476.621Z" fill="#3F3D56"/>
<path d="M148.35 398.146C148.35 419.287 142.387 433.565 133.354 442.56C124.317 451.557 112.124 455.35 99.5 455.35C86.8763 455.35 74.6828 451.557 65.646 442.56C56.6128 433.565 50.65 419.287 50.65 398.146C50.65 376.989 56.624 353.05 65.7709 334.412C70.344 325.094 75.6953 317.131 81.4615 311.508C87.2328 305.88 93.36 302.65 99.5 302.65C105.64 302.65 111.767 305.88 117.538 311.508C123.305 317.131 128.656 325.094 133.229 334.412C142.376 353.05 148.35 376.989 148.35 398.146Z" stroke="#414141" stroke-width="1.3"/>
<path d="M99.359 437.229C99.094 437.229 98.829 437.009 98.829 436.7C98.829 436.568 98.8732 436.436 98.9615 436.348L113.492 421.85C113.713 421.673 114.022 421.673 114.199 421.85C114.376 422.026 114.376 422.379 114.199 422.555L99.6682 437.053C99.624 437.141 99.4915 437.229 99.359 437.229Z" fill="#CCCCCC"/>
<path d="M99.2897 419.779C99.1496 419.779 98.9628 419.734 98.8694 419.599L71.8342 389.605C71.6474 389.38 71.6474 389.065 71.8809 388.885C72.1144 388.706 72.4412 388.706 72.628 388.93L99.6632 418.924C99.85 419.149 99.85 419.464 99.6165 419.644C99.5231 419.734 99.4297 419.779 99.2897 419.779Z" fill="#CCCCCC"/>
<path d="M99.3345 508C99.0818 508 98.829 507.771 98.829 507.451V399.969C98.829 399.694 99.0396 399.42 99.2924 399.42C99.5452 399.42 99.7979 399.649 99.7979 399.923V507.451C99.7979 507.771 99.5873 508 99.3345 508Z" fill="#CCCCCC"/>
</g>
<defs>
<clipPath id="clip0_23_2">
<rect width="748" height="508" fill="white"/>
</clipPath>
</defs>
</svg>
