<svg width="567" height="350" viewBox="0 0 567 350" fill="none" xmlns="http://www.w3.org/2000/svg">
<g clip-path="url(#clip0_42_254)">
<path opacity="0.1" d="M567 224.783C567 234.251 565.845 243.72 563.582 252.898C562.812 255.99 561.945 259.034 560.934 262.029C559.683 265.7 558.287 269.275 556.65 272.802C555.831 274.589 554.965 276.328 554.05 278.019C554.05 287.729 552.076 297.343 548.177 306.28C541.148 322.27 528.68 335.217 512.938 342.705C503.117 347.391 492.382 349.903 481.502 349.952H107.642C90.9857 350 74.6661 345.604 60.272 337.246L60.0313 337.101C57.9613 335.894 55.9875 334.638 54.0138 333.285C49.633 330.241 45.4929 326.86 41.6898 323.092C36.5869 318.068 32.0616 312.415 28.2104 306.28C19.2081 291.932 14.4422 275.314 14.4422 258.357C5.29547 242.319 0 223.043 0 202.367C0 176.28 8.47275 152.464 22.3372 134.493C25.2257 130.725 28.403 127.198 31.8209 123.913C35.1908 120.676 38.8013 117.681 42.6526 114.976C45.7336 112.85 48.959 110.918 52.2807 109.179C53.6768 108.454 55.0728 107.778 56.4689 107.198C57.7206 106.667 58.9722 106.135 60.272 105.652C61.8125 105.072 63.353 104.541 64.9417 104.058C66.5303 103.575 68.0708 103.14 69.5632 102.754C71.8258 102.222 74.0884 101.739 76.3991 101.401C78.3248 101.111 80.2504 100.918 82.176 100.773C83.7165 100.676 85.257 100.58 86.7975 100.58H87.664C89.3971 100.58 91.082 100.628 92.7669 100.773C92.9595 100.435 93.1521 100.048 93.2965 99.7101C93.9705 98.4057 94.6926 97.1497 95.3665 95.8937C95.3665 95.8937 95.3665 95.8937 95.3665 95.8454C95.511 95.6038 95.6072 95.4106 95.7516 95.169C96.3293 94.1545 96.907 93.14 97.5329 92.1255C97.8217 91.6425 98.0624 91.2077 98.3512 90.7246C98.3994 90.628 98.4957 90.483 98.5438 90.3864C98.8326 89.9033 99.1215 89.4202 99.4103 88.9371C100.903 86.57 102.443 84.2029 104.032 81.9323L104.465 81.3526C104.706 81.0144 104.947 80.628 105.235 80.2898C105.909 79.3719 106.583 78.4057 107.257 77.4879C107.739 76.8115 108.22 76.1835 108.75 75.5555C110.001 73.9613 111.301 72.3188 112.601 70.7246C113.901 69.1304 115.297 67.5362 116.693 65.942C116.885 65.7487 117.078 65.5072 117.271 65.314L119.341 63.0434C119.437 62.9468 119.533 62.8502 119.629 62.7536C119.87 62.4637 120.111 62.2222 120.352 61.9806C121.459 60.8212 122.566 59.6618 123.721 58.5024C129.498 52.7053 135.66 47.3429 142.159 42.3671C142.4 42.1739 142.689 41.9806 142.929 41.7874C144.133 40.8695 145.385 39.9516 146.636 39.0338C153.472 34.1062 160.597 29.6618 168.011 25.6521C168.54 25.3623 169.022 25.0724 169.551 24.8309C176.195 21.3043 183.031 18.1642 190.011 15.3623C193.814 13.8647 197.713 12.4154 201.613 11.1111C204.212 10.2415 206.86 9.42024 209.508 8.64729C213.648 7.43956 217.836 6.37676 222.024 5.41058C234.397 2.60864 247.009 0.917822 259.67 0.241493C263.522 0.0482566 267.421 -0.0483617 271.369 -0.0483617C290.384 -0.0966709 309.303 2.31879 327.693 7.1014C328.078 7.68111 328.752 8.01927 329.426 8.01927H331.063C331.785 8.21251 332.459 8.40574 333.181 8.59898C337.129 9.71009 340.98 10.9661 344.783 12.3188L345.746 12.657C355.133 16.0386 364.328 20.0483 373.138 24.7342C381.081 28.9371 388.783 33.7198 396.101 38.9371C397.208 39.7584 398.315 40.5797 399.423 41.4009C400.771 40.5313 402.118 39.7101 403.466 38.9371C408.762 35.8937 414.394 33.4782 420.267 31.7391C432.495 28.1159 445.445 27.5845 457.913 30.2415C473.944 33.6231 488.435 42.0772 500.133 54.1062C504.899 59.0338 509.135 64.4444 512.794 70.2415C513.083 70.6763 513.323 71.0628 513.564 71.4975C516.693 76.6183 519.389 82.0289 521.603 87.6328C521.7 87.826 521.748 88.0193 521.844 88.2608C523.914 93.4782 525.551 98.8888 526.803 104.396C526.851 104.686 526.947 104.927 526.995 105.217C528.151 110.531 528.969 115.894 529.354 121.353C529.354 121.546 529.354 121.739 529.402 121.932C529.595 124.734 529.691 127.584 529.691 130.435C529.691 132.995 529.595 135.555 529.45 138.068C529.45 138.357 529.402 138.647 529.402 138.937C529.354 139.662 529.306 140.386 529.258 141.111C532.916 144.106 536.383 147.343 539.56 150.87C540.956 152.415 542.304 154.01 543.652 155.652C547.648 160.676 551.162 166.087 554.146 171.787C562.33 187.246 567 205.362 567 224.783Z" fill="#32A07E"/>
<path opacity="0.1" d="M512.601 340.918C512.601 344.203 501.288 347.295 481.502 349.952H107.642C90.9857 350 74.6661 345.604 60.272 337.246L60.0313 337.101C65.7119 335.024 75.9659 333.092 89.9266 331.353L90.5525 331.256C96.8107 330.483 103.791 329.758 111.445 329.082C111.638 329.082 111.831 329.034 112.023 329.034C118.089 328.502 124.54 327.971 131.376 327.488C131.616 327.488 131.809 327.44 132.002 327.44C134.649 327.246 137.345 327.053 140.089 326.908L141.148 326.86C161.127 325.604 183.897 324.638 208.545 323.961H208.593C212.059 323.865 215.525 323.768 219.088 323.72C222.987 323.623 226.983 323.527 230.979 323.478C234.06 323.43 237.141 323.382 240.27 323.333H240.318C254.375 323.14 268.913 322.995 283.741 322.995C320.472 322.995 355.133 323.671 385.895 324.879H385.991C390.709 325.072 395.379 325.266 399.904 325.459L403.755 325.652C408.858 325.894 413.817 326.135 418.679 326.425C475.629 329.71 512.601 334.976 512.601 340.918Z" fill="#32A07E"/>
<g opacity="0.2">
<path d="M327.5 320.773C327.5 321.304 327.404 321.836 327.308 322.319C323.938 321.787 320.568 321.304 317.198 320.87C317.198 320.725 317.198 320.58 317.198 320.435C317.247 318.986 317.632 317.585 318.402 316.329C319.413 314.734 320.905 313.768 322.542 313.816C324.179 313.865 325.623 314.928 326.538 316.57C327.26 317.923 327.549 319.324 327.5 320.773Z" fill="#3F3D56"/>
<path d="M327.775 312.523C327.892 308.79 325.683 305.69 322.839 305.6C319.996 305.51 317.596 308.463 317.478 312.196C317.36 315.93 319.57 319.029 322.414 319.12C325.257 319.21 327.657 316.256 327.775 312.523Z" fill="#3F3D56"/>
<path d="M328.047 304.275C328.164 300.541 325.955 297.442 323.111 297.351C320.268 297.261 317.867 300.215 317.75 303.948C317.632 307.681 319.842 310.781 322.685 310.871C325.529 310.961 327.929 308.008 328.047 304.275Z" fill="#3F3D56"/>
<path d="M328.315 295.973C328.433 292.24 326.223 289.14 323.38 289.05C320.536 288.96 318.136 291.913 318.019 295.647C317.901 299.38 320.111 302.48 322.954 302.57C325.798 302.66 328.198 299.707 328.315 295.973Z" fill="#3F3D56"/>
<path d="M328.534 287.718C328.652 283.985 326.442 280.885 323.599 280.795C320.755 280.705 318.355 283.658 318.238 287.392C318.12 291.125 320.33 294.225 323.173 294.315C326.017 294.405 328.417 291.452 328.534 287.718Z" fill="#3F3D56"/>
<path d="M305.885 230.338C305.211 229.42 304.586 228.454 304.056 227.44L317.68 225.652L303.045 225.314C300.397 219.034 300.445 211.932 303.189 205.701L322.494 216.57L304.778 202.657C311.951 191.015 327.164 187.44 338.765 194.638C350.367 201.836 353.93 217.102 346.757 228.744C346.131 229.759 345.409 230.773 344.639 231.691C345.698 233.14 346.612 234.686 347.286 236.28L329.426 244.879L348.345 239.179C350.752 247.198 348.971 255.894 343.628 262.319C351.715 273.333 349.356 288.841 338.38 296.957C327.404 305.073 311.951 302.705 303.863 291.691C297.124 282.464 297.509 269.807 304.826 261.063C298.135 251.739 298.568 239.082 305.885 230.338Z" fill="#32A07E"/>
<path opacity="0.1" d="M349.453 247.053C349.26 252.609 347.238 257.923 343.676 262.174C351.763 273.189 349.405 288.696 338.429 296.812C327.452 304.928 311.999 302.561 303.912 291.546C297.172 282.319 297.557 269.662 304.875 260.918C301.745 256.618 349.549 244.251 349.453 247.053Z" fill="black"/>
</g>
<g opacity="0.2">
<path d="M254.327 320.773C254.327 321.304 254.231 321.836 254.134 322.319C250.764 321.787 247.395 321.304 244.025 320.87C244.025 320.725 244.025 320.58 244.025 320.435C244.073 318.986 244.458 317.585 245.228 316.329C246.239 314.734 247.732 313.768 249.368 313.816C251.005 313.865 252.449 314.928 253.364 316.57C254.086 317.923 254.375 319.324 254.327 320.773Z" fill="#3F3D56"/>
<path d="M254.594 312.52C254.712 308.786 252.502 305.687 249.659 305.596C246.815 305.506 244.415 308.46 244.297 312.193C244.18 315.926 246.389 319.026 249.233 319.116C252.076 319.206 254.477 316.253 254.594 312.52Z" fill="#3F3D56"/>
<path d="M254.866 304.271C254.984 300.538 252.774 297.438 249.93 297.348C247.087 297.258 244.687 300.211 244.569 303.945C244.452 307.678 246.661 310.778 249.505 310.868C252.348 310.958 254.748 308.005 254.866 304.271Z" fill="#3F3D56"/>
<path d="M255.135 295.97C255.252 292.236 253.042 289.137 250.199 289.047C247.356 288.956 244.955 291.91 244.838 295.643C244.72 299.377 246.93 302.476 249.773 302.566C252.617 302.657 255.017 299.703 255.135 295.97Z" fill="#3F3D56"/>
<path d="M255.354 287.715C255.471 283.981 253.262 280.882 250.418 280.792C247.575 280.701 245.174 283.655 245.057 287.388C244.939 291.122 247.149 294.221 249.992 294.311C252.836 294.402 255.236 291.448 255.354 287.715Z" fill="#3F3D56"/>
<path d="M232.712 230.338C232.038 229.42 231.412 228.454 230.882 227.44L244.506 225.652L229.871 225.314C227.224 219.034 227.272 211.932 230.016 205.701L249.32 216.57L231.604 202.657C238.777 191.015 253.99 187.44 265.592 194.638C277.194 201.836 280.756 217.102 273.583 228.744C272.957 229.759 272.235 230.773 271.465 231.691C272.524 233.14 273.439 234.686 274.113 236.28L256.252 244.879L275.172 239.179C277.579 247.198 275.798 255.894 270.454 262.319C278.542 273.333 276.183 288.841 265.207 296.957C254.231 305.073 238.777 302.705 230.69 291.691C223.95 282.464 224.335 269.807 231.653 261.063C224.961 251.739 225.394 239.082 232.712 230.338Z" fill="#32A07E"/>
<path opacity="0.1" d="M276.279 247.053C276.086 252.609 274.065 257.923 270.502 262.174C278.59 273.189 276.231 288.696 265.255 296.812C254.279 304.928 238.826 302.561 230.738 291.546C223.998 282.319 224.383 269.662 231.701 260.918C228.572 256.618 276.375 244.251 276.279 247.053Z" fill="black"/>
</g>
<g opacity="0.2">
<path d="M454.207 326.087C454.158 327.053 454.062 328.068 453.87 329.034C447.419 328.019 440.92 327.053 434.373 326.28C434.373 326.039 434.373 325.749 434.373 325.459C434.421 322.657 435.239 319.952 436.683 317.584C438.609 314.541 441.497 312.657 444.675 312.754C447.852 312.85 450.644 314.927 452.377 318.068C453.677 320.483 454.303 323.285 454.207 326.087Z" fill="#3F3D56"/>
<path d="M454.727 310.162C454.954 302.962 450.7 296.985 445.226 296.811C439.752 296.637 435.13 302.333 434.903 309.534C434.677 316.734 438.931 322.711 444.405 322.885C449.879 323.058 454.501 317.362 454.727 310.162Z" fill="#3F3D56"/>
<path d="M455.208 294.258C455.435 287.058 451.181 281.08 445.707 280.906C440.232 280.733 435.611 286.429 435.384 293.629C435.157 300.829 439.411 306.807 444.886 306.98C450.36 307.154 454.981 301.458 455.208 294.258Z" fill="#3F3D56"/>
<path d="M455.743 278.311C455.97 271.111 451.716 265.134 446.242 264.96C440.767 264.787 436.146 270.483 435.919 277.683C435.692 284.883 439.946 290.86 445.42 291.034C450.895 291.208 455.516 285.512 455.743 278.311Z" fill="#3F3D56"/>
<path d="M455.653 261.667C455.868 254.466 451.604 248.495 446.129 248.331C440.655 248.166 436.042 253.87 435.827 261.07C435.611 268.271 439.875 274.242 445.35 274.407C450.825 274.572 455.437 268.868 455.653 261.667Z" fill="#3F3D56"/>
<path d="M412.565 151.932C411.265 150.145 410.11 148.309 409.051 146.377L435.239 142.898L407.077 142.222C401.974 130.096 402.07 116.473 407.366 104.444L444.578 125.314L410.543 98.5023C424.408 76.1351 453.677 69.2752 475.966 83.14C498.255 97.053 505.091 126.425 491.275 148.792C490.071 150.725 488.771 152.56 487.279 154.299C489.301 157.053 491.034 160.048 492.43 163.188L458.01 179.71L494.452 168.696C499.122 184.106 495.704 200.869 485.402 213.237C500.951 234.444 496.474 264.299 475.34 279.903C454.207 295.507 424.456 291.014 408.906 269.807C395.908 252.077 396.679 227.729 410.736 210.869C397.738 193.14 398.508 168.792 412.565 151.932Z" fill="#32A07E"/>
<path opacity="0.1" d="M496.522 184.106C496.185 194.782 492.286 205.072 485.45 213.237C500.999 234.444 496.522 264.299 475.388 279.903C454.255 295.507 424.504 291.014 408.954 269.807C395.957 252.077 396.727 227.729 410.784 210.869C404.622 202.56 496.667 178.744 496.522 184.106Z" fill="black"/>
</g>
<path d="M75.9659 326.908H81.0206H88.1455L97.1477 180.145L186.304 30.8696L182.453 26.715V16.1353L86.0273 176.715L75.9659 326.908Z" fill="#F1C0C0"/>
<path opacity="0.1" d="M81.5502 326.908H88.1454L97.1477 180.145L186.304 30.8697L182.453 26.7151L90.4562 177.923L81.5502 326.908Z" fill="black"/>
<path d="M61.0905 328.164L292.117 345.894H292.31L515.875 332.126L516.019 332.077V322.609L269.684 318.068L64.1715 317.875H62.6791L62.5347 318.937L61.0905 328.164Z" fill="#F1C0C0"/>
<path opacity="0.1" d="M61.0905 328.164L292.117 345.894H292.31L515.875 332.126L516.019 331.932V322.802H515.827L292.117 330.338L64.1715 317.875L63.7382 318.164L62.5347 318.937L61.0905 328.164Z" fill="black"/>
<path opacity="0.1" d="M61.0905 328.164L292.117 345.894V330.338L63.7382 318.164L62.5347 318.937L61.0905 328.164Z" fill="black"/>
<path d="M182.405 26.4735L284.27 136.184L281.093 329.131L289.758 330.193H289.903H298.568L299.579 144.493L490.264 208.406L493.489 322.222L500.47 322.995L502.829 323.237L497.34 200.483L297.99 130.29L188.711 16.2319H182.405V26.4735Z" fill="#F1C0C0"/>
<path opacity="0.1" d="M298.809 140.918L299.579 144.493L490.264 208.406L493.489 322.222L500.47 322.995L494.982 206.039L298.809 140.918Z" fill="black"/>
<path opacity="0.1" d="M182.405 26.4735L284.27 136.184L281.093 329.131L289.758 330.193L292.117 129.855L182.405 16.2319V26.4735Z" fill="black"/>
<path d="M299.146 218.358L369.094 232.174H369.142L491.66 256.377L497.244 254.155V253.768L496.859 245.894L299.242 205.845L299.146 218.358Z" fill="#F1C0C0"/>
<path opacity="0.1" d="M369.142 232.174L491.66 256.377L497.244 254.154V253.768L369.142 232.174Z" fill="black"/>
<path d="M373.812 169.372L375.689 273.865L376.7 327.488L385.317 327.198L390.709 327.005L389.024 170.87L385.317 169.614L384.499 169.372H373.812Z" fill="#F1C0C0"/>
<path opacity="0.1" d="M373.908 169.324V169.372L375.689 273.865L376.7 327.488L385.317 327.198V169.324H373.908Z" fill="black"/>
<path d="M238.922 196.039C239.403 196.329 239.933 196.618 240.366 197.005C240.896 197.488 241.377 198.019 241.81 198.599C243.88 201.256 245.806 204.396 245.565 207.778C245.565 208.792 245.18 209.71 244.506 210.435C243.64 211.159 242.436 211.208 241.329 211.208C240.125 211.208 238.825 211.208 237.766 210.58C236.707 209.952 235.841 208.744 234.589 208.744C234.397 208.792 234.252 208.792 234.06 208.744C233.626 208.599 233.53 208.019 233.289 207.681C232.808 207.053 231.797 207.198 231.027 207.488C230.256 207.778 229.438 208.213 228.668 207.874C228.235 207.633 227.898 207.295 227.657 206.86C225.876 203.961 225.491 200.483 225.154 197.101C224.961 195.072 223.372 188.068 227.705 189.662C229.631 190.338 231.412 191.739 233.193 192.754L238.922 196.039Z" fill="#3F3D56"/>
<path d="M234.589 196.715C235.408 197.295 236.467 197.246 237.237 196.618C237.959 195.99 238.392 195.072 238.537 194.106C239.018 193.961 239.259 194.589 239.548 194.976C240.077 195.652 241.184 195.604 241.666 196.328C242.003 196.812 241.907 197.488 242.147 198.019C242.484 198.744 243.254 199.082 243.784 199.662C244.265 200.29 244.651 201.014 244.843 201.787L245.613 204.155C245.998 205.121 246.239 206.184 246.335 207.246C246.432 208.309 246.095 209.372 245.421 210.193C244.362 211.353 242.629 211.449 241.088 211.401C240.559 211.401 240.077 211.353 239.548 211.208C238.2 210.773 237.333 209.42 236.948 208.019C236.563 206.618 236.611 205.169 236.419 203.768C236.178 202.367 235.793 201.014 235.215 199.71C234.782 198.696 233.626 197.198 233.626 196.135C234.06 196.184 234.3 196.522 234.589 196.715Z" fill="#3F3D56"/>
<path d="M236.322 191.836C236.081 191.159 235.985 190.435 235.937 189.71C235.937 188.261 236.611 186.908 237.285 185.604L231.797 186.328C231.123 186.425 230.401 186.57 230.016 187.101C229.727 187.681 229.727 188.309 230.016 188.889C230.305 189.42 230.497 190 230.69 190.628C230.69 191.159 230.738 191.691 230.882 192.174C231.075 192.56 231.316 192.898 231.604 193.188C233.193 194.927 234.348 197.005 235.552 199.034C235.504 198.985 238.874 196.377 238.729 195.507C238.633 195.024 237.67 194.444 237.381 193.961C236.852 193.333 236.563 192.609 236.322 191.836Z" fill="#BE6F72"/>
<path d="M283.5 172.947V177.729L202.335 193.623L198.099 196.183H183.56V193.478L263.329 174.155L283.5 172.947Z" fill="#F1C0C0"/>
<path opacity="0.1" d="M283.5 177.729L202.335 193.623L198.099 196.184H183.56L263.955 178.937L283.5 177.729Z" fill="black"/>
<path d="M218.318 308.068C216.44 305.797 213.263 305.121 210.663 306.425C210.374 306.57 210.134 306.763 209.941 306.957C209.46 307.633 209.749 308.551 209.797 309.42C209.893 311.449 208.304 313.14 206.86 314.541C206.09 315.314 205.272 316.135 204.935 317.15C204.598 318.164 204.838 319.517 205.801 320.048C206.234 320.242 206.668 320.386 207.101 320.435C208.641 320.725 210.23 320.773 211.771 320.58C213.311 320.29 214.803 319.42 215.477 317.971C215.622 317.585 215.814 317.246 216.103 316.956C216.97 316.28 218.269 317.053 219.232 316.57C220.003 316.184 220.051 315.556 220.051 314.734C220.099 312.464 219.762 309.903 218.318 308.068Z" fill="#32A07E"/>
<path d="M229.871 307.971C230.449 309.517 230.545 311.256 230.642 312.899C230.69 313.865 230.69 314.879 230.208 315.7C229.727 316.522 228.668 316.957 227.705 317.15C225.683 317.585 223.372 317.15 222.073 315.556C221.062 314.348 220.869 312.657 221.062 311.063C221.206 309.758 221.543 308.261 220.628 307.295C220.388 307.053 220.099 306.86 219.858 306.618C219.377 306.039 219.473 305.121 219.714 304.396C220.051 303.72 220.291 302.995 220.484 302.222C220.532 301.884 226.983 302.464 227.609 302.754C228.427 303.14 228.283 303.816 228.523 304.638C228.812 305.845 229.438 306.86 229.871 307.971Z" fill="#32A07E"/>
<path d="M231.075 238.551C232.327 239.372 232.856 241.014 233.049 242.512C233.578 246.618 232.615 250.821 232.567 254.976C232.519 260.821 234.204 266.763 232.76 272.415C231.893 275.797 232.615 279.662 231.797 283.092C231.556 284.106 231.123 285.072 230.882 286.087C230.401 288.261 230.882 290.58 231.604 292.754C231.845 293.333 231.941 293.961 232.038 294.541C231.99 295.507 231.749 296.425 231.316 297.246L228.427 304.106C228.09 304.879 226.839 304.976 226.02 305.121C224.48 305.314 222.795 305.459 221.543 304.493C220.291 303.527 220.051 301.932 219.858 300.483C219.521 297.633 219.329 294.734 219.377 291.884C219.425 291.111 219.377 290.386 219.184 289.662C218.943 288.841 218.318 288.116 218.173 287.246C217.981 286.135 218.558 285.024 218.751 283.865C218.895 282.802 218.895 281.787 218.703 280.725C218.51 279.179 218.318 277.633 218.029 276.087C217.692 273.913 218.173 271.836 218.51 269.662C218.799 267.633 218.414 265.556 218.029 263.575C218.077 265.217 217.836 266.812 217.403 268.406C217.162 269.179 216.777 269.903 216.536 270.676C215.574 274.203 217.644 277.874 217.355 281.498C217.21 283.188 216.536 284.879 216.729 286.57C216.873 287.778 217.451 288.937 217.836 290.097C218.221 291.256 218.414 292.609 217.836 293.72C216.248 296.667 217.451 300.725 218.847 303.768C219.136 304.299 219.377 304.879 219.569 305.459C220.003 306.812 219.617 308.309 219.762 309.71C218.943 309.855 218.125 309.613 217.499 309.034C217.307 308.792 217.114 308.551 216.922 308.309C216.344 307.778 215.67 307.343 214.9 307.053C214.466 306.812 213.937 306.667 213.455 306.715C212.926 306.86 212.444 307.15 212.059 307.585C211.578 308.019 211.097 308.406 210.567 308.744C210.326 308.937 210.086 309.034 209.797 309.082C209.508 309.13 209.219 308.985 209.075 308.696C209.026 308.599 209.027 308.551 209.027 308.454C208.834 307.005 208.738 305.507 208.738 304.058C208.738 301.546 205.705 299.807 205.368 297.295C205.079 295.266 205.609 293.237 205.416 291.208C205.32 290.145 205.031 289.13 205.031 288.116C205.031 287.44 205.175 286.763 205.223 286.087C205.272 285.362 205.272 284.589 205.175 283.865L205.031 281.546C204.886 279.227 204.742 276.908 203.827 274.783C202.768 272.319 202.142 269.71 201.95 267.005C201.854 265.314 201.902 263.623 201.709 261.932C201.517 260.386 201.131 258.889 201.276 257.343C201.372 256.135 201.757 255.024 201.854 253.816C202.046 251.546 201.18 249.324 200.506 247.101C199.832 244.879 199.302 242.512 200.217 240.386C200.361 240.048 200.554 239.71 200.843 239.469C201.18 239.227 201.565 239.082 201.998 239.034C210.278 237.295 218.703 236.763 227.127 237.44C228.572 237.44 229.871 237.826 231.075 238.551Z" fill="#3F3D56"/>
<path d="M203.731 187.246C207.985 187.246 211.433 183.786 211.433 179.517C211.433 175.248 207.985 171.787 203.731 171.787C199.477 171.787 196.029 175.248 196.029 179.517C196.029 183.786 199.477 187.246 203.731 187.246Z" fill="#BE6F72"/>
<path d="M202.239 189.179C202.335 189.614 202.335 190.097 202.239 190.531C202.094 190.821 201.95 191.111 201.757 191.401C200.987 192.367 200.169 193.285 199.302 194.106C199.735 195.121 200.602 195.942 201.613 196.377C202.624 196.812 203.683 197.101 204.79 197.295C205.32 197.44 205.897 197.488 206.475 197.391C207.005 197.246 207.486 197.053 207.919 196.715L212.204 194.155C212.83 193.816 213.455 193.382 213.985 192.85C214.755 192.029 215.237 190.966 215.237 189.807C215.237 189.614 215.188 189.42 215.092 189.227C214.948 189.082 214.707 188.986 214.514 188.986C213.022 188.647 211.819 187.44 211.145 186.039C210.519 184.589 210.134 183.092 209.989 181.546L205.416 183.961C204.742 184.348 204.068 184.686 203.346 184.976C202.913 185.169 201.998 185.362 201.661 185.749C200.987 186.57 202.094 188.261 202.239 189.179Z" fill="#BE6F72"/>
<path d="M199.302 192.657C198.628 193.188 198.147 193.865 197.81 194.638C197.521 195.604 197.81 196.618 198.099 197.585C199.35 201.643 200.313 205.845 200.987 210.048C201.372 212.947 201.517 215.894 201.757 218.841C202.142 224.831 202.768 234.348 203.538 240.29C206.427 240.435 209.267 239.565 212.107 239.275C217.451 238.696 222.987 240 228.235 238.792C226.983 233.768 225.683 225.169 224.431 220.097C223.854 218.116 223.469 216.087 223.276 214.058C223.18 212.609 223.228 211.111 223.276 209.614C223.324 206.715 223.18 203.816 222.987 200.918C222.795 197.536 222.602 194.155 221.832 190.821C221.784 190.387 221.591 190 221.254 189.71C220.773 189.372 220.147 189.469 219.569 189.565C217.836 189.807 216.055 189.372 214.563 188.358C213.937 187.923 213.07 187.391 212.493 187.874C212.252 188.164 212.059 188.502 212.011 188.889C211.482 190.29 210.374 191.353 208.978 191.884C207.63 192.367 206.186 192.657 204.694 192.754C204.261 192.85 203.779 192.802 203.346 192.609C202.672 192.174 202.624 190.676 201.757 190.58C200.987 190.531 199.783 192.174 199.302 192.657Z" fill="#3F3D56"/>
<path d="M210.663 204.444C208.882 202.754 208.112 200.29 206.812 198.164C205.945 196.763 204.79 195.507 203.49 194.493C202.816 194.058 202.239 193.527 201.661 192.947C201.18 192.367 200.843 191.642 200.169 191.401C199.591 191.256 198.965 191.449 198.532 191.836C198.099 192.222 197.713 192.657 197.328 193.14C195.306 195.266 191.696 195.556 190.107 198.019C189.674 198.551 189.385 199.179 189.241 199.855C188.759 203.43 189.674 207.053 191.792 209.952C192.225 210.628 192.851 211.159 193.573 211.401C193.477 212.319 193.573 213.237 193.91 214.058C194.825 217.101 195.884 220.097 197.184 222.995C196.895 224.155 196.654 225.314 196.558 226.473C196.221 229.42 196.558 232.415 196.221 235.362C195.98 237.778 195.258 240.145 195.258 242.56C195.258 242.947 195.306 243.43 195.643 243.623C195.836 243.72 196.029 243.768 196.221 243.768L202.142 243.961C205.56 244.058 209.075 244.155 212.444 243.527C212.878 243.478 213.311 243.333 213.744 243.14C214.9 242.512 215.285 241.063 215.429 239.758C215.67 238.068 215.766 236.377 215.718 234.686C216.44 236.956 217.307 239.324 219.473 240.29C220.628 240.821 221.928 240.773 223.18 240.725C225.876 240.58 228.572 240.338 231.267 239.903C231.845 240 232.375 239.565 232.471 238.985C232.471 238.889 232.471 238.792 232.471 238.696L232.519 236.039C232.567 230.676 231.267 225.556 230.738 220.242C230.593 218.551 230.593 216.86 230.16 215.217C229.968 214.541 229.727 213.865 229.583 213.14C229.438 212.464 229.39 211.787 229.342 211.063L228.957 205.749C228.764 203.285 228.523 200.918 228.331 198.454C228.235 196.087 227.898 193.671 227.32 191.353C226.887 189.903 226.02 188.261 224.528 188.068C223.709 187.971 222.939 188.309 222.169 188.551C220.291 189.13 218.269 189.13 216.392 188.551C215.814 188.309 215.188 188.164 214.611 188.068C213.985 187.971 213.359 188.261 212.974 188.744C212.781 189.13 212.685 189.517 212.733 189.952C212.444 194.783 212.011 199.758 210.663 204.444Z" fill="#32A07E"/>
<path d="M202.961 204.589C200.746 202.222 198.484 199.855 195.595 198.358C194.488 197.778 193.188 197.343 191.937 197.536C190.685 197.73 189.53 198.841 189.578 200.097C189.626 200.87 190.107 201.594 190.252 202.367C190.444 203.237 190.155 204.155 190.444 205.024C190.685 205.556 190.974 206.087 191.407 206.522L194.825 210.58C196.269 212.271 197.713 213.961 199.591 215.169C201.468 216.377 203.875 216.86 205.897 216.039C207.342 215.362 208.545 214.251 209.363 212.85C210.23 211.498 210.808 210 211.578 208.599C212.83 206.377 214.466 204.396 216.392 202.754C215.381 202.512 214.129 202.126 213.504 201.304C213.311 201.063 213.167 200.773 213.022 200.483L212.252 198.792C211.722 198.744 211.193 198.986 210.808 199.324C210.471 199.71 210.134 200.097 209.749 200.435C209.075 200.966 208.16 201.111 207.534 201.691C207.293 201.932 207.101 202.222 206.908 202.512C205.945 203.72 204.501 204.493 202.961 204.589Z" fill="#3F3D56"/>
<path d="M216.536 194.493C218.221 191.449 218.125 187.778 218.606 184.3C218.655 183.382 218.992 182.512 219.521 181.788C220.484 180.676 222.169 180.676 223.613 180.821C224.046 180.87 224.576 181.063 224.576 181.498C224.528 181.643 224.48 181.788 224.335 181.932C222.939 183.768 222.121 185.942 221.976 188.261C222.747 188.792 223.902 187.73 224.624 188.261C225.105 188.647 224.865 189.469 224.576 190.048C223.902 191.401 223.228 192.705 222.506 194.058C221.928 195.217 221.206 196.28 220.291 197.246C219.666 197.826 218.943 198.309 218.366 198.889C216.922 200.242 216.055 202.174 214.563 203.478C214.418 203.623 214.274 203.72 214.081 203.72C213.889 203.72 213.696 203.623 213.6 203.478C212.878 202.85 212.252 202.126 211.771 201.256C211.193 200.193 211.289 199.903 212.204 199.131C213.889 197.826 215.525 196.425 216.536 194.493Z" fill="#BE6F72"/>
<path d="M200.169 202.512C200.457 202.705 200.794 202.899 201.131 202.754C201.276 202.657 201.372 202.56 201.468 202.464C201.998 201.739 202.479 200.918 202.816 200.097C202.864 200 202.913 199.855 202.913 199.71C202.913 199.42 202.624 199.179 202.383 198.985C201.035 198.116 199.543 197.391 198.002 196.908C196.751 196.425 195.403 195.99 194.055 196.135C193.044 196.184 192.081 196.667 191.407 197.488C190.444 198.744 192.081 199.13 193.092 199.565C195.403 200.58 197.954 201.208 200.169 202.512Z" fill="#32A07E"/>
<path opacity="0.1" d="M198.628 210.725C198.58 210.966 198.676 211.159 198.821 211.353C198.965 210.676 198.773 209.952 198.917 209.275C199.11 208.213 200.12 207.44 200.217 206.425C198.387 206.039 198.628 209.613 198.628 210.725Z" fill="black"/>
<path opacity="0.2" d="M283.5 172.947V177.729L263.955 178.937L263.329 174.155L283.5 172.947Z" fill="black"/>
<path d="M196.799 180.676C198.002 179.662 197.328 177.585 198.147 176.232C198.628 175.507 199.447 175.121 200.265 174.783C201.228 174.348 202.239 174.058 203.346 173.913C204.405 173.817 205.464 174.203 206.234 174.976C206.523 175.314 206.764 175.749 207.053 176.135C207.775 177.005 208.978 177.44 210.086 177.198C210.711 177.053 211.385 176.57 211.337 175.894C211.241 175.507 211.048 175.121 210.76 174.879L209.363 173.333C207.775 171.594 206.042 169.759 203.779 169.324C202.191 169.034 200.554 169.469 199.013 169.952C198.387 170.145 197.713 170.483 197.521 171.111C197.425 171.546 197.569 172.029 197.473 172.464C197.28 173.333 196.173 173.623 195.643 174.348C195.114 175.073 195.258 175.942 195.114 176.763C194.969 177.585 194.536 178.358 194.488 179.227C194.44 179.71 194.729 180.676 195.258 180.87C195.788 181.063 196.462 180.048 196.799 180.676Z" fill="#3F3D56"/>
<path d="M210.808 175.217C210.423 173.092 209.508 171.063 208.256 169.324C207.101 167.681 205.512 166.425 203.683 165.7C201.805 164.976 199.735 165.121 198.002 166.135C196.751 167.053 195.74 168.261 195.162 169.71C193.91 172.415 193.477 175.7 194.921 178.309C195.499 177.585 196.51 177.923 197.376 177.681C198.484 177.391 199.398 176.618 200.457 176.184C203.587 174.783 207.438 175.942 210.808 175.217Z" fill="#FED253"/>
<path opacity="0.1" d="M195.643 175.073C195.547 174.203 195.451 173.189 196.077 172.56C196.125 172.464 196.221 172.464 196.317 172.464C196.414 172.512 196.462 172.56 196.51 172.657C196.847 173.237 197.184 173.817 197.425 174.445C196.702 174.251 195.932 174.589 195.499 175.169" fill="black"/>
<path opacity="0.1" d="M206.908 172.609L206.716 170.869C206.668 170.725 206.716 170.58 206.764 170.435C206.908 170.193 207.197 170.097 207.486 170.241C207.727 170.386 207.919 170.58 208.064 170.821C208.449 171.449 208.786 172.077 209.075 172.802C208.304 172.657 207.486 172.657 206.716 172.85" fill="black"/>
<path opacity="0.1" d="M211.241 242.609V246.57L207.919 246.763H190.444V242.609H211.241Z" fill="black"/>
<path d="M211.241 242.609V246.763H190.444L135.323 177.44V174.155H146.877L211.241 242.609Z" fill="#F1C0C0"/>
<path opacity="0.1" d="M211.241 242.609V246.763H190.444L135.323 177.44V174.155H146.877L211.241 242.609Z" fill="black"/>
<path opacity="0.1" d="M211.241 242.609V246.763H190.444L135.323 177.44V174.155L190.781 242.609H211.241Z" fill="black"/>
<path d="M142.544 312.126C142.689 312.899 142.159 313.671 141.389 313.816C141.341 313.816 141.341 313.816 141.293 313.816C139.945 314.251 138.549 314.734 137.586 315.749C136.623 316.763 136.43 318.696 137.586 319.517C138.163 319.855 138.837 320.048 139.511 320.048C141.678 320.193 143.989 320.193 145.962 319.227C147.358 318.551 148.706 317.44 150.247 317.536C151.065 317.585 151.932 317.971 152.606 317.585C153.28 317.198 153.52 316.184 153.52 315.314C153.52 313.527 153.28 311.739 152.75 310.048C152.702 309.807 149.621 309.662 149.236 309.565L145.529 309.082C144.807 308.986 143.315 308.454 142.737 309.034C142.159 309.614 142.544 311.401 142.544 312.126Z" fill="#32A07E"/>
<path d="M164.689 300.048C164.833 300.918 165.122 301.788 165.459 302.56C165.989 303.865 166.615 305.266 167.914 305.894C169.07 306.474 170.466 306.28 171.621 305.701C172.103 305.507 172.536 305.169 172.873 304.734C173.258 304.058 173.402 303.333 173.354 302.56C173.354 300.676 173.258 298.744 172.392 297.102C171.669 295.652 170.37 294.396 170.37 292.802L165.989 293.672C165.748 293.672 165.507 293.768 165.363 293.913C165.219 294.058 165.122 294.251 165.074 294.445C164.545 296.329 164.448 298.213 164.689 300.048Z" fill="#32A07E"/>
<path d="M112.312 254.154C112.119 255.7 112.216 257.391 113.034 258.744C113.853 260.096 115.537 260.966 117.03 260.435C117.174 260.386 117.319 260.29 117.415 260.145C117.463 260 117.415 259.807 117.367 259.662C116.693 257.923 116.789 255.99 117.511 254.299C117.608 254.058 117.8 253.816 118.041 253.913C118.137 253.961 118.233 254.058 118.281 254.154C118.522 254.541 118.618 255.024 118.618 255.507C118.57 255.942 118.522 256.377 118.57 256.811C118.667 257.246 119.1 257.633 119.485 257.439C119.726 257.295 119.87 257.053 119.918 256.811C120.977 253.671 120.496 250.29 120.015 247.005C120.015 246.715 119.822 246.473 119.533 246.473C119.485 246.473 119.485 246.473 119.437 246.473C117.174 246.232 115.923 245.7 114.623 247.826C113.419 249.565 112.312 252.029 112.312 254.154Z" fill="#32A07E"/>
<path d="M138.886 246.232C138.212 249.034 137.538 251.884 137.49 254.783C137.49 256.57 137.634 258.357 137.875 260.145L138.356 264.348C138.549 265.749 138.693 267.15 138.934 268.551C139.078 269.275 139.174 270 139.174 270.725C139.126 271.449 139.03 272.174 138.837 272.899C138.549 274.396 138.356 275.894 138.356 277.391C138.308 279.807 138.597 282.222 138.789 284.638C139.174 289.469 139.126 294.299 138.597 299.082C138.404 300.386 138.693 301.691 139.367 302.802C139.656 303.14 139.897 303.527 140.089 303.961C140.474 305.072 139.608 306.184 139.367 307.295C139.078 309.13 140.33 310.87 142.159 311.159C146.01 311.642 149.958 311.401 153.424 313.188C153.809 312.126 152.991 310.918 153.376 309.807C153.617 309.13 154.242 308.696 154.676 308.116C155.253 307.246 155.542 306.232 155.494 305.169C155.494 303.816 155.253 302.464 154.772 301.159C154.339 300.097 153.761 299.034 153.809 297.923C153.809 297.343 154.002 296.763 153.761 296.232C153.617 295.942 153.376 295.652 153.135 295.459C151.691 293.865 150.825 291.884 150.632 289.758C150.439 287.633 150.536 285.507 150.825 283.43C151.065 281.449 151.354 279.324 152.654 277.778C152.076 273.043 152.413 268.261 153.665 263.623C153.809 263.188 154.002 262.705 154.435 262.609C154.772 262.56 155.109 262.705 155.35 262.995C156.12 263.72 156.457 264.734 156.794 265.7C157.179 266.763 157.516 267.923 157.227 268.985C157.131 269.469 156.89 269.903 156.746 270.338C156.457 271.256 156.505 272.27 156.89 273.188C157.083 273.527 157.179 273.865 157.227 274.251C157.179 274.589 157.083 274.879 156.938 275.169C156.553 276.328 156.746 277.585 157.323 278.647C157.949 279.662 158.671 280.628 159.586 281.401C159.153 283.237 159.297 285.169 159.875 287.005C159.971 287.15 159.971 287.343 159.923 287.536C159.827 287.729 159.634 287.778 159.442 287.923C158.96 288.309 159.249 289.082 159.586 289.565C160.453 290.966 161.464 292.319 162.523 293.623C163.485 294.783 163.389 297.005 164.833 297.44C165.459 297.585 166.037 297.585 166.663 297.44C168.059 297.198 169.647 296.812 170.37 295.556C170.658 295.024 170.755 294.396 171.236 294.01C171.718 293.623 172.247 293.575 172.488 293.092C172.728 292.609 172.44 292.029 172.536 291.498C172.632 290.966 173.065 290.531 173.258 289.952C173.595 288.647 172.103 287.585 171.91 286.232C171.621 284.299 174.028 282.85 173.932 280.918C173.739 276.715 173.595 272.512 173.354 268.309C173.065 264.541 173.065 260.773 173.258 257.005C173.451 254.686 173.739 252.222 172.873 250.048C171.621 246.956 168.251 245.266 164.93 244.928C161.608 244.589 158.383 245.362 155.109 245.894C149.814 246.715 144.326 246.86 138.886 246.232Z" fill="#3F3D56"/>
<path d="M148.658 200.048C152.912 200.048 156.361 196.588 156.361 192.319C156.361 188.05 152.912 184.589 148.658 184.589C144.404 184.589 140.956 188.05 140.956 192.319C140.956 196.588 144.404 200.048 148.658 200.048Z" fill="#FBBEBE"/>
<path d="M145.529 201.498C145 202.754 143.748 203.527 142.4 203.478C142.111 204.638 142.785 205.797 143.555 206.715C146.781 210.483 151.835 212.222 156.698 211.208C157.612 211.063 158.527 210.676 159.297 210.145C160.356 209.275 161.03 208.068 161.271 206.715C161.512 205.362 161.56 204.01 161.464 202.657C161.512 202.367 161.415 202.126 161.271 201.932C161.078 201.787 160.838 201.691 160.597 201.691C158.96 201.546 157.275 201.498 155.831 200.676C154.387 199.855 153.376 198.068 154.098 196.57C154.002 196.812 151.162 196.908 150.825 196.957C149.669 197.101 148.514 197.295 147.358 197.536C146.781 197.585 146.251 197.681 145.722 197.826C145 198.213 145.288 198.019 145.433 198.647C145.577 199.758 145.914 200.483 145.529 201.498Z" fill="#FBBEBE"/>
<path d="M151.354 206.232C150.295 206.232 149.284 206.135 148.273 205.894C147.262 205.652 146.347 205.072 145.722 204.203C145.385 203.671 145.144 202.995 144.566 202.657C143.652 202.174 142.592 202.995 141.822 203.72C141.148 204.444 140.378 205.072 139.511 205.604C138.501 206.135 137.297 206.328 136.286 207.005C135.516 207.584 134.89 208.309 134.36 209.082L127.524 218.406C124.78 222.174 122.422 226.183 119.966 230.145C117.848 233.575 116.741 237.536 115.152 241.208C115.008 241.449 114.96 241.691 115.008 241.932C115.056 242.174 115.393 242.367 115.586 242.222C114.863 242.947 115.489 244.155 115.345 245.169C115.152 245.894 114.767 246.522 114.19 246.956C115.249 246.812 116.308 246.86 117.367 247.101C118.426 247.391 119.437 247.874 120.352 248.551C120.929 248.454 120.881 247.44 121.314 247.053C121.555 246.812 121.94 246.86 122.277 246.812C123.577 246.57 124.058 245.024 125.069 244.154C125.888 243.43 127.043 243.188 127.91 242.512C129.306 241.401 129.643 239.42 130.365 237.778C130.991 236.377 132.002 235.169 132.531 233.72C132.916 232.802 133.061 231.787 133.59 230.918C134.409 229.517 135.949 228.792 137.441 228.116C138.356 227.681 139.367 227.246 140.378 227.343C140.33 229.613 140.041 231.787 140.522 234.01C140.715 234.783 140.908 235.555 141.148 236.328C142.063 239.807 142.304 243.382 142.352 246.956C144.566 246.425 146.829 246.183 149.091 246.135C150.873 246.087 152.654 246.328 154.435 246.28C156.553 246.232 158.671 245.845 160.741 245.7C162.812 245.555 165.074 245.7 166.952 246.667C166.807 243.623 166.903 240.531 167.192 237.488L167.722 232.705C167.818 231.304 168.059 229.903 168.348 228.551C168.637 227.44 169.022 226.377 169.359 225.266C170.466 221.401 170.225 217.295 170.033 213.237C169.936 211.159 169.118 209.13 168.203 207.295C167.866 206.618 167.481 205.942 167.048 205.314C164.737 202.126 160.982 200.386 157.083 200.628C156.842 200.628 156.601 200.676 156.361 200.773C155.976 201.014 155.639 201.401 155.446 201.884C154.579 203.623 153.135 205.121 151.354 206.232Z" fill="#3F3D56"/>
<path d="M141.87 194.879C142.111 194.396 142.689 194.203 143.026 193.816C143.7 193.092 143.411 191.884 143.507 190.918C143.7 189.469 144.903 188.261 146.251 187.729C147.647 187.295 149.14 187.198 150.584 187.44C151.258 187.488 151.932 187.729 152.558 188.116C152.798 188.309 153.039 188.551 153.28 188.696C154.194 189.227 155.35 188.986 155.879 188.068C154.194 185.99 152.269 183.816 149.717 183.188C148.851 182.995 147.936 182.899 147.021 182.947C145.818 182.947 144.566 182.899 143.459 183.382C141.967 184.01 140.908 185.459 140.33 187.005C139.848 188.551 139.608 190.193 139.56 191.836C139.463 192.947 139.463 194.01 139.56 195.121C139.752 196.618 140.282 198.019 141.148 199.275C141.245 199.469 141.437 199.614 141.63 199.71C143.844 200.676 141.678 195.266 141.87 194.879Z" fill="#3F3D56"/>
<path d="M155.639 186.908C155.398 184.638 153.761 182.754 152.028 181.256C150.632 179.952 148.995 178.937 147.214 178.357C145.385 177.826 143.315 177.923 141.774 179.034C140.522 179.903 139.704 181.304 139.126 182.705C138.308 184.348 137.923 186.184 137.971 188.019C138.115 189.855 138.982 191.691 140.571 192.609C141.148 191.787 142.111 191.353 143.074 190.966C147.118 189.372 151.354 188.019 155.639 186.908Z" fill="#FED253"/>
<path opacity="0.1" d="M141.004 185.99C141.148 185.99 141.245 186.135 141.341 186.28C141.726 186.908 142.063 187.536 142.352 188.212C141.774 188.357 140.811 188.454 140.522 187.971C140.378 187.681 140.571 185.942 141.004 185.99Z" fill="black"/>
<path opacity="0.1" d="M151.98 184.879C151.884 184.976 151.739 184.783 151.739 184.589V182.705C151.739 182.657 151.739 182.609 151.787 182.56C151.835 182.512 151.884 182.464 151.932 182.464C152.317 182.416 152.654 182.754 152.895 183.092C153.28 183.623 153.617 184.155 153.857 184.734L151.835 184.686" fill="black"/>
<path d="M177.398 215.942C177.831 215.507 178.313 215.121 178.794 214.783C180.142 213.913 181.731 213.527 183.223 212.947C184.715 212.367 186.256 211.449 186.834 209.952C187.123 209.034 187.219 208.019 187.123 207.053C187.123 206.667 187.074 206.232 186.93 205.846C186.737 205.507 186.497 205.217 186.16 205.024C184.138 203.527 181.394 203.382 178.89 203.575C173.306 203.913 167.866 205.266 162.812 207.585C162.523 207.681 162.33 207.826 162.138 208.068C162.041 208.261 161.993 208.503 161.993 208.744C161.897 210.145 162.089 211.594 162.523 212.947C163.197 214.686 164.545 216.039 165.122 217.826C165.363 218.599 165.459 219.469 165.7 220.242C165.893 221.063 166.374 221.788 167.048 222.271C168.973 223.43 170.755 221.884 172.054 220.676L177.398 215.942Z" fill="#3F3D56"/>
<path d="M152.509 222.609L150.054 217.246C149.717 216.522 149.38 215.749 149.14 214.976C148.851 214.058 148.706 213.092 148.466 212.126C147.599 208.986 145.433 206.425 144.374 203.333C144.326 203.044 144.181 202.802 143.989 202.609C143.7 202.367 143.266 202.319 142.929 202.416C141.437 202.657 140.282 203.817 138.934 204.445C138.308 204.734 137.634 204.928 137.008 205.266C136.382 205.556 135.901 206.135 135.708 206.812C135.564 207.536 135.949 208.261 136.238 208.986C137.538 211.932 137.827 215.266 137.923 218.503C137.971 220.676 137.875 223.044 136.575 224.783C134.12 228.164 135.66 233.14 136.623 237.246C136.719 237.73 136.864 238.261 136.96 238.744C137.056 239.372 137.056 240.048 137.056 240.676C137.056 242.85 136.912 245.073 136.045 247.053C136.96 247.536 137.923 247.826 138.934 247.874C141.726 248.213 144.518 248.503 147.358 248.647C148.225 248.744 149.14 248.696 150.006 248.503C152.124 247.923 153.617 245.99 153.569 243.768C153.713 245.121 154.002 246.57 154.965 247.488C155.927 248.406 157.324 248.551 158.671 248.647C162.378 248.841 166.085 248.744 169.792 248.309C170.033 248.309 170.273 248.261 170.466 248.164C171.188 247.826 171.236 246.812 171.14 246.039C171.044 244.541 170.899 243.092 170.755 241.594C170.61 240.676 170.514 239.71 170.514 238.744C170.61 237.778 170.755 236.812 170.995 235.846C171.621 232.85 172.151 229.759 171.958 226.667C171.862 225.894 171.862 225.169 171.862 224.396C172.006 222.705 172.873 221.063 172.729 219.372C172.247 214.396 171.862 209.275 170.466 204.445C170.225 203.575 169.888 202.657 169.166 202.174C168.203 201.546 166.855 201.884 165.748 201.449C165.219 201.208 164.737 200.918 164.304 200.58C163.293 199.952 162.186 199.614 160.982 199.565C160.116 199.517 159.105 199.71 158.575 200.435C158.334 200.821 158.142 201.304 158.094 201.739C157.372 204.686 156.601 207.585 155.735 210.532L154.965 213.333L152.846 220.821C152.558 221.594 152.702 221.836 152.509 222.609Z" fill="#32A07E"/>
<path d="M164.785 193.382L211.385 242.464V246.618H190.589L155.639 200.821" fill="#F1C0C0"/>
<path opacity="0.1" d="M164.785 193.382L211.385 242.464V246.618H190.589L155.639 200.821" fill="black"/>
<path opacity="0.1" d="M156.361 200.145L156.505 200.193L190.926 242.464H211.385V246.618H190.589L155.639 200.821L156.361 200.145Z" fill="black"/>
<path d="M161.704 201.208C160.019 201.932 158.142 202.899 157.66 204.686C157.564 204.976 157.516 205.314 157.612 205.652C157.853 206.425 158.575 206.957 159.394 207.005C160.164 207.005 160.982 206.86 161.704 206.57L171.621 203.285C171.91 203.188 172.199 203.044 172.247 202.802C172.247 202.657 172.247 202.464 172.151 202.319C171.862 201.546 171.525 200 170.899 199.517C170.37 199.082 169.31 199.227 168.685 199.275C166.229 199.227 163.919 200.242 161.704 201.208Z" fill="#32A07E"/>
<path d="M170.562 203.623C172.247 203.623 173.884 203.865 175.521 204.396C177.109 204.928 178.554 205.894 179.613 207.198C179.901 207.585 180.142 208.019 180.238 208.454C180.335 208.937 181.923 209.227 181.538 209.565C182.597 209.42 182.357 209.903 183.416 209.903C184.475 209.903 185.63 209.614 186.304 208.744C186.737 208.019 186.93 207.198 186.882 206.377C186.882 205.797 186.786 205.217 186.545 204.686C186.063 203.672 184.956 203.14 183.945 202.657L175.328 198.696C174.847 198.406 174.317 198.261 173.739 198.116C173.258 198.068 172.825 198.068 172.343 198.164L168.444 198.599C170.177 199.71 171.188 201.691 171.092 203.768" fill="#3F3D56"/>
<path d="M455.747 164.976C490.39 164.976 518.474 136.793 518.474 102.029C518.474 67.2643 490.39 39.082 455.747 39.082C421.104 39.082 393.02 67.2643 393.02 102.029C393.02 136.793 421.104 164.976 455.747 164.976Z" fill="#3F3D56"/>
<path d="M455.747 159.758C487.519 159.758 513.275 133.912 513.275 102.029C513.275 70.1459 487.519 44.2996 455.747 44.2996C423.975 44.2996 398.219 70.1459 398.219 102.029C398.219 133.912 423.975 159.758 455.747 159.758Z" fill="white"/>
<path d="M455.554 110C459.808 110 463.257 106.539 463.257 102.27C463.257 98.0016 459.808 94.541 455.554 94.541C451.301 94.541 447.852 98.0016 447.852 102.27C447.852 106.539 451.301 110 455.554 110Z" fill="#3F3D56"/>
<path d="M406.932 100.58H400.722V103.913H406.932V100.58Z" fill="#3F3D56"/>
<path d="M453.34 105.604L456.18 99.082L491.756 118.84L453.34 105.604Z" fill="#3F3D56"/>
<path d="M463.883 23.8647H447.659V42.6087H463.883V23.8647Z" fill="#3F3D56"/>
<path d="M455.747 29.0822C466.063 29.0822 474.426 26.7463 474.426 23.8649C474.426 20.9834 466.063 18.6475 455.747 18.6475C445.431 18.6475 437.069 20.9834 437.069 23.8649C437.069 26.7463 445.431 29.0822 455.747 29.0822Z" fill="#3F3D56"/>
</g>
<defs>
<clipPath id="clip0_42_254">
<rect width="567" height="350" fill="white"/>
</clipPath>
</defs>
</svg>
