<svg width="34" height="33" viewBox="0 0 34 33" fill="none" xmlns="http://www.w3.org/2000/svg">
<path fill-rule="evenodd" clip-rule="evenodd" d="M33.0246 16.7547C33.0246 25.7267 25.7513 33 16.7792 33C7.80712 33 0.533813 25.7267 0.533813 16.7547C0.533813 7.78258 7.80712 0.509277 16.7792 0.509277C25.7513 0.509277 33.0246 7.78258 33.0246 16.7547ZM26.4856 24.759V18.0613C26.4856 14.4748 24.5703 12.8056 22.0155 12.8056C19.9522 12.8056 19.0319 13.9408 18.5159 14.7348V13.0798H14.6322C14.6843 14.1753 14.6322 24.7587 14.6322 24.7587H18.5156V18.236C18.5156 17.8859 18.5419 17.5392 18.6441 17.2896C18.9256 16.5911 19.563 15.8697 20.6359 15.8697C22.0419 15.8697 22.6025 16.9412 22.6025 18.5102V24.759H26.4856ZM18.5159 14.7348V14.7731H18.4901C18.4938 14.7664 18.4986 14.7597 18.5035 14.753C18.5078 14.747 18.5122 14.7409 18.5159 14.7348ZM8.37242 9.46778C8.37242 8.32217 9.24148 7.45021 10.5698 7.45021C11.8985 7.45021 12.7148 8.32217 12.7406 9.46778C12.7406 10.5891 11.8985 11.4862 10.544 11.4862H10.5189C9.21628 11.4862 8.37242 10.5891 8.37242 9.46778ZM12.4852 24.759H8.60322V13.0798H12.4852V24.759Z" fill="white"/>
</svg>
