<svg width="89" height="89" viewBox="0 0 89 89" fill="none" xmlns="http://www.w3.org/2000/svg">
<g clip-path="url(#clip0_36_161)">
<path d="M86.4 8.5C85.2 8.5 84 8.4 82.6 8.3C82.8 8 83 7.8 83.1 7.7C83.9 6.9 84.7 6.1 85.5 5.3C86.1 4.7 86.1 4 85.5 3.4C84.9 2.8 84.2 2.9 83.6 3.4C82.6 4.3 81.7 5.3 80.6 6.4C80.5 4.9 80.4 3.7 80.4 2.6C80.4 1.4 80.1 0.5 79 0H77.8C76.8 0.9 75.9 1.8 75 2.7C72.9 4.8 70.8 6.9 68.7 9C67.7 10 67.3 11 67.5 12.4C67.7 13.8 67.7 15 67.8 16.5L66.2 18.6C66.6 18.9 67 19.2 67.3 19.5C65.2 21.6 63.3 23.6 61.3 25.5C61 25.3 60.8 25.1 60.5 24.9C53 18.7 44.3 16.4 34.8 18.4C18.6 21.9 8.60001 37 11.5 53.4C13.9 67.1 26.3 77.9 40.2 78C51.5 78.1 60.4 73.3 66.6 63.9C68.6 60.9 69.8 57.6 70.6 54.1C70.8 53.2 70.4 52.6 69.7 52.4C68.9 52.2 68.4 52.6 68.1 53.5C68.1 53.6 68 53.8 68 53.9C64.5 68.5 50.7 77.6 35.9 74.9C20.9 72.2 10.9 57.1 14.1 42.2C17.9 25 36 15.6 52.2 22.6C55 23.8 57.4 25.4 59.6 27.4C57.6 29.4 55.7 31.3 53.7 33.2C45.3 26.1 33.3 27.6 26.7 35.1C20.1 42.6 20.3 53.5 27 60.9C33.6 68.1 44.5 69.2 52.4 63.4C56.3 60.5 58.9 56.7 59.9 51.9C61.2 45.7 59.7 40.1 55.8 35.4C57.8 33.4 59.7 31.5 61.7 29.5L63.7 27.4C65.6 25.6 67.5 23.6 69.5 21.6C69.6 21.8 69.8 21.9 70 22.2C80.4 34.9 82.7 48.9 76 64C67.4 83.5 43.8 92 24.6 82.7C22 81.4 19.6 79.6 17.1 78C16.5 77.6 15.9 77.3 15.3 77.8C14.5 78.4 14.6 79.4 15.6 80.1C25.4 87.6 36.3 90.4 48.4 88.3C66.9 85.1 81.1 69.2 82.2 50.5C82.8 39.8 79.8 30.3 73.1 21.9C72.9 21.7 72.8 21.5 72.6 21.2C74.1 21.3 75.4 21.3 76.7 21.5C78 21.6 79.1 21.3 80.1 20.3C82 18.3 84 16.4 85.9 14.5C87 13.4 88 12.3 89.1 11.2V9.9C88.4 8.9 87.6 8.5 86.4 8.5ZM53 59.6C46.5 66.2 35.8 66.2 29.3 59.5C22.8 52.8 23 42.1 29.8 35.7C36.8 29.2 46.8 30.4 51.8 35.2C49.9 37.1 48.1 38.9 46.2 40.8L44.1 43C43.8 43.3 43.5 43.6 43.2 43.9C42.2 44.9 41.3 45.8 40.3 46.8C39.7 47.5 39.7 48.2 40.2 48.7C40.8 49.3 41.5 49.2 42.1 48.6C43.4 47.4 44.6 46.1 45.9 44.8L48 43C50 41 51.9 39.1 53.9 37.1C58.7 42.5 59.8 52.6 53 59.6ZM70.1 11.8C70.1 11.5 70.2 11.2 70.4 11C72.8 8.6 75.2 6.2 77.7 3.7C77.7 3.7 77.8 3.7 78 3.6C78.1 5.3 78.2 6.9 78.3 8.6C78.3 8.8 78.2 9 78 9.1C75.5 11.6 73.1 14 70.5 16.6C70.3 14.9 70.2 13.4 70.1 11.8ZM82.2 14.3C80.9 15.6 79.5 17 78.2 18.3C77.9 18.6 77.4 18.8 77.1 18.8C75.6 18.8 74 18.6 72.4 18.5C72.6 18.3 72.7 18.1 72.9 17.9C75.2 15.6 77.4 13.4 79.7 11.1C79.9 10.9 80.3 10.7 80.5 10.7C82.1 10.7 83.7 10.9 85.3 11C85.3 11.1 85.4 11.1 85.4 11.2C84.3 12.3 83.3 13.3 82.2 14.3Z" fill="black"/>
<path d="M71.3 47.4C71.3 48.3 70.9 48.9 70.2 49C69.4 49.1 68.9 48.5 68.7 47.4C68.4 45 68.2 42.6 67.6 40.3C66.6 36.2 64.4 32.6 61.7 29.5L63.7 27.4C63.8 27.6 64 27.8 64.1 28C65.4 29.9 66.7 31.8 67.9 33.8C70.1 38 71.3 42.6 71.3 47.4Z" fill="#0057CF"/>
<path d="M67.8 16.3999L66.2 18.4999C66 18.3999 65.8 18.1999 65.6 18.0999C64.5 17.1999 63.3 16.2999 62 15.4999C54.1 10.3999 45.4 8.49994 36 9.69994C19.7 11.8999 6.5 24.0999 3.4 40.2999C1 52.4999 4 63.4999 12 73.0999C12.2 73.2999 12.4 73.4999 12.6 73.7999C13.1 74.4999 13.1 75.1999 12.5 75.6999C11.9 76.1999 11.2 76.1999 10.6 75.4999C9.3 73.8999 8 72.3999 6.9 70.7999C2.9 64.8999 0.6 58.2999 0.1 51.1999C0.1 50.9999 0 50.7999 0 50.4999V45.2999C0.1 44.9999 0.1 44.7999 0.2 44.4999C1.3 32.9999 6.2 23.4999 15 16.1999C29 4.39994 49.1 3.49994 64.2 13.7999C65.2 14.4999 66.2 15.2999 67.3 16.0999L67.8 16.3999Z" fill="#0057CF"/>
<path d="M46.3 54.4C43 56.9 38.5 56.7 35.5 53.9C32.6 51.1 32.1 46.6 34.3 43.3C36.7 39.7 40.5 38.9 45.1 40.7C45.4 40.8 45.7 40.9 46 41.1L46.2 40.9L44.1 43C43.9 42.9 43.6 42.7 43.4 42.6C41 41.6 38.3 42.3 36.8 44.3C35 46.6 35.2 49.8 37.2 51.8C39.2 53.9 42.4 54.1 44.7 52.3C46.8 50.7 47.5 47.8 46.3 45.3C46.2 45.1 46.1 45 46.1 44.9L48.2 43.1C48.4 43.3 48.5 43.6 48.6 43.8C50.6 47.9 49.1 52.2 46.3 54.4Z" fill="#0057CF"/>
</g>
<defs>
<clipPath id="clip0_36_161">
<rect width="89" height="89" fill="white"/>
</clipPath>
</defs>
</svg>
