<svg width="33" height="33" viewBox="0 0 33 33" fill="none" xmlns="http://www.w3.org/2000/svg">
<path fill-rule="evenodd" clip-rule="evenodd" d="M32.7588 16.7545C32.7588 25.7265 25.4855 32.9997 16.5135 32.9997C7.54155 32.9997 0.268311 25.7265 0.268311 16.7545C0.268311 7.78251 7.54155 0.509277 16.5135 0.509277C25.4855 0.509277 32.7588 7.78251 32.7588 16.7545ZM24.2339 12.7951C25.0193 12.7018 25.7682 12.4931 26.4643 12.1844C25.9439 12.9631 25.2857 13.6468 24.5264 14.1941C24.5339 14.3603 24.5377 14.528 24.5377 14.6962C24.5377 19.828 20.6318 25.7448 13.4894 25.7448C11.2966 25.7448 9.25506 25.1022 7.53752 24.0001C7.84072 24.0363 8.15057 24.0545 8.46333 24.0545C10.2831 24.0545 11.9572 23.4339 13.2864 22.3923C11.5868 22.3607 10.1531 21.238 9.65903 19.6957C9.89591 19.7408 10.1389 19.7649 10.3897 19.7649C10.7432 19.7649 11.087 19.7177 11.4125 19.6285C9.63644 19.272 8.29739 17.7027 8.29739 15.8213C8.29739 15.8051 8.29739 15.7885 8.29768 15.772C8.82097 16.0637 9.42012 16.2383 10.0563 16.2583C9.01499 15.5621 8.32896 14.373 8.32896 13.0262C8.32896 12.3147 8.52066 11.6472 8.85485 11.0738C10.7702 13.4238 13.6316 14.9696 16.8587 15.1315C16.7921 14.8471 16.7577 14.5509 16.7577 14.2465C16.7577 12.1024 18.4966 10.3634 20.6407 10.3634C21.7582 10.3634 22.7675 10.8349 23.4758 11.5893C24.3599 11.4152 25.1913 11.0923 25.9416 10.6472C25.6512 11.5545 25.0358 12.3147 24.2339 12.7951Z" fill="white"/>
</svg>
