<svg width="64" height="74" viewBox="0 0 64 74" fill="none" xmlns="http://www.w3.org/2000/svg">
<g clip-path="url(#clip0_36_152)">
<path d="M63.4514 30.5025C60.5257 26.8927 57.6 23.1927 54.6743 19.583C54.2171 18.9513 53.6686 18.6805 52.8457 18.6805C45.8971 18.6805 38.9486 18.6805 32 18.6805C25.0514 18.6805 18.1029 18.6805 11.1543 18.6805C10.3314 18.6805 9.78286 18.9513 9.23429 19.583C6.30857 23.1927 3.38286 26.8025 0.457143 30.5025C0.274286 30.8635 0 31.1342 0 31.4952V31.7659C0 32.0366 0.274286 32.3074 0.548571 32.7586C10.6057 46.2049 20.6629 59.6513 30.72 73.0976V73.1879C31.6343 74.361 32.2743 74.361 33.0971 73.1879L33.1886 73.0976C43.2457 59.6513 53.3029 46.2049 63.36 32.7586C63.7257 32.3074 63.9086 31.9464 63.9086 31.6757C64 31.3147 63.8171 30.9537 63.4514 30.5025ZM53.4857 21.6586C55.8629 24.6366 58.1486 27.4342 60.5257 30.4122H48C49.8286 27.5244 51.6571 24.6366 53.4857 21.6586ZM51.3829 20.9366C49.4629 23.9147 47.6343 26.8927 45.7143 29.961C42.1486 26.983 38.6743 24.0049 35.0171 20.9366H51.3829ZM42.88 30.4122H21.12C24.7771 27.2537 28.3429 24.2757 32 21.2074C35.6571 24.2757 39.2229 27.344 42.88 30.4122ZM28.9829 20.9366C25.4171 23.9147 21.9429 26.8927 18.3771 29.8708C16.4571 26.8927 14.6286 23.9147 12.7086 20.9366H28.9829ZM10.5143 21.7488C12.3429 24.7269 14.1714 27.5244 16 30.5025H3.47429C5.85143 27.5244 8.13714 24.6366 10.5143 21.7488ZM3.38286 32.7586C3.74857 32.7586 3.93143 32.7586 4.11429 32.7586H16.5486C16.7314 32.7586 16.8229 32.7586 16.9143 32.7586C17.1886 32.8488 17.28 32.9391 17.3714 33.3001C21.0286 44.1293 24.6857 54.9586 28.3429 65.7879C28.4343 65.8781 28.4343 65.9683 28.3429 66.1488C20.1143 55.0488 11.7029 43.9488 3.38286 32.7586ZM32.0914 69.1269H31.9086C27.7943 57.0342 23.68 44.9415 19.5657 32.7586H44.4343C40.32 44.9415 36.2057 57.0342 32.0914 69.1269ZM35.6571 66.2391C35.5657 66.2391 35.5657 66.2391 35.5657 66.1488C35.6571 65.8781 35.6571 65.6976 35.7486 65.4269C39.3143 54.7781 42.9714 44.1293 46.5371 33.4805C46.72 32.8488 46.9943 32.6683 47.7257 32.6683C51.7486 32.6683 55.7714 32.6683 59.7943 32.6683H60.8C52.2971 43.9488 43.9771 55.1391 35.6571 66.2391Z" fill="black"/>
<path d="M58.4229 6.58778C57.0514 8.57315 55.5886 10.5585 54.1257 12.4536C53.8514 12.8146 53.4857 12.9951 53.3029 13.1756C52.2057 13.1756 51.7486 12.2731 52.2057 11.461C52.6629 10.739 53.12 10.1073 53.6686 9.38534C54.6743 8.03168 55.5886 6.67803 56.5943 5.32437C57.1429 4.60242 57.7829 4.42193 58.3314 4.7829C58.9714 5.23412 58.9714 5.86583 58.4229 6.58778Z" fill="black"/>
<path d="M33.0971 5.05366C33.0971 6.22683 33.0971 7.49024 33.0971 8.66341C33.0971 9.47561 32.64 10.0171 32 10.0171C31.36 10.0171 30.9029 9.47561 30.9029 8.66341C30.9029 6.22683 30.9029 3.79024 30.9029 1.35366C30.9029 0.45122 31.36 0 32 0C32.64 0 33.0971 0.541463 33.0971 1.35366C33.0971 2.52683 33.0971 3.79024 33.0971 5.05366Z" fill="black"/>
<path d="M21.3029 10.9195C20.6629 11.1 20.1143 10.9195 19.84 10.1976C18.9257 7.85125 18.0114 5.41467 17.1886 3.06833C16.9143 2.25613 17.3714 1.53418 18.4686 1.53418C18.6514 1.71467 19.0171 1.89516 19.2 2.25613C20.1143 4.69272 21.0286 7.03906 21.9429 9.47564C22.2171 10.1976 21.9429 10.7391 21.3029 10.9195Z" fill="#0057CF"/>
<path d="M46.72 3.24874C45.8971 5.50484 44.9829 7.85118 44.16 10.1073C43.9771 10.5585 43.52 10.8292 43.3371 11.0097C42.24 11.0097 41.7829 10.2878 42.0571 9.47557C42.3314 8.66338 42.6057 7.85118 42.9714 7.03899C43.52 5.50484 44.16 3.97069 44.7086 2.43655C44.9829 1.62435 45.5314 1.35362 46.1714 1.62435C46.8114 1.80484 46.9943 2.43655 46.72 3.24874Z" fill="#0057CF"/>
<path d="M52.6628 40.5195C52.48 40.9707 52.3886 41.2415 52.2057 41.4219C51.3828 42.5951 50.56 43.678 49.7371 44.761C49.28 45.3927 48.5486 45.5732 48 45.2122C47.4514 44.8512 47.4514 44.1293 47.9086 43.4976C48.7314 42.3244 49.5543 41.1512 50.4686 40.0683C50.7428 39.7976 51.3828 39.6171 51.7486 39.7073C52.1143 39.7073 52.3886 40.2488 52.6628 40.5195Z" fill="#0057CF"/>
<path d="M33.28 73.0073L33.1886 73.0976C32.3657 74.2707 31.6343 74.2707 30.8114 73.0976C30.8114 73.0976 30.8114 73.0976 30.8114 73.0073L28.3429 66.1488L16.9143 32.7585H19.5657L32 69.1268L33.28 73.0073Z" fill="#0057CF"/>
</g>
<defs>
<clipPath id="clip0_36_152">
<rect width="64" height="74" fill="white"/>
</clipPath>
</defs>
</svg>
