<svg width="74" height="83" viewBox="0 0 74 83" fill="none" xmlns="http://www.w3.org/2000/svg">
<g clip-path="url(#clip0_36_151)">
<path d="M38.6444 11.9679C38.6444 12.9728 38.0963 13.7037 37.2741 13.7951C36.3605 13.8864 35.5383 13.2469 35.5383 12.242C35.5383 8.67901 35.5383 5.11605 35.5383 1.55309C35.5383 0.822222 36.0864 0.365432 36.6346 0H37.4568C38.279 0.45679 38.6444 1.18765 38.5531 2.19259C38.5531 5.48148 38.6444 8.67901 38.6444 11.9679Z" fill="black"/>
<path d="M73.4518 39.9235C67.879 32.4321 61.1185 26.3111 52.6222 22.2914C42.7555 17.6321 32.7975 17.358 22.7481 21.6519C13.6123 25.5803 6.48641 31.9753 0.639494 39.8321C-0.182728 40.9284 -0.182728 41.3852 0.639494 42.3901C5.02468 48.4198 10.3234 53.4445 16.6271 57.3728C22.8395 61.2099 29.6 63.5852 36.8173 63.5852C41.2025 63.5852 45.2222 62.8543 49.1506 61.3926C59.3827 57.5556 67.1481 50.7951 73.6345 42.2074C74.1827 41.3852 74.0913 40.837 73.4518 39.9235ZM70.0716 41.5679C64.1333 48.9679 57.0987 54.9975 48.1457 58.3778C44.5827 59.7482 40.7457 60.3877 35.8123 60.3877C30.2395 60.3877 24.0271 58.1951 18.3629 54.6321C12.7901 51.2519 8.13085 46.7753 4.01974 41.6593C3.74567 41.3852 3.65431 41.1111 3.92838 40.6543C8.95307 34.3506 14.8 29.1432 22.0173 25.5803C32.5234 20.3728 42.9383 20.7383 53.1704 26.2198C59.8395 29.7827 65.321 34.8074 69.9802 40.6543C70.2543 40.9284 70.3457 41.2025 70.0716 41.5679Z" fill="black"/>
<path d="M38.6444 75.3703C38.6444 77.0148 38.6444 78.6592 38.6444 80.2123C38.6444 81.3999 38.0049 82.2222 37 82.1308C35.995 82.1308 35.4469 81.3999 35.4469 80.2123C35.4469 76.832 35.4469 73.5432 35.4469 70.1629C35.4469 68.9753 36.0864 68.2444 37.0913 68.2444C38.0963 68.2444 38.6444 68.9753 38.6444 70.1629C38.6444 71.9901 38.6444 73.7259 38.6444 75.3703Z" fill="#0057CF"/>
<path d="M14.9827 20.4642C14.9827 21.8345 13.6124 22.6568 12.6074 22.0173C12.3333 21.9259 12.1506 21.6518 11.9679 21.5605C9.86667 19.4592 7.76544 17.358 5.6642 15.1654C5.29877 14.8 4.93334 14.1605 5.0247 13.6123C5.11605 13.1555 5.57284 12.516 6.02963 12.3333C6.48643 12.1506 7.30865 12.3333 7.58272 12.6074C9.95803 14.8 12.1506 17.0839 14.4346 19.4592C14.7086 19.8247 14.8914 20.2815 14.9827 20.4642Z" fill="#0057CF"/>
<path d="M69.3407 13.7951C68.9753 14.3432 68.7926 14.8 68.5185 15.1654C66.4173 17.358 64.2247 19.5506 62.0321 21.6519C61.2099 22.4741 60.2963 22.4741 59.5654 21.7432C58.8346 21.0123 58.9259 20.0988 59.7481 19.3679C61.9407 17.1753 64.1333 14.9827 66.2346 12.8815C66.7827 12.3333 67.5136 12.0593 68.1531 12.4247C68.6099 12.6988 68.884 13.3383 69.3407 13.7951Z" fill="#0057CF"/>
<path d="M14.5259 64.2247C13.8864 64.8642 13.2469 65.5038 12.6074 66.1433C11.0543 67.6963 9.50125 69.2494 7.8568 70.8025C7.49137 71.1679 7.03458 71.3507 6.48643 71.7161C6.02964 71.3507 5.39014 71.0766 5.20742 70.6198C5.0247 70.163 5.11606 69.6149 5.20742 69.0667C5.20742 68.884 5.48149 68.7013 5.66421 68.5186C7.76544 66.4173 9.86668 64.2247 12.0593 62.2149C12.4247 61.8494 13.0642 61.484 13.6124 61.5754C14.0691 61.5754 14.6173 62.0321 14.8914 62.4889C15.1654 63.0371 14.9827 63.7679 14.5259 64.2247Z" fill="black"/>
<path d="M68.6099 71.1679C67.879 71.8074 66.9655 71.8074 66.1432 70.9852C63.9506 68.7926 61.758 66.6 59.6568 64.4988C59.1087 63.9506 58.8346 63.3111 59.2 62.5802C59.4741 62.1234 60.0222 61.758 60.479 61.3926C61.0272 61.758 61.484 61.9407 61.8494 62.2148C64.042 64.316 66.2346 66.5086 68.4272 68.7012C69.2494 69.5234 69.3408 70.437 68.6099 71.1679Z" fill="black"/>
<path d="M51.5259 41.1112C51.4346 48.6939 45.679 54.8149 38.0963 55.5457C30.7877 56.1852 23.8444 50.8865 22.7481 43.4865C22.4741 41.9334 22.6568 40.3803 22.7481 38.8272C22.8395 37.6396 23.5704 37 24.5753 37.1828C25.5802 37.2741 26.037 38.005 25.9457 39.1926C25.6716 40.8371 25.763 42.4815 26.2198 44.0346C27.7728 49.6988 33.2543 53.0791 39.1012 52.1655C44.6741 51.2519 48.6938 46.0445 48.3284 40.2889C47.8716 33.0717 40.6543 28.1383 33.6198 30.3309C33.3457 30.4223 33.163 30.5136 32.8889 30.605C31.9753 30.7877 31.2444 30.3309 30.9704 29.5087C30.6963 28.6865 31.0617 27.8642 31.884 27.4988C33.9852 26.6766 36.0864 26.4025 38.279 26.5852C44.8568 27.3161 49.8815 31.9754 51.1605 38.4618C51.3432 39.3754 51.4346 40.1976 51.5259 41.1112Z" fill="#0057CF"/>
<path d="M37 34.7161C33.5284 34.7161 30.6049 37.5482 30.6049 41.1111C30.6049 44.6741 33.437 47.5975 37 47.5975C40.563 47.5975 43.4864 44.7654 43.4864 41.2025C43.4864 37.6395 40.563 34.7161 37 34.7161ZM37 44.3087C35.2642 44.3087 33.8025 42.8469 33.8025 41.1111C33.8025 39.3753 35.2642 37.9136 37 37.9136C38.7358 37.9136 40.1975 39.3753 40.1975 41.1111C40.1975 42.8469 38.7358 44.3087 37 44.3087Z" fill="black"/>
<path d="M28.9605 33.0716C28.9605 33.9852 28.2296 34.716 27.3161 34.6247C26.4938 34.6247 25.763 33.8938 25.763 32.9802C25.763 32.0667 26.4938 31.3358 27.4074 31.4272C28.2296 31.5185 28.9605 32.2494 28.9605 33.0716Z" fill="black"/>
</g>
<defs>
<clipPath id="clip0_36_151">
<rect width="74" height="82.2222" fill="white"/>
</clipPath>
</defs>
</svg>
